  0
SECTION
  2
HEADER
  9
$ACADVER
  1
AC1032
  9
$ACADMAINTVER
 90
       55
  9
$DWGCODEPAGE
  3
ANSI_1252
  9
$LASTSAVEDBY
  1
Coumbaya
  9
$REQUIREDVERSIONS
160
                 0
  9
$INSBASE
 10
0.0
 20
0.0
 30
0.0
  9
$EXTMIN
 10
5.5284513546
 20
6.7016201525
 30
0.0
  9
$EXTMAX
 10
387.7225833319
 20
387.9964161476
 30
0.0
  9
$LIMMIN
 10
0.0
 20
0.0
  9
$LIMMAX
 10
420.0
 20
297.0
  9
$ORTHOMODE
 70
     0
  9
$REGENMODE
 70
     1
  9
$FILLMODE
 70
     1
  9
$QTEXTMODE
 70
     0
  9
$MIRRTEXT
 70
     1
  9
$LTSCALE
 40
1.0
  9
$ATTMODE
 70
     1
  9
$TEXTSIZE
 40
3.5
  9
$TRACEWID
 40
1.0
  9
$TEXTSTYLE
  7
Standard
  9
$CLAYER
  8
0
  9
$CELTYPE
  6
ByLayer
  9
$CECOLOR
 62
   256
  9
$CELTSCALE
 40
1.0
  9
$DISPSILH
 70
     0
  9
$DIMSCALE
 40
1.0
  9
$DIMASZ
 40
3.556
  9
$DIMEXO
 40
0.0
  9
$DIMDLI
 40
3.75
  9
$DIMRND
 40
0.0
  9
$DIMDLE
 40
0.0
  9
$DIMEXE
 40
1.0
  9
$DIMTP
 40
0.0
  9
$DIMTM
 40
0.0
  9
$DIMTXT
 40
3.5
  9
$DIMCEN
 40
2.5
  9
$DIMTSZ
 40
0.0
  9
$DIMTOL
 70
     0
  9
$DIMLIM
 70
     0
  9
$DIMTIH
 70
     1
  9
$DIMTOH
 70
     1
  9
$DIMSE1
 70
     0
  9
$DIMSE2
 70
     0
  9
$DIMTAD
 70
     1
  9
$DIMZIN
 70
     1
  9
$DIMBLK
  1

  9
$DIMASO
 70
     1
  9
$DIMSHO
 70
     1
  9
$DIMPOST
  1

  9
$DIMAPOST
  1

  9
$DIMALT
 70
     0
  9
$DIMALTD
 70
     3
  9
$DIMALTF
 40
0.0393700787
  9
$DIMLFAC
 40
1.0
  9
$DIMTOFL
 70
     1
  9
$DIMTVP
 40
0.0
  9
$DIMTIX
 70
     0
  9
$DIMSOXD
 70
     0
  9
$DIMSAH
 70
     0
  9
$DIMBLK1
  1

  9
$DIMBLK2
  1

  9
$DIMSTYLE
  2
ISO-25
  9
$DIMCLRD
 70
     0
  9
$DIMCLRE
 70
     0
  9
$DIMCLRT
 70
     0
  9
$DIMTFAC
 40
1.0
  9
$DIMGAP
 40
1.524
  9
$DIMJUST
 70
     0
  9
$DIMSD1
 70
     0
  9
$DIMSD2
 70
     0
  9
$DIMTOLJ
 70
     0
  9
$DIMTZIN
 70
     1
  9
$DIMALTZ
 70
     0
  9
$DIMALTTZ
 70
     0
  9
$DIMUPT
 70
     0
  9
$DIMDEC
 70
     2
  9
$DIMTDEC
 70
     2
  9
$DIMALTU
 70
     2
  9
$DIMALTTD
 70
     3
  9
$DIMTXSTY
  7
Standard
  9
$DIMAUNIT
 70
     0
  9
$DIMADEC
 70
     2
  9
$DIMALTRND
 40
0.0
  9
$DIMAZIN
 70
     0
  9
$DIMDSEP
 70
    44
  9
$DIMATFIT
 70
     3
  9
$DIMFRAC
 70
     0
  9
$DIMLDRBLK
  1

  9
$DIMLUNIT
 70
     2
  9
$DIMLWD
 70
    -2
  9
$DIMLWE
 70
    -2
  9
$DIMTMOVE
 70
     0
  9
$DIMFXL
 40
1.0
  9
$DIMFXLON
 70
     0
  9
$DIMJOGANG
 40
0.7853981634
  9
$DIMTFILL
 70
     0
  9
$DIMTFILLCLR
 70
     0
  9
$DIMARCSYM
 70
     0
  9
$DIMLTYPE
  6

  9
$DIMLTEX1
  6

  9
$DIMLTEX2
  6

  9
$DIMTXTDIRECTION
 70
     0
  9
$LUNITS
 70
     2
  9
$LUPREC
 70
     2
  9
$SKETCHINC
 40
1.0
  9
$FILLETRAD
 40
10.0
  9
$AUNITS
 70
     0
  9
$AUPREC
 70
     2
  9
$MENU
  1
.
  9
$ELEVATION
 40
0.0
  9
$PELEVATION
 40
0.0
  9
$THICKNESS
 40
0.0
  9
$LIMCHECK
 70
     0
  9
$CHAMFERA
 40
0.0
  9
$CHAMFERB
 40
0.0
  9
$CHAMFERC
 40
0.0
  9
$CHAMFERD
 40
0.0
  9
$SKPOLY
 70
     0
  9
$TDCREATE
 40
2459053.334913877
  9
$TDUCREATE
 40
2459053.251580544
  9
$TDUPDATE
 40
2459053.33494287
  9
$TDUUPDATE
 40
2459053.251609537
  9
$TDINDWG
 40
0.0000000116
  9
$TDUSRTIMER
 40
0.0000000116
  9
$USRTIMER
 70
     1
  9
$ANGBASE
 50
0.0
  9
$ANGDIR
 70
     0
  9
$PDMODE
 70
     0
  9
$PDSIZE
 40
-1.0
  9
$PLINEWID
 40
0.0
  9
$SPLFRAME
 70
     0
  9
$SPLINETYPE
 70
     6
  9
$SPLINESEGS
 70
     8
  9
$HANDSEED
  5
2E8
  9
$SURFTAB1
 70
     6
  9
$SURFTAB2
 70
     6
  9
$SURFTYPE
 70
     6
  9
$SURFU
 70
     6
  9
$SURFV
 70
     6
  9
$UCSBASE
  2

  9
$UCSNAME
  2

  9
$UCSORG
 10
0.0
 20
0.0
 30
0.0
  9
$UCSXDIR
 10
1.0
 20
0.0
 30
0.0
  9
$UCSYDIR
 10
0.0
 20
1.0
 30
0.0
  9
$UCSORTHOREF
  2

  9
$UCSORTHOVIEW
 70
     0
  9
$UCSORGTOP
 10
0.0
 20
0.0
 30
0.0
  9
$UCSORGBOTTOM
 10
0.0
 20
0.0
 30
0.0
  9
$UCSORGLEFT
 10
0.0
 20
0.0
 30
0.0
  9
$UCSORGRIGHT
 10
0.0
 20
0.0
 30
0.0
  9
$UCSORGFRONT
 10
0.0
 20
0.0
 30
0.0
  9
$UCSORGBACK
 10
0.0
 20
0.0
 30
0.0
  9
$PUCSBASE
  2

  9
$PUCSNAME
  2

  9
$PUCSORG
 10
0.0
 20
0.0
 30
0.0
  9
$PUCSXDIR
 10
1.0
 20
0.0
 30
0.0
  9
$PUCSYDIR
 10
0.0
 20
1.0
 30
0.0
  9
$PUCSORTHOREF
  2

  9
$PUCSORTHOVIEW
 70
     0
  9
$PUCSORGTOP
 10
0.0
 20
0.0
 30
0.0
  9
$PUCSORGBOTTOM
 10
0.0
 20
0.0
 30
0.0
  9
$PUCSORGLEFT
 10
0.0
 20
0.0
 30
0.0
  9
$PUCSORGRIGHT
 10
0.0
 20
0.0
 30
0.0
  9
$PUCSORGFRONT
 10
0.0
 20
0.0
 30
0.0
  9
$PUCSORGBACK
 10
0.0
 20
0.0
 30
0.0
  9
$USERI1
 70
     0
  9
$USERI2
 70
     0
  9
$USERI3
 70
     0
  9
$USERI4
 70
     0
  9
$USERI5
 70
     0
  9
$USERR1
 40
0.0
  9
$USERR2
 40
0.0
  9
$USERR3
 40
0.0
  9
$USERR4
 40
0.0
  9
$USERR5
 40
0.0
  9
$WORLDVIEW
 70
     1
  9
$SHADEDGE
 70
     3
  9
$SHADEDIF
 70
    70
  9
$TILEMODE
 70
     1
  9
$MAXACTVP
 70
    64
  9
$PINSBASE
 10
0.0
 20
0.0
 30
0.0
  9
$PLIMCHECK
 70
     0
  9
$PEXTMIN
 10
1.0000000000E+20
 20
1.0000000000E+20
 30
1.0000000000E+20
  9
$PEXTMAX
 10
-1.0000000000E+20
 20
-1.0000000000E+20
 30
-1.0000000000E+20
  9
$PLIMMIN
 10
0.0
 20
0.0
  9
$PLIMMAX
 10
420.0
 20
297.0
  9
$UNITMODE
 70
     0
  9
$VISRETAIN
 70
     1
  9
$PLINEGEN
 70
     0
  9
$PSLTSCALE
 70
     1
  9
$TREEDEPTH
 70
  3020
  9
$CMLSTYLE
  2
Standard
  9
$CMLJUST
 70
     0
  9
$CMLSCALE
 40
20.0
  9
$PROXYGRAPHICS
 70
     1
  9
$MEASUREMENT
 70
     1
  9
$CELWEIGHT
370
    -1
  9
$ENDCAPS
280
     0
  9
$JOINSTYLE
280
     0
  9
$LWDISPLAY
290
     1
  9
$INSUNITS
 70
     4
  9
$HYPERLINKBASE
  1

  9
$STYLESHEET
  1

  9
$XEDIT
290
     1
  9
$CEPSNTYPE
380
     0
  9
$PSTYLEMODE
290
     1
  9
$FINGERPRINTGUID
  2
{cc101151-01fc-4068-b461-2da871d68c9d}
  9
$VERSIONGUID
  2
{FAEB1C32-E019-11D5-929B-00C0DF256EC4}
  9
$EXTNAMES
290
     1
  9
$PSVPSCALE
 40
0.0
  9
$OLESTARTUP
290
     0
  9
$SORTENTS
280
   127
  9
$INDEXCTL
280
     0
  9
$HIDETEXT
280
     1
  9
$XCLIPFRAME
280
     2
  9
$HALOGAP
280
     0
  9
$OBSCOLOR
 70
   257
  9
$OBSLTYPE
280
     0
  9
$INTERSECTIONDISPLAY
280
     0
  9
$INTERSECTIONCOLOR
 70
   257
  9
$DIMASSOC
280
     2
  9
$PROJECTNAME
  1

  9
$CAMERADISPLAY
290
     0
  9
$LENSLENGTH
 40
50.0
  9
$CAMERAHEIGHT
 40
0.0
  9
$STEPSPERSEC
 40
2.0
  9
$STEPSIZE
 40
6.0
  9
$3DDWFPREC
 40
2.0
  9
$PSOLWIDTH
 40
5.0
  9
$PSOLHEIGHT
 40
80.0
  9
$LOFTANG1
 40
1.5707963268
  9
$LOFTANG2
 40
1.5707963268
  9
$LOFTMAG1
 40
0.0
  9
$LOFTMAG2
 40
0.0
  9
$LOFTPARAM
 70
     7
  9
$LOFTNORMALS
280
     1
  9
$LATITUDE
 40
37.795
  9
$LONGITUDE
 40
-122.394
  9
$NORTHDIRECTION
 40
0.0
  9
$TIMEZONE
 70
 -8000
  9
$LIGHTGLYPHDISPLAY
280
     1
  9
$TILEMODELIGHTSYNCH
280
     1
  9
$CMATERIAL
347
44
  9
$SOLIDHIST
280
     0
  9
$SHOWHIST
280
     1
  9
$DWFFRAME
280
     2
  9
$DGNFRAME
280
     2
  9
$REALWORLDSCALE
290
     1
  9
$INTERFERECOLOR
 62
   256
  9
$CSHADOW
280
     0
  9
$SHADOWPLANELOCATION
 40
0.0
  0
ENDSEC
  0
SECTION
  2
CLASSES
  0
CLASS
  1
ACDBDICTIONARYWDFLT
  2
AcDbDictionaryWithDefault
  3
ObjectDBX Classes
 90
        0
 91
        3
280
     0
281
     0
  0
CLASS
  1
VISUALSTYLE
  2
AcDbVisualStyle
  3
ObjectDBX Classes
 90
     4095
 91
        3
280
     0
281
     0
  0
CLASS
  1
MATERIAL
  2
AcDbMaterial
  3
ObjectDBX Classes
 90
     1153
 91
        3
280
     0
281
     0
  0
CLASS
  1
SCALE
  2
AcDbScale
  3
ObjectDBX Classes
 90
     1153
 91
        3
280
     0
281
     0
  0
CLASS
  1
TABLESTYLE
  2
AcDbTableStyle
  3
ObjectDBX Classes
 90
     4095
 91
        3
280
     0
281
     0
  0
CLASS
  1
MLEADERSTYLE
  2
AcDbMLeaderStyle
  3
ACDB_MLEADERSTYLE_CLASS
 90
     4095
 91
        3
280
     0
281
     0
  0
CLASS
  1
SUN
  2
AcDbSun
  3
SCENEOE
 90
     1153
 91
        3
280
     0
281
     0
  0
CLASS
  1
DICTIONARYVAR
  2
AcDbDictionaryVar
  3
ObjectDBX Classes
 90
        0
 91
        3
280
     0
281
     0
  0
CLASS
  1
CELLSTYLEMAP
  2
AcDbCellStyleMap
  3
ObjectDBX Classes
 90
     1152
 91
        3
280
     0
281
     0
  0
ENDSEC
  0
SECTION
  2
TABLES
  0
TABLE
  2
VPORT
  5
8
330
0
100
AcDbSymbolTable
 70
     1
  0
VPORT
  5
29
330
8
100
AcDbSymbolTableRecord
100
AcDbViewportTableRecord
  2
*Active
 70
     0
 10
0.0
 20
0.0
 11
1.0
 21
1.0
 12
196.6255173433
 22
197.3490181501
 13
0.0
 23
0.0
 14
10.0
 24
10.0
 15
10.0
 25
10.0
 16
0.0
 26
0.0
 36
1.0
 17
0.0
 27
0.0
 37
0.0
 40
388.920691915
 41
1.0023586369
 42
50.0
 43
0.0
 44
0.0
 50
0.0
 51
0.0
 71
     0
 72
   100
 73
     1
 74
     3
 75
     0
 76
     0
 77
     0
 78
     0
281
     0
 65
     1
110
0.0
120
0.0
130
0.0
111
1.0
121
0.0
131
0.0
112
0.0
122
1.0
132
0.0
 79
     0
146
0.0
348
2F
 60
     3
 61
     5
292
     1
282
     1
141
0.0
142
0.0
 63
   250
361
6D
  0
ENDTAB
  0
TABLE
  2
LTYPE
  5
5
330
0
100
AcDbSymbolTable
 70
     6
  0
LTYPE
  5
14
330
5
100
AcDbSymbolTableRecord
100
AcDbLinetypeTableRecord
  2
ByBlock
 70
     0
  3

 72
    65
 73
     0
 40
0.0
  0
LTYPE
  5
15
330
5
100
AcDbSymbolTableRecord
100
AcDbLinetypeTableRecord
  2
ByLayer
 70
     0
  3

 72
    65
 73
     0
 40
0.0
  0
LTYPE
  5
16
330
5
100
AcDbSymbolTableRecord
100
AcDbLinetypeTableRecord
  2
Continuous
 70
     0
  3
Solid line
 72
    65
 73
     0
 40
0.0
  0
LTYPE
  5
6E
330
5
100
AcDbSymbolTableRecord
100
AcDbLinetypeTableRecord
  2
HIDDEN
 70
     0
  3
Hidden __ __ __ __ __ __ __ __ __ __ __ __ __ __
 72
    65
 73
     2
 40
1.905
 49
1.27
 74
     0
 49
-0.635
 74
     0
  0
LTYPE
  5
6F
330
5
100
AcDbSymbolTableRecord
100
AcDbLinetypeTableRecord
  2
PHANTOM
 70
     0
  3
Phantom ______  __  __  ______  __  __  ______
 72
    65
 73
     6
 40
12.7
 49
6.35
 74
     0
 49
-1.27
 74
     0
 49
1.27
 74
     0
 49
-1.27
 74
     0
 49
1.27
 74
     0
 49
-1.27
 74
     0
  0
LTYPE
  5
70
330
5
100
AcDbSymbolTableRecord
100
AcDbLinetypeTableRecord
  2
CENTER
 70
     0
  3
Center ____ _ ____ _ ____ _ ____ _ ____ _ ____
 72
    65
 73
     4
 40
10.16
 49
6.35
 74
     0
 49
-1.27
 74
     0
 49
1.27
 74
     0
 49
-1.27
 74
     0
  0
LTYPE
  5
71
330
5
100
AcDbSymbolTableRecord
100
AcDbLinetypeTableRecord
  2
CENTERX2
 70
     0
  3
Center (2x) ________  __  ________  __  _____
 72
    65
 73
     4
 40
20.32
 49
12.7
 74
     0
 49
-2.54
 74
     0
 49
2.54
 74
     0
 49
-2.54
 74
     0
  0
LTYPE
  5
72
330
5
100
AcDbSymbolTableRecord
100
AcDbLinetypeTableRecord
  2
DOT2
 70
     0
  3
Dot (.5x) ........................................
 72
    65
 73
     2
 40
0.635
 49
0.0
 74
     0
 49
-0.635
 74
     0
  0
ENDTAB
  0
TABLE
  2
LAYER
  5
2
330
0
100
AcDbSymbolTable
 70
     1
  0
LAYER
  5
10
330
2
100
AcDbSymbolTableRecord
100
AcDbLayerTableRecord
  2
0
 70
     0
 62
     7
  6
Continuous
370
    -3
390
F
347
46
348
0
  0
ENDTAB
  0
TABLE
  2
STYLE
  5
3
330
0
100
AcDbSymbolTable
 70
     1
  0
STYLE
  5
11
330
3
100
AcDbSymbolTableRecord
100
AcDbTextStyleTableRecord
  2
Standard
 70
     0
 40
0.0
 41
1.0
 50
0.0
 71
     0
 42
3.5
  3
txt
  4

  0
ENDTAB
  0
TABLE
  2
VIEW
  5
6
330
0
100
AcDbSymbolTable
 70
     0
  0
ENDTAB
  0
TABLE
  2
UCS
  5
7
330
0
100
AcDbSymbolTable
 70
     0
  0
ENDTAB
  0
TABLE
  2
APPID
  5
9
330
0
100
AcDbSymbolTable
 70
     1
  0
APPID
  5
12
330
9
100
AcDbSymbolTableRecord
100
AcDbRegAppTableRecord
  2
ACAD
 70
     0
  0
ENDTAB
  0
TABLE
  2
DIMSTYLE
  5
A
330
0
100
AcDbSymbolTable
 70
     1
100
AcDbDimStyleTable
  0
DIMSTYLE
105
27
330
A
100
AcDbSymbolTableRecord
100
AcDbDimStyleTableRecord
  2
ISO-25
 70
     0
 41
2.5
 42
0.625
 43
3.75
 44
1.25
 73
     0
 74
     0
 77
     1
 78
     8
140
2.5
141
2.5
143
0.0393700787
147
0.625
171
     3
172
     1
178
     0
271
     2
272
     2
274
     3
278
    44
283
     0
284
     8
340
11
  0
ENDTAB
  0
TABLE
  2
BLOCK_RECORD
  5
1
330
0
100
AcDbSymbolTable
 70
     1
  0
BLOCK_RECORD
  5
1F
330
1
100
AcDbSymbolTableRecord
100
AcDbBlockTableRecord
  2
*Model_Space
340
22
 70
     0
280
     1
281
     0
  0
BLOCK_RECORD
  5
1B
330
1
100
AcDbSymbolTableRecord
100
AcDbBlockTableRecord
  2
*Paper_Space
340
1E
 70
     0
280
     1
281
     0
  0
BLOCK_RECORD
  5
23
330
1
100
AcDbSymbolTableRecord
100
AcDbBlockTableRecord
  2
*Paper_Space0
340
26
 70
     0
280
     1
281
     0
  0
ENDTAB
  0
ENDSEC
  0
SECTION
  2
BLOCKS
  0
BLOCK
  5
20
330
1F
100
AcDbEntity
  8
0
100
AcDbBlockBegin
  2
*Model_Space
 70
     0
 10
0.0
 20
0.0
 30
0.0
  3
*Model_Space
  1

  0
ENDBLK
  5
21
330
1F
100
AcDbEntity
  8
0
100
AcDbBlockEnd
  0
BLOCK
  5
1C
330
1B
100
AcDbEntity
 67
     1
  8
0
100
AcDbBlockBegin
  2
*Paper_Space
 70
     0
 10
0.0
 20
0.0
 30
0.0
  3
*Paper_Space
  1

  0
ENDBLK
  5
1D
330
1B
100
AcDbEntity
 67
     1
  8
0
100
AcDbBlockEnd
  0
BLOCK
  5
24
330
23
100
AcDbEntity
  8
0
100
AcDbBlockBegin
  2
*Paper_Space0
 70
     0
 10
0.0
 20
0.0
 30
0.0
  3
*Paper_Space0
  1

  0
ENDBLK
  5
25
330
23
100
AcDbEntity
  8
0
100
AcDbBlockEnd
  0
ENDSEC
  0
SECTION
  2
ENTITIES
  0
LWPOLYLINE
  5
73
330
1F
100
AcDbEntity
  8
0
  6
Continuous
 62
     7
100
AcDbPolyline
 90
       17
 70
   128
 43
0.0
 10
224.8949395432
 20
17.1798123589
 10
224.5993572892
 20
17.729692205
 10
224.11584496
 20
18.1246005235
 10
223.5180129246
 20
18.3044161028
 10
222.8968756912
 20
18.2417636508
 10
222.3469957728
 20
17.9461814356
 10
221.9520874024
 20
17.4626691699
 10
221.7722717995
 20
16.8648372131
 10
221.8349242596
 20
16.2437000613
 10
222.1305065136
 20
15.6938202152
 10
222.6140188429
 20
15.2989118967
 10
223.2118508782
 20
15.1190963175
 10
223.8329881117
 20
15.1817487694
 10
224.3828680301
 20
15.4773309846
 10
224.7777764005
 20
15.9608432503
 10
224.9575920034
 20
16.5586752071
 10
224.8949395432
 20
17.1798123589
  0
LWPOLYLINE
  5
74
330
1F
100
AcDbEntity
  8
0
  6
Continuous
 62
     7
100
AcDbPolyline
 90
       17
 70
   128
 43
0.0
 10
335.9528584516
 20
17.5352308804
 10
335.6572761976
 20
18.0851107265
 10
335.1737638683
 20
18.4800190449
 10
334.575931833
 20
18.6598346242
 10
333.9547945995
 20
18.5971821722
 10
333.4049146811
 20
18.301599957
 10
333.0100063107
 20
17.8180876913
 10
332.8301907078
 20
17.2202557345
 10
332.892843168
 20
16.5991185827
 10
333.188425422
 20
16.0492387366
 10
333.6719377513
 20
15.6543304181
 10
334.2697697866
 20
15.4745148389
 10
334.8909070201
 20
15.5371672908
 10
335.4407869384
 20
15.832749506
 10
335.8356953088
 20
16.3162617717
 10
336.0155109117
 20
16.9140937285
 10
335.9528584516
 20
17.5352308804
  0
LWPOLYLINE
  5
75
330
1F
100
AcDbEntity
  8
0
  6
Continuous
 62
     7
100
AcDbPolyline
 90
       17
 70
   128
 43
0.0
 10
224.8816792436
 20
94.7715078226
 10
224.5860969896
 20
95.3213876687
 10
224.1025846603
 20
95.7162959871
 10
223.504752625
 20
95.8961115664
 10
222.8836153915
 20
95.8334591144
 10
222.3337354731
 20
95.5378768992
 10
221.9388271027
 20
95.0543646335
 10
221.7590114998
 20
94.4565326767
 10
221.82166396
 20
93.8353955249
 10
222.117246214
 20
93.2855156788
 10
222.6007585432
 20
92.8906073603
 10
223.1985905786
 20
92.7107917811
 10
223.819727812
 20
92.773444233
 10
224.3696077304
 20
93.0690264482
 10
224.7645161008
 20
93.552538714
 10
224.9443317037
 20
94.1503706707
 10
224.8816792436
 20
94.7715078226
  0
LWPOLYLINE
  5
76
330
1F
100
AcDbEntity
  8
0
  6
Continuous
 62
     7
100
AcDbPolyline
 90
       17
 70
   128
 43
0.0
 10
294.4374786651
 20
108.9875475819
 10
294.141896411
 20
109.537427428
 10
293.6583840818
 20
109.9323357464
 10
293.0605520464
 20
110.1121513257
 10
292.439414813
 20
110.0494988737
 10
291.8895348946
 20
109.7539166585
 10
291.4946265242
 20
109.2704043928
 10
291.3148109213
 20
108.672572436
 10
291.3774633814
 20
108.0514352842
 10
291.6730456355
 20
107.5015554381
 10
292.1565579647
 20
107.1066471196
 10
292.7543900001
 20
106.9268315404
 10
293.3755272335
 20
106.9894839923
 10
293.9254071519
 20
107.2850662075
 10
294.3203155223
 20
107.7685784732
 10
294.5001311252
 20
108.36641043
 10
294.4374786651
 20
108.9875475819
  0
LWPOLYLINE
  5
77
330
1F
100
AcDbEntity
  8
0
  6
Continuous
 62
     7
100
AcDbPolyline
 90
       17
 70
   128
 43
0.0
 10
353.8593828514
 20
126.6119567999
 10
353.5638005973
 20
127.161836646
 10
353.0802882681
 20
127.5567449644
 10
352.4824562327
 20
127.7365605437
 10
351.8613189993
 20
127.6739080917
 10
351.3114390809
 20
127.3783258765
 10
350.9165307105
 20
126.8948136108
 10
350.7367151076
 20
126.296981654
 10
350.7993675677
 20
125.6758445022
 10
351.0949498218
 20
125.1259646561
 10
351.578462151
 20
124.7310563376
 10
352.1762941864
 20
124.5512407584
 10
352.7974314198
 20
124.6138932103
 10
353.3473113382
 20
124.9094754255
 10
353.7422197086
 20
125.3929876913
 10
353.9220353115
 20
125.990819648
 10
353.8593828514
 20
126.6119567999
  0
LWPOLYLINE
  5
78
330
1F
100
AcDbEntity
  8
0
  6
Continuous
 62
     7
100
AcDbPolyline
 90
       17
 70
   128
 43
0.0
 10
371.6347971074
 20
95.6856098693
 10
371.3392148534
 20
96.2354897154
 10
370.8557025241
 20
96.6303980339
 10
370.2578704888
 20
96.8102136131
 10
369.6367332553
 20
96.7475611612
 10
369.0868533369
 20
96.451978946
 10
368.6919449665
 20
95.9684666803
 10
368.5121293636
 20
95.3706347235
 10
368.5747818238
 20
94.7494975717
 10
368.8703640778
 20
94.1996177256
 10
369.353876407
 20
93.8047094071
 10
369.9517084424
 20
93.6248938279
 10
370.5728456759
 20
93.6875462798
 10
371.1227255942
 20
93.983128495
 10
371.5176339646
 20
94.4666407607
 10
371.6974495675
 20
95.0644727175
 10
371.6347971074
 20
95.6856098693
  0
LWPOLYLINE
  5
79
330
1F
100
AcDbEntity
  8
0
  6
Continuous
 62
     7
100
AcDbPolyline
 90
       17
 70
   128
 43
0.0
 10
371.5785981087
 20
17.5408215268
 10
371.2830158546
 20
18.0907013729
 10
370.7995035254
 20
18.4856096914
 10
370.20167149
 20
18.6654252706
 10
369.5805342566
 20
18.6027728187
 10
369.0306543382
 20
18.3071906035
 10
368.6357459678
 20
17.8236783378
 10
368.4559303649
 20
17.225846381
 10
368.518582825
 20
16.6047092292
 10
368.8141650791
 20
16.0548293831
 10
369.2976774083
 20
15.6599210646
 10
369.8955094437
 20
15.4801054854
 10
370.5166466771
 20
15.5427579373
 10
371.0665265955
 20
15.8383401525
 10
371.4614349659
 20
16.3218524182
 10
371.6412505688
 20
16.919684375
 10
371.5785981087
 20
17.5408215268
  0
LWPOLYLINE
  5
7A
330
1F
100
AcDbEntity
  8
0
  6
Continuous
 62
     7
100
AcDbPolyline
 90
       17
 70
   128
 43
0.0
 10
378.6513919265
 20
221.2980290022
 10
378.3558096724
 20
221.8479088482
 10
377.8722973432
 20
222.2428171667
 10
377.2744653078
 20
222.422632746
 10
376.6533280744
 20
222.359980294
 10
376.103448156
 20
222.0643980788
 10
375.7085397856
 20
221.5808858131
 10
375.5287241827
 20
220.9830538563
 10
375.5913766428
 20
220.3619167045
 10
375.8869588969
 20
219.8120368584
 10
376.3704712261
 20
219.4171285399
 10
376.9683032615
 20
219.2373129607
 10
377.5894404949
 20
219.2999654126
 10
378.1393204133
 20
219.5955476278
 10
378.5342287837
 20
220.0790598935
 10
378.7140443866
 20
220.6768918503
 10
378.6513919265
 20
221.2980290022
  0
LWPOLYLINE
  5
7B
330
1F
100
AcDbEntity
  8
0
  6
Continuous
 62
     7
100
AcDbPolyline
 90
       17
 70
   128
 43
0.0
 10
267.5934730181
 20
220.9426104807
 10
267.2978907641
 20
221.4924903268
 10
266.8143784348
 20
221.8873986453
 10
266.2165463995
 20
222.0672142246
 10
265.595409166
 20
222.0045617726
 10
265.0455292476
 20
221.7089795574
 10
264.6506208772
 20
221.2254672917
 10
264.4708052743
 20
220.6276353349
 10
264.5334577345
 20
220.0064981831
 10
264.8290399885
 20
219.456618337
 10
265.3125523178
 20
219.0617100185
 10
265.9103843531
 20
218.8818944393
 10
266.5315215866
 20
218.9445468912
 10
267.0814015049
 20
219.2401291064
 10
267.4763098753
 20
219.7236413721
 10
267.6561254782
 20
220.3214733289
 10
267.5934730181
 20
220.9426104807
  0
LWPOLYLINE
  5
7C
330
1F
100
AcDbEntity
  8
0
  6
Continuous
 62
     7
100
AcDbPolyline
 90
       17
 70
   128
 43
0.0
 10
378.6646522261
 20
143.7063335385
 10
378.3690699721
 20
144.2562133846
 10
377.8855576428
 20
144.6511217031
 10
377.2877256075
 20
144.8309372823
 10
376.666588374
 20
144.7682848304
 10
376.1167084557
 20
144.4727026152
 10
375.7218000852
 20
143.9891903495
 10
375.5419844824
 20
143.3913583927
 10
375.6046369425
 20
142.7702212409
 10
375.9002191965
 20
142.2203413948
 10
376.3837315258
 20
141.8254330763
 10
376.9815635611
 20
141.6456174971
 10
377.6027007946
 20
141.708269949
 10
378.152580713
 20
142.0038521642
 10
378.5474890834
 20
142.4873644299
 10
378.7273046863
 20
143.0851963867
 10
378.6646522261
 20
143.7063335385
  0
LWPOLYLINE
  5
7D
330
1F
100
AcDbEntity
  8
0
  6
Continuous
 62
     7
100
AcDbPolyline
 90
       17
 70
   128
 43
0.0
 10
309.1088528046
 20
129.4902937792
 10
308.8132705506
 20
130.0401736253
 10
308.3297582214
 20
130.4350819438
 10
307.731926186
 20
130.6148975231
 10
307.1107889526
 20
130.5522450711
 10
306.5609090342
 20
130.2566628559
 10
306.1660006638
 20
129.7731505902
 10
305.9861850609
 20
129.1753186334
 10
306.048837521
 20
128.5541814816
 10
306.3444197751
 20
128.0043016355
 10
306.8279321043
 20
127.609393317
 10
307.4257641396
 20
127.4295777378
 10
308.0469013731
 20
127.4922301897
 10
308.5967812915
 20
127.7878124049
 10
308.9916896619
 20
128.2713246706
 10
309.1715052648
 20
128.8691566274
 10
309.1088528046
 20
129.4902937792
  0
LWPOLYLINE
  5
7E
330
1F
100
AcDbEntity
  8
0
  6
Continuous
 62
     7
100
AcDbPolyline
 90
       17
 70
   128
 43
0.0
 10
249.6869486184
 20
111.8658845612
 10
249.3913663643
 20
112.4157644073
 10
248.9078540351
 20
112.8106727258
 10
248.3100219997
 20
112.9904883051
 10
247.6888847663
 20
112.9278358531
 10
247.1390048479
 20
112.6322536379
 10
246.7440964775
 20
112.1487413722
 10
246.5642808746
 20
111.5509094154
 10
246.6269333347
 20
110.9297722636
 10
246.9225155888
 20
110.3798924175
 10
247.406027918
 20
109.984984099
 10
248.0038599533
 20
109.8051685198
 10
248.6249971868
 20
109.8678209717
 10
249.1748771052
 20
110.1634031869
 10
249.5697854756
 20
110.6469154526
 10
249.7496010785
 20
111.2447474094
 10
249.6869486184
 20
111.8658845612
  0
LWPOLYLINE
  5
7F
330
1F
100
AcDbEntity
  8
0
  6
Continuous
 62
     7
100
AcDbPolyline
 90
       17
 70
   128
 43
0.0
 10
231.9115343623
 20
142.7922314918
 10
231.6159521083
 20
143.3421113379
 10
231.132439779
 20
143.7370196564
 10
230.5346077437
 20
143.9168352356
 10
229.9134705102
 20
143.8541827837
 10
229.3635905918
 20
143.5586005685
 10
228.9686822214
 20
143.0750883027
 10
228.7888666185
 20
142.477256346
 10
228.8515190787
 20
141.8561191941
 10
229.1471013327
 20
141.306239348
 10
229.630613662
 20
140.9113310296
 10
230.2284456973
 20
140.7315154503
 10
230.8495829308
 20
140.7941679023
 10
231.3994628491
 20
141.0897501175
 10
231.7943712196
 20
141.5732623832
 10
231.9741868224
 20
142.17109434
 10
231.9115343623
 20
142.7922314918
  0
LWPOLYLINE
  5
80
330
1F
100
AcDbEntity
  8
0
  6
Continuous
 62
     7
100
AcDbPolyline
 90
       17
 70
   128
 43
0.0
 10
231.9677333611
 20
220.9370198343
 10
231.672151107
 20
221.4868996804
 10
231.1886387778
 20
221.8818079989
 10
230.5908067424
 20
222.0616235781
 10
229.969669509
 20
221.9989711262
 10
229.4197895906
 20
221.7033889109
 10
229.0248812202
 20
221.2198766452
 10
228.8450656173
 20
220.6220446884
 10
228.9077180774
 20
220.0009075366
 10
229.2033003315
 20
219.4510276905
 10
229.6868126607
 20
219.056119372
 10
230.284644696
 20
218.8763037928
 10
230.9057819295
 20
218.9389562447
 10
231.4556618479
 20
219.23453846
 10
231.8505702183
 20
219.7180507257
 10
232.0303858212
 20
220.3158826825
 10
231.9677333611
 20
220.9370198343
  0
LWPOLYLINE
  5
81
330
1F
100
AcDbEntity
  8
0
  6
Continuous
 62
     7
100
AcDbPolyline
 90
       17
 70
   128
 43
0.0
 10
187.7418007313
 20
219.9960626833
 10
187.4462184773
 20
220.5459425294
 10
186.9627061481
 20
220.9408508479
 10
186.3648741127
 20
221.1206664271
 10
185.7437368792
 20
221.0580139752
 10
185.1938569609
 20
220.76243176
 10
184.7989485905
 20
220.2789194943
 10
184.6191329876
 20
219.6810875375
 10
184.6817854477
 20
219.0599503857
 10
184.9773677017
 20
218.5100705396
 10
185.460880031
 20
218.1151622211
 10
186.0587120663
 20
217.9353466418
 10
186.6798492998
 20
217.9979990938
 10
187.2297292182
 20
218.293581309
 10
187.6246375886
 20
218.7770935747
 10
187.8044531915
 20
219.3749255315
 10
187.7418007313
 20
219.9960626833
  0
LWPOLYLINE
  5
82
330
1F
100
AcDbEntity
  8
0
  6
Continuous
 62
     7
100
AcDbPolyline
 90
       17
 70
   128
 43
0.0
 10
76.6838232704
 20
219.9832598423
 10
76.3882410164
 20
220.5331396884
 10
75.9047286871
 20
220.9280480069
 10
75.3068966518
 20
221.1078635861
 10
74.6857594183
 20
221.0452111342
 10
74.1358795
 20
220.7496289189
 10
73.7409711296
 20
220.2661166532
 10
73.5611555267
 20
219.6682846964
 10
73.6238079868
 20
219.0471475446
 10
73.9193902408
 20
218.4972676985
 10
74.4029025701
 20
218.10235938
 10
75.0007346054
 20
217.9225438008
 10
75.6218718389
 20
217.9851962527
 10
76.1717517573
 20
218.280778468
 10
76.5666601277
 20
218.7642907337
 10
76.7464757306
 20
219.3621226905
 10
76.6838232704
 20
219.9832598423
  0
LWPOLYLINE
  5
83
330
1F
100
AcDbEntity
  8
0
  6
Continuous
 62
     7
100
AcDbPolyline
 90
       17
 70
   128
 43
0.0
 10
187.7550024785
 20
142.7469829001
 10
187.4594202245
 20
143.2968627462
 10
186.9759078952
 20
143.6917710647
 10
186.3780758599
 20
143.8715866439
 10
185.7569386264
 20
143.808934192
 10
185.207058708
 20
143.5133519768
 10
184.8121503376
 20
143.0298397111
 10
184.6323347347
 20
142.4320077543
 10
184.6949871949
 20
141.8108706024
 10
184.9905694489
 20
141.2609907563
 10
185.4740817781
 20
140.8660824379
 10
186.0719138135
 20
140.6862668586
 10
186.693051047
 20
140.7489193106
 10
187.2429309653
 20
141.0445015258
 10
187.6378393357
 20
141.5280137915
 10
187.8176549386
 20
142.1258457483
 10
187.7550024785
 20
142.7469829001
  0
LWPOLYLINE
  5
84
330
1F
100
AcDbEntity
  8
0
  6
Continuous
 62
     7
100
AcDbPolyline
 90
       17
 70
   128
 43
0.0
 10
118.1992030569
 20
128.5309431408
 10
117.9036208029
 20
129.0808229869
 10
117.4201084737
 20
129.4757313054
 10
116.8222764383
 20
129.6555468846
 10
116.2011392048
 20
129.5928944327
 10
115.6512592865
 20
129.2973122175
 10
115.2563509161
 20
128.8137999518
 10
115.0765353132
 20
128.215967995
 10
115.1391877733
 20
127.5948308432
 10
115.4347700273
 20
127.0449509971
 10
115.9182823566
 20
126.6500426786
 10
116.5161143919
 20
126.4702270994
 10
117.1372516254
 20
126.5328795513
 10
117.6871315438
 20
126.8284617665
 10
118.0820399142
 20
127.3119740322
 10
118.2618555171
 20
127.909805989
 10
118.1992030569
 20
128.5309431408
  0
LWPOLYLINE
  5
85
330
1F
100
AcDbEntity
  8
0
  6
Continuous
 62
     7
100
AcDbPolyline
 90
       17
 70
   128
 43
0.0
 10
58.7772988707
 20
110.9065339227
 10
58.4817166166
 20
111.4564137688
 10
57.9982042874
 20
111.8513220873
 10
57.400372252
 20
112.0311376666
 10
56.7792350186
 20
111.9684852146
 10
56.2293551002
 20
111.6729029994
 10
55.8344467298
 20
111.1893907337
 10
55.6546311269
 20
110.5915587769
 10
55.717283587
 20
109.9704216251
 10
56.0128658411
 20
109.420541779
 10
56.4963781703
 20
109.0256334605
 10
57.0942102057
 20
108.8458178813
 10
57.7153474391
 20
108.9084703332
 10
58.2652273575
 20
109.2040525484
 10
58.6601357279
 20
109.6875648141
 10
58.8399513308
 20
110.2853967709
 10
58.7772988707
 20
110.9065339227
  0
LWPOLYLINE
  5
86
330
1F
100
AcDbEntity
  8
0
  6
Continuous
 62
     7
100
AcDbPolyline
 90
       17
 70
   128
 43
0.0
 10
41.0018846147
 20
141.8328808534
 10
40.7063023606
 20
142.3827606995
 10
40.2227900314
 20
142.7776690179
 10
39.624957996
 20
142.9574845972
 10
39.0038207626
 20
142.8948321453
 10
38.4539408442
 20
142.59924993
 10
38.0590324738
 20
142.1157376643
 10
37.8792168709
 20
141.5179057075
 10
37.941869331
 20
140.8967685557
 10
38.2374515851
 20
140.3468887096
 10
38.7209639143
 20
139.9519803911
 10
39.3187959497
 20
139.7721648119
 10
39.9399331831
 20
139.8348172638
 10
40.4898131015
 20
140.130399479
 10
40.8847214719
 20
140.6139117448
 10
41.0645370748
 20
141.2117437016
 10
41.0018846147
 20
141.8328808534
  0
LWPOLYLINE
  5
87
330
1F
100
AcDbEntity
  8
0
  6
Continuous
 62
     7
100
AcDbPolyline
 90
       17
 70
   128
 43
0.0
 10
61.7410143284
 20
219.7136467994
 10
61.4454320744
 20
220.2635266455
 10
60.9619197451
 20
220.658434964
 10
60.3640877098
 20
220.8382505432
 10
59.7429504763
 20
220.7755980913
 10
59.1930705579
 20
220.4800158761
 10
58.7981621875
 20
219.9965036103
 10
58.6183465846
 20
219.3986716536
 10
58.6809990448
 20
218.7775345017
 10
58.9765812988
 20
218.2276546556
 10
59.460093628
 20
217.8327463372
 10
60.0579256634
 20
217.6529307579
 10
60.6790628969
 20
217.7155832098
 10
61.2289428152
 20
218.0111654251
 10
61.6238511856
 20
218.4946776908
 10
61.8036667885
 20
219.0925096476
 10
61.7410143284
 20
219.7136467994
  0
LWPOLYLINE
  5
88
330
1F
100
AcDbEntity
  8
0
  6
Continuous
 62
     7
100
AcDbPolyline
 90
       17
 70
   128
 43
0.0
 10
61.7444330695
 20
199.7091278598
 10
61.4488508154
 20
200.2590077059
 10
60.9653384862
 20
200.6539160244
 10
60.3675064508
 20
200.8337316036
 10
59.7463692174
 20
200.7710791517
 10
59.196489299
 20
200.4754969364
 10
58.8015809286
 20
199.9919846707
 10
58.6217653257
 20
199.3941527139
 10
58.6844177858
 20
198.7730155621
 10
58.9800000399
 20
198.223135716
 10
59.4635123691
 20
197.8282273975
 10
60.0613444045
 20
197.6484118183
 10
60.6824816379
 20
197.7110642702
 10
61.2323615563
 20
198.0066464855
 10
61.6272699267
 20
198.4901587512
 10
61.8070855296
 20
199.087990708
 10
61.7444330695
 20
199.7091278598
  0
LWPOLYLINE
  5
89
330
1F
100
AcDbEntity
  8
0
  6
Continuous
 62
     7
100
AcDbPolyline
 90
       17
 70
   128
 43
0.0
 10
42.3666538502
 20
15.5625525139
 10
42.0710715961
 20
16.11243236
 10
41.5875592669
 20
16.5073406785
 10
40.9897272315
 20
16.6871562578
 10
40.3685899981
 20
16.6245038058
 10
39.8187100797
 20
16.3289215906
 10
39.4238017093
 20
15.8454093249
 10
39.2439861064
 20
15.2475773681
 10
39.3066385665
 20
14.6264402163
 10
39.6022208206
 20
14.0765603702
 10
40.0857331498
 20
13.6816520517
 10
40.6835651852
 20
13.5018364725
 10
41.3047024186
 20
13.5644889244
 10
41.854582337
 20
13.8600711396
 10
42.2494907074
 20
14.3435834053
 10
42.4293063103
 20
14.9414153621
 10
42.3666538502
 20
15.5625525139
  0
LWPOLYLINE
  5
8A
330
1F
100
AcDbEntity
  8
0
  6
Continuous
 62
     7
100
AcDbPolyline
 90
       17
 70
   128
 43
0.0
 10
153.4246320481
 20
15.5630017671
 10
153.1290497941
 20
16.1128816132
 10
152.6455374649
 20
16.5077899316
 10
152.0477054295
 20
16.6876055109
 10
151.426568196
 20
16.6249530589
 10
150.8766882777
 20
16.3293708437
 10
150.4817799073
 20
15.845858578
 10
150.3019643044
 20
15.2480266212
 10
150.3646167645
 20
14.6268894694
 10
150.6601990185
 20
14.0770096233
 10
151.1437113478
 20
13.6821013048
 10
151.7415433831
 20
13.5022857256
 10
152.3626806166
 20
13.5649381775
 10
152.912560535
 20
13.8605203927
 10
153.3074689054
 20
14.3440326584
 10
153.4872845083
 20
14.9418646152
 10
153.4246320481
 20
15.5630017671
  0
LWPOLYLINE
  5
8B
330
1F
100
AcDbEntity
  8
0
  6
Continuous
 62
     7
100
AcDbPolyline
 90
       17
 70
   128
 43
0.0
 10
42.3620449441
 20
92.8116332877
 10
42.0664626901
 20
93.3615131338
 10
41.5829503608
 20
93.7564214523
 10
40.9851183255
 20
93.9362370316
 10
40.363981092
 20
93.8735845796
 10
39.8141011736
 20
93.5780023644
 10
39.4191928032
 20
93.0944900987
 10
39.2393772003
 20
92.4966581419
 10
39.3020296605
 20
91.8755209901
 10
39.5976119145
 20
91.325641144
 10
40.0811242437
 20
90.9307328255
 10
40.6789562791
 20
90.7509172463
 10
41.3000935126
 20
90.8135696982
 10
41.8499734309
 20
91.1091519134
 10
42.2448818013
 20
91.5926641791
 10
42.4246974042
 20
92.1904961359
 10
42.3620449441
 20
92.8116332877
  0
LWPOLYLINE
  5
8C
330
1F
100
AcDbEntity
  8
0
  6
Continuous
 62
     7
100
AcDbPolyline
 90
       17
 70
   128
 43
0.0
 10
111.9194252638
 20
107.0199358861
 10
111.6238430098
 20
107.5698157322
 10
111.1403306805
 20
107.9647240506
 10
110.5424986452
 20
108.1445396299
 10
109.9213614117
 20
108.0818871779
 10
109.3714814934
 20
107.7863049627
 10
108.9765731229
 20
107.302792697
 10
108.7967575201
 20
106.7049607402
 10
108.8594099802
 20
106.0838235884
 10
109.1549922342
 20
105.5339437423
 10
109.6385045635
 20
105.1390354238
 10
110.2363365988
 20
104.9592198446
 10
110.8574738323
 20
105.0218722965
 10
111.4073537507
 20
105.3174545117
 10
111.8022621211
 20
105.8009667774
 10
111.982077724
 20
106.3987987342
 10
111.9194252638
 20
107.0199358861
  0
LWPOLYLINE
  5
8D
330
1F
100
AcDbEntity
  8
0
  6
Continuous
 62
     7
100
AcDbPolyline
 90
       17
 70
   128
 43
0.0
 10
171.3432895427
 20
124.6377351709
 10
171.0477072886
 20
125.187615017
 10
170.5641949594
 20
125.5825233354
 10
169.966362924
 20
125.7623389147
 10
169.3452256906
 20
125.6996864628
 10
168.7953457722
 20
125.4041042475
 10
168.4004374018
 20
124.9205919818
 10
168.2206217989
 20
124.322760025
 10
168.283274259
 20
123.7016228732
 10
168.5788565131
 20
123.1517430271
 10
169.0623688423
 20
122.7568347086
 10
169.6602008777
 20
122.5770191294
 10
170.2813381111
 20
122.6396715813
 10
170.8312180295
 20
122.9352537965
 10
171.2261263999
 20
123.4187660623
 10
171.4059420028
 20
124.016598019
 10
171.3432895427
 20
124.6377351709
  0
LWPOLYLINE
  5
8E
330
1F
100
AcDbEntity
  8
0
  6
Continuous
 62
     7
100
AcDbPolyline
 90
       17
 70
   128
 43
0.0
 10
189.1152635806
 20
93.7094111748
 10
188.8196813266
 20
94.2592910209
 10
188.3361689974
 20
94.6541993394
 10
187.738336962
 20
94.8340149186
 10
187.1171997286
 20
94.7713624667
 10
186.5673198102
 20
94.4757802514
 10
186.1724114398
 20
93.9922679857
 10
185.9925958369
 20
93.3944360289
 10
186.055248297
 20
92.7732988771
 10
186.3508305511
 20
92.223419031
 10
186.8343428803
 20
91.8285107125
 10
187.4321749156
 20
91.6486951333
 10
188.0533121491
 20
91.7113475852
 10
188.6031920675
 20
92.0069298005
 10
188.9981004379
 20
92.4904420662
 10
189.1779160408
 20
93.088274023
 10
189.1152635806
 20
93.7094111748
  0
LWPOLYLINE
  5
8F
330
1F
100
AcDbEntity
  8
0
  6
Continuous
 62
     7
100
AcDbPolyline
 90
       17
 70
   128
 43
0.0
 10
169.5965640764
 20
16.4685741864
 10
169.3009818224
 20
17.0184540325
 10
168.8174694931
 20
17.413362351
 10
168.2196374578
 20
17.5931779302
 10
167.5985002243
 20
17.5305254783
 10
167.0486203059
 20
17.2349432631
 10
166.6537119355
 20
16.7514309974
 10
166.4738963326
 20
16.1535990406
 10
166.5365487928
 20
15.5324618888
 10
166.8321310468
 20
14.9825820427
 10
167.315643376
 20
14.5876737242
 10
167.9134754114
 20
14.407858145
 10
168.5346126449
 20
14.4705105969
 10
169.0844925632
 20
14.7660928121
 10
169.4794009336
 20
15.2496050778
 10
169.6592165365
 20
15.8474370346
 10
169.5965640764
 20
16.4685741864
  0
LWPOLYLINE
  5
90
330
1F
100
AcDbEntity
  8
0
  6
Continuous
 62
     7
100
AcDbPolyline
 90
       17
 70
   128
 43
0.0
 10
169.5953705483
 20
36.4730933826
 10
169.2997882942
 20
37.0229732287
 10
168.816275965
 20
37.4178815471
 10
168.2184439296
 20
37.5976971264
 10
167.5973066962
 20
37.5350446744
 10
167.0474267778
 20
37.2394624592
 10
166.6525184074
 20
36.7559501935
 10
166.4727028045
 20
36.1581182367
 10
166.5353552646
 20
35.5369810849
 10
166.8309375187
 20
34.9871012388
 10
167.3144498479
 20
34.5921929203
 10
167.9122818833
 20
34.4123773411
 10
168.5334191167
 20
34.475029793
 10
169.0832990351
 20
34.7706120082
 10
169.4782074055
 20
35.254124274
 10
169.6580230084
 20
35.8519562307
 10
169.5953705483
 20
36.4730933826
  0
LINE
  5
91
330
1F
100
AcDbEntity
  8
0
  6
Continuous
 62
     7
100
AcDbLine
 10
220.7781764693
 20
9.7034428933
 30
0.0
 11
320.3941166156
 21
10.0222436641
 31
0.0
  0
LINE
  5
92
330
1F
100
AcDbEntity
  8
0
  6
Continuous
 62
     7
100
AcDbLine
 10
327.3921450662
 20
10.0234396163
 30
0.0
 11
320.3941166156
 21
10.0222436641
 31
0.0
  0
LINE
  5
93
330
1F
100
AcDbEntity
  8
0
  6
Continuous
 62
     7
100
AcDbLine
 10
327.3921450662
 20
10.0234396163
 30
0.0
 11
343.3715195826
 21
10.0261704664
 31
0.0
  0
LINE
  5
94
330
1F
100
AcDbEntity
  8
0
  6
Continuous
 62
     7
100
AcDbLine
 10
364.0487391942
 20
10.0730201321
 30
0.0
 11
343.3715195826
 21
10.0261704664
 31
0.0
  0
LINE
  5
95
330
1F
100
AcDbEntity
  8
0
  6
Continuous
 62
     7
100
AcDbLine
 10
364.0487391942
 20
10.0730201321
 30
0.0
 11
379.0917336378
 21
10.0755909564
 31
0.0
  0
LINE
  5
96
330
1F
100
AcDbEntity
  8
0
  6
Continuous
 62
     7
100
AcDbLine
 10
379.0917336378
 20
10.0755909564
 30
0.0
 11
383.5051927536
 21
14.4905582564
 31
0.0
  0
LINE
  5
97
330
1F
100
AcDbEntity
  8
0
  6
Continuous
 62
     7
100
AcDbLine
 10
383.5051927536
 20
14.4905582564
 30
0.0
 11
383.504451717
 21
18.8266809759
 31
0.0
  0
LINE
  5
98
330
1F
100
AcDbEntity
  8
0
  6
Continuous
 62
     7
100
AcDbLine
 10
383.504451717
 20
18.8266809759
 30
0.0
 11
383.4929767709
 21
85.9715076593
 31
0.0
  0
LINE
  5
99
330
1F
100
AcDbEntity
  8
0
  6
Continuous
 62
     7
100
AcDbLine
 10
383.4929767709
 20
85.9715076593
 30
0.0
 11
357.1067983518
 21
131.8791920713
 31
0.0
  0
LINE
  5
9A
330
1F
100
AcDbEntity
  8
0
  6
Continuous
 62
     7
100
AcDbLine
 10
357.1067983518
 20
131.8791920713
 30
0.0
 11
351.0824806498
 21
133.5034242714
 31
0.0
  0
LINE
  5
9B
330
1F
100
AcDbEntity
  8
0
  6
Continuous
 62
     7
100
AcDbLine
 10
351.0824806498
 20
133.5034242714
 30
0.0
 11
329.4208927272
 21
121.0306529008
 31
0.0
  0
LINE
  5
9C
330
1F
100
AcDbEntity
  8
0
  6
Continuous
 62
     7
100
AcDbLine
 10
329.4208927272
 20
121.0306529008
 30
0.0
 11
288.9796498853
 21
115.0120324674
 31
0.0
  0
LINE
  5
9D
330
1F
100
AcDbEntity
  8
0
  6
Continuous
 62
     7
100
AcDbLine
 10
288.9796498853
 20
115.0120324674
 30
0.0
 11
278.9831055518
 21
101.3129581812
 31
0.0
  0
LINE
  5
9E
330
1F
100
AcDbEntity
  8
0
  6
Continuous
 62
     7
100
AcDbLine
 10
220.7842226865
 20
101.3030120829
 30
0.0
 11
278.9831055518
 21
101.3129581812
 31
0.0
  0
LINE
  5
9F
330
1F
100
AcDbEntity
  8
0
  6
Continuous
 62
     7
100
AcDbLine
 10
216.3512850569
 20
96.5646934017
 30
0.0
 11
220.7842226865
 21
101.3030120829
 31
0.0
  0
LINE
  5
A0
330
1F
100
AcDbEntity
  8
0
  6
Continuous
 62
     7
100
AcDbLine
 10
216.3512850569
 20
96.5646934017
 30
0.0
 11
216.3653779068
 21
14.1013895293
 31
0.0
  0
LINE
  5
A1
330
1F
100
AcDbEntity
  8
0
  6
Continuous
 62
     7
100
AcDbLine
 10
216.3653779068
 20
14.1013895293
 30
0.0
 11
220.7781764693
 21
9.7034428933
 31
0.0
  0
LINE
  5
A2
330
1F
100
AcDbEntity
  8
0
  6
Continuous
 62
     7
100
AcDbLine
 10
379.7081397168
 20
227.8382861702
 30
0.0
 11
280.0921995704
 21
227.5194853993
 31
0.0
  0
LINE
  5
A3
330
1F
100
AcDbEntity
  8
0
  6
Continuous
 62
     7
100
AcDbLine
 10
273.0941711199
 20
227.5182894472
 30
0.0
 11
280.0921995704
 21
227.5194853993
 31
0.0
  0
LINE
  5
A4
330
1F
100
AcDbEntity
  8
0
  6
Continuous
 62
     7
100
AcDbLine
 10
273.0941711199
 20
227.5182894472
 30
0.0
 11
257.1147966034
 21
227.515558597
 31
0.0
  0
LINE
  5
A5
330
1F
100
AcDbEntity
  8
0
  6
Continuous
 62
     7
100
AcDbLine
 10
236.4375769919
 20
227.4687089313
 30
0.0
 11
257.1147966034
 21
227.515558597
 31
0.0
  0
LINE
  5
A6
330
1F
100
AcDbEntity
  8
0
  6
Continuous
 62
     7
100
AcDbLine
 10
236.4375769919
 20
227.4687089313
 30
0.0
 11
221.3945825483
 21
227.466138107
 31
0.0
  0
LINE
  5
A7
330
1F
100
AcDbEntity
  8
0
  6
Continuous
 62
     7
100
AcDbLine
 10
221.3945825483
 20
227.466138107
 30
0.0
 11
216.9811234325
 21
223.0511708071
 31
0.0
  0
LINE
  5
A8
330
1F
100
AcDbEntity
  8
0
  6
Continuous
 62
     7
100
AcDbLine
 10
216.9811234325
 20
223.0511708071
 30
0.0
 11
216.9818644691
 21
218.7150480876
 31
0.0
  0
LINE
  5
A9
330
1F
100
AcDbEntity
  8
0
  6
Continuous
 62
     7
100
AcDbLine
 10
216.9818644691
 20
218.7150480876
 30
0.0
 11
216.9933394152
 21
151.5702214042
 31
0.0
  0
LINE
  5
AA
330
1F
100
AcDbEntity
  8
0
  6
Continuous
 62
     7
100
AcDbLine
 10
216.9933394152
 20
151.5702214042
 30
0.0
 11
243.3795178342
 21
105.6625369922
 31
0.0
  0
LINE
  5
AB
330
1F
100
AcDbEntity
  8
0
  6
Continuous
 62
     7
100
AcDbLine
 10
243.3795178342
 20
105.6625369922
 30
0.0
 11
249.4038355363
 21
104.0383047921
 31
0.0
  0
LINE
  5
AC
330
1F
100
AcDbEntity
  8
0
  6
Continuous
 62
     7
100
AcDbLine
 10
249.4038355363
 20
104.0383047921
 30
0.0
 11
271.0654234589
 21
116.5110761626
 31
0.0
  0
LINE
  5
AD
330
1F
100
AcDbEntity
  8
0
  6
Continuous
 62
     7
100
AcDbLine
 10
271.0654234589
 20
116.5110761626
 30
0.0
 11
311.5066663008
 21
122.529696596
 31
0.0
  0
LINE
  5
AE
330
1F
100
AcDbEntity
  8
0
  6
Continuous
 62
     7
100
AcDbLine
 10
311.5066663008
 20
122.529696596
 30
0.0
 11
321.5032106343
 21
136.2287708823
 31
0.0
  0
LINE
  5
AF
330
1F
100
AcDbEntity
  8
0
  6
Continuous
 62
     7
100
AcDbLine
 10
379.7020934996
 20
136.2387169805
 30
0.0
 11
321.5032106343
 21
136.2287708823
 31
0.0
  0
LINE
  5
B0
330
1F
100
AcDbEntity
  8
0
  6
Continuous
 62
     7
100
AcDbLine
 10
384.1350311292
 20
140.9770356618
 30
0.0
 11
379.7020934996
 21
136.2387169805
 31
0.0
  0
LINE
  5
B1
330
1F
100
AcDbEntity
  8
0
  6
Continuous
 62
     7
100
AcDbLine
 10
384.1350311292
 20
140.9770356618
 30
0.0
 11
384.1209382793
 21
223.4403395342
 31
0.0
  0
LINE
  5
B2
330
1F
100
AcDbEntity
  8
0
  6
Continuous
 62
     7
100
AcDbLine
 10
384.1209382793
 20
223.4403395342
 30
0.0
 11
379.7081397168
 21
227.8382861702
 31
0.0
  0
LINE
  5
B3
330
1F
100
AcDbEntity
  8
0
  6
Continuous
 62
     7
100
AcDbLine
 10
174.6701649363
 20
305.9997241364
 30
0.0
 11
147.9445022053
 21
352.4980563645
 31
0.0
  0
LINE
  5
B4
330
1F
100
AcDbEntity
  8
0
  6
Continuous
 62
     7
100
AcDbLine
 10
141.1198789032
 20
354.3380610702
 30
0.0
 11
119.2634174193
 21
341.7530812418
 31
0.0
  0
LINE
  5
B5
330
1F
100
AcDbEntity
  8
0
  6
Continuous
 62
     7
100
AcDbLine
 10
119.2634174193
 20
341.7530812418
 30
0.0
 11
78.5957663587
 21
335.7007658713
 31
0.0
  0
LINE
  5
B6
330
1F
100
AcDbEntity
  8
0
  6
Continuous
 62
     7
100
AcDbLine
 10
78.5957663587
 20
335.7007658713
 30
0.0
 11
68.6520592708
 21
322.074098742
 31
0.0
  0
LINE
  5
B7
330
1F
100
AcDbEntity
  8
0
  6
Continuous
 62
     7
100
AcDbLine
 10
10.5275382371
 20
322.064165352
 30
0.0
 11
68.6520592708
 21
322.074098742
 31
0.0
  0
LINE
  5
B8
330
1F
100
AcDbEntity
  8
0
  6
Continuous
 62
     7
100
AcDbLine
 10
5.5284513546
 20
316.7206959096
 30
0.0
 11
5.5426826403
 21
233.4473451046
 31
0.0
  0
LINE
  5
B9
330
1F
100
AcDbEntity
  8
0
  6
Continuous
 62
     7
100
AcDbLine
 10
10.5435115278
 20
228.4633472467
 30
0.0
 11
110.5730359889
 21
228.7834716109
 31
0.0
  0
LINE
  5
BA
330
1F
100
AcDbEntity
  8
0
  6
Continuous
 62
     7
100
AcDbLine
 10
133.5491477448
 20
233.6086574211
 30
0.0
 11
133.5475441258
 21
247.5810486042
 31
0.0
  0
LINE
  5
BB
330
1F
100
AcDbEntity
  8
0
  6
Continuous
 62
     7
100
AcDbLine
 10
154.2127224166
 20
313.4978960463
 30
0.0
 11
154.21400444
 21
305.9962282105
 31
0.0
  0
LINE
  5
BC
330
1F
100
AcDbEntity
  8
0
  6
Continuous
 62
     7
100
AcDbLine
 10
147.9445022053
 20
352.4980563645
 30
0.0
 11
141.1198789032
 21
354.3380610702
 31
0.0
  0
LINE
  5
BD
330
1F
100
AcDbEntity
  8
0
  6
Continuous
 62
     7
100
AcDbLine
 10
5.5426826403
 20
233.4473451046
 30
0.0
 11
10.5435115278
 21
228.4633472467
 31
0.0
  0
LINE
  5
BE
330
1F
100
AcDbEntity
  8
0
  6
Continuous
 62
     7
100
AcDbLine
 10
5.5284513546
 20
316.7206959096
 30
0.0
 11
10.5275382371
 21
322.064165352
 31
0.0
  0
LINE
  5
BF
330
1F
100
AcDbEntity
  8
0
  6
Continuous
 62
     7
100
AcDbLine
 10
117.5695497434
 20
228.7846673042
 30
0.0
 11
110.5730359889
 21
228.7834716109
 31
0.0
  0
LINE
  5
C0
330
1F
100
AcDbEntity
  8
0
  6
Continuous
 62
     7
100
AcDbLine
 10
117.5695497434
 20
228.7846673042
 30
0.0
 11
133.5499716904
 21
228.7873983333
 31
0.0
  0
LINE
  5
C1
330
1F
100
AcDbEntity
  8
0
  6
Continuous
 62
     7
100
AcDbLine
 10
133.5499716904
 20
228.7873983333
 30
0.0
 11
133.5491477448
 21
233.6086574211
 31
0.0
  0
LINE
  5
C2
330
1F
100
AcDbEntity
  8
0
  6
Continuous
 62
     7
100
AcDbLine
 10
154.2127224166
 20
313.4978960463
 30
0.0
 11
140.2968839477
 21
337.7092051118
 31
0.0
  0
LINE
  5
C3
330
1F
100
AcDbEntity
  8
0
  6
Continuous
 62
     7
100
AcDbLine
 10
140.2968839477
 20
337.7092051118
 30
0.0
 11
123.9493446316
 21
328.2962700542
 31
0.0
  0
LINE
  5
C4
330
1F
100
AcDbEntity
  8
0
  6
Continuous
 62
     7
100
AcDbLine
 10
123.9493446316
 20
328.2962700542
 30
0.0
 11
86.4514086345
 21
322.7156838026
 31
0.0
  0
LINE
  5
C5
330
1F
100
AcDbEntity
  8
0
  6
Continuous
 62
     7
100
AcDbLine
 10
86.4514086345
 20
322.7156838026
 30
0.0
 11
75.7679801073
 21
308.0753164773
 31
0.0
  0
LINE
  5
C6
330
1F
100
AcDbEntity
  8
0
  6
Continuous
 62
     7
100
AcDbLine
 10
19.5299306834
 20
308.0657054824
 30
0.0
 11
75.7679801073
 21
308.0753164773
 31
0.0
  0
LINE
  5
C7
330
1F
100
AcDbEntity
  8
0
  6
Continuous
 62
     7
100
AcDbLine
 10
19.5299306834
 20
308.0657054824
 30
0.0
 11
19.5399447504
 21
249.4691085217
 31
0.0
  0
LINE
  5
C8
330
1F
100
AcDbEntity
  8
0
  6
Continuous
 62
     7
100
AcDbLine
 10
19.5399447504
 20
249.4691085217
 30
0.0
 11
57.5426395167
 21
249.4756031229
 31
0.0
  0
LINE
  5
C9
330
1F
100
AcDbEntity
  8
0
  6
Continuous
 62
     7
100
AcDbLine
 10
57.5426395167
 20
249.4756031229
 30
0.0
 11
57.5434281358
 21
244.8610551937
 31
0.0
  0
LINE
  5
CA
330
1F
100
AcDbEntity
  8
0
  6
Continuous
 62
     7
100
AcDbLine
 10
57.5434281358
 20
244.8610551937
 30
0.0
 11
76.5190305819
 21
244.922838182
 31
0.0
  0
LINE
  5
CB
330
1F
100
AcDbEntity
  8
0
  6
Continuous
 62
     7
100
AcDbLine
 10
76.5190305819
 20
244.922838182
 30
0.0
 11
76.5263507197
 21
242.6745818991
 31
0.0
  0
LINE
  5
CC
330
1F
100
AcDbEntity
  8
0
  6
Continuous
 62
     7
100
AcDbLine
 10
76.5263507197
 20
242.6745818991
 30
0.0
 11
96.527525057
 21
242.7385916327
 31
0.0
  0
LINE
  5
CD
330
1F
100
AcDbEntity
  8
0
  6
Continuous
 62
     7
100
AcDbLine
 10
96.527525057
 20
242.7385916327
 30
0.0
 11
96.5199193891
 21
245.0745436093
 31
0.0
  0
LINE
  5
CE
330
1F
100
AcDbEntity
  8
0
  6
Continuous
 62
     7
100
AcDbLine
 10
96.5199193891
 20
245.0745436093
 30
0.0
 11
115.5473639948
 21
245.0777953699
 31
0.0
  0
LINE
  5
CF
330
1F
100
AcDbEntity
  8
0
  6
Continuous
 62
     7
100
AcDbLine
 10
115.5473639948
 20
245.0777953699
 30
0.0
 11
115.5469367185
 21
247.5779723285
 31
0.0
  0
LINE
  5
D0
330
1F
100
AcDbEntity
  8
0
  6
Continuous
 62
     7
100
AcDbLine
 10
115.5469367185
 20
247.5779723285
 30
0.0
 11
133.5475441258
 21
247.5810486042
 31
0.0
  0
LINE
  5
D1
330
1F
100
AcDbEntity
  8
0
  6
Continuous
 62
     7
100
AcDbLine
 10
174.6701649363
 20
305.9997241364
 30
0.0
 11
154.21400444
 21
305.9962282105
 31
0.0
  0
LINE
  5
D2
330
1F
100
AcDbEntity
  8
0
  6
Continuous
 62
     7
100
AcDbLine
 10
124.5995359931
 20
240.0384693013
 30
0.0
 11
121.8198103314
 21
238.4329606897
 31
0.0
  0
LINE
  5
D3
330
1F
100
AcDbEntity
  8
0
  6
Continuous
 62
     7
100
AcDbLine
 10
121.8198103314
 20
238.4329606897
 30
0.0
 11
121.8203589269
 21
235.2228936618
 31
0.0
  0
LINE
  5
D4
330
1F
100
AcDbEntity
  8
0
  6
Continuous
 62
     7
100
AcDbLine
 10
121.8203589269
 20
235.2228936618
 30
0.0
 11
124.600633184
 21
233.6183352455
 31
0.0
  0
LINE
  5
D5
330
1F
100
AcDbEntity
  8
0
  6
Continuous
 62
     7
100
AcDbLine
 10
124.600633184
 20
233.6183352455
 30
0.0
 11
127.3803588457
 21
235.2238438571
 31
0.0
  0
LINE
  5
D6
330
1F
100
AcDbEntity
  8
0
  6
Continuous
 62
     7
100
AcDbLine
 10
127.3803588457
 20
235.2238438571
 30
0.0
 11
127.3798102503
 21
238.433910885
 31
0.0
  0
LINE
  5
D7
330
1F
100
AcDbEntity
  8
0
  6
Continuous
 62
     7
100
AcDbLine
 10
127.3798102503
 20
238.433910885
 30
0.0
 11
124.5995359931
 21
240.0384693013
 31
0.0
  0
LINE
  5
D8
330
1F
100
AcDbEntity
  8
0
  6
Continuous
 62
     7
100
AcDbLine
 10
13.5416170848
 20
239.6830507799
 30
0.0
 11
10.7618914231
 21
238.0775421683
 31
0.0
  0
LINE
  5
D9
330
1F
100
AcDbEntity
  8
0
  6
Continuous
 62
     7
100
AcDbLine
 10
10.7618914231
 20
238.0775421683
 30
0.0
 11
10.7624400185
 21
234.8674751404
 31
0.0
  0
LINE
  5
DA
330
1F
100
AcDbEntity
  8
0
  6
Continuous
 62
     7
100
AcDbLine
 10
10.7624400185
 20
234.8674751404
 30
0.0
 11
13.5427142757
 21
233.2629167241
 31
0.0
  0
LINE
  5
DB
330
1F
100
AcDbEntity
  8
0
  6
Continuous
 62
     7
100
AcDbLine
 10
13.5427142757
 20
233.2629167241
 30
0.0
 11
16.3224399373
 21
234.8684253357
 31
0.0
  0
LINE
  5
DC
330
1F
100
AcDbEntity
  8
0
  6
Continuous
 62
     7
100
AcDbLine
 10
16.3224399373
 20
234.8684253357
 30
0.0
 11
16.3218913419
 21
238.0784923636
 31
0.0
  0
LINE
  5
DD
330
1F
100
AcDbEntity
  8
0
  6
Continuous
 62
     7
100
AcDbLine
 10
16.3218913419
 20
238.0784923636
 30
0.0
 11
13.5416170848
 21
239.6830507799
 31
0.0
  0
LINE
  5
DE
330
1F
100
AcDbEntity
  8
0
  6
Continuous
 62
     7
100
AcDbLine
 10
13.529453976
 20
310.8546121877
 30
0.0
 11
16.3091796377
 21
312.4601207993
 31
0.0
  0
LINE
  5
DF
330
1F
100
AcDbEntity
  8
0
  6
Continuous
 62
     7
100
AcDbLine
 10
16.3091796377
 20
312.4601207993
 30
0.0
 11
16.3086310422
 21
315.6701878272
 31
0.0
  0
LINE
  5
E0
330
1F
100
AcDbEntity
  8
0
  6
Continuous
 62
     7
100
AcDbLine
 10
16.3086310422
 20
315.6701878272
 30
0.0
 11
13.5283567851
 21
317.2747462435
 31
0.0
  0
LINE
  5
E1
330
1F
100
AcDbEntity
  8
0
  6
Continuous
 62
     7
100
AcDbLine
 10
13.5283567851
 20
317.2747462435
 30
0.0
 11
10.7486311234
 21
315.6692376319
 31
0.0
  0
LINE
  5
E2
330
1F
100
AcDbEntity
  8
0
  6
Continuous
 62
     7
100
AcDbLine
 10
10.7486311234
 20
315.6692376319
 30
0.0
 11
10.7491797189
 21
312.459170604
 31
0.0
  0
LINE
  5
E3
330
1F
100
AcDbEntity
  8
0
  6
Continuous
 62
     7
100
AcDbLine
 10
10.7491797189
 20
312.459170604
 30
0.0
 11
13.529453976
 21
310.8546121877
 31
0.0
  0
LINE
  5
E4
330
1F
100
AcDbEntity
  8
0
  6
Continuous
 62
     7
100
AcDbLine
 10
84.8539368917
 20
325.6022213998
 30
0.0
 11
86.2889680958
 21
328.4736699209
 31
0.0
  0
LINE
  5
E5
330
1F
100
AcDbEntity
  8
0
  6
Continuous
 62
     7
100
AcDbLine
 10
86.2889680958
 20
328.4736699209
 30
0.0
 11
84.5197360062
 21
331.152167496
 31
0.0
  0
LINE
  5
E6
330
1F
100
AcDbEntity
  8
0
  6
Continuous
 62
     7
100
AcDbLine
 10
84.5197360062
 20
331.152167496
 30
0.0
 11
81.3154727124
 21
330.95921655
 31
0.0
  0
LINE
  5
E7
330
1F
100
AcDbEntity
  8
0
  6
Continuous
 62
     7
100
AcDbLine
 10
81.3154727124
 20
330.95921655
 30
0.0
 11
79.8804415082
 21
328.0877680289
 31
0.0
  0
LINE
  5
E8
330
1F
100
AcDbEntity
  8
0
  6
Continuous
 62
     7
100
AcDbLine
 10
79.8804415082
 20
328.0877680289
 30
0.0
 11
81.6496735979
 21
325.4092704538
 31
0.0
  0
LINE
  5
E9
330
1F
100
AcDbEntity
  8
0
  6
Continuous
 62
     7
100
AcDbLine
 10
81.6496735979
 20
325.4092704538
 30
0.0
 11
84.8539368917
 21
325.6022213998
 31
0.0
  0
LINE
  5
EA
330
1F
100
AcDbEntity
  8
0
  6
Continuous
 62
     7
100
AcDbLine
 10
144.1062454337
 20
343.1220194024
 30
0.0
 11
145.7166704419
 21
345.8988994142
 31
0.0
  0
LINE
  5
EB
330
1F
100
AcDbEntity
  8
0
  6
Continuous
 62
     7
100
AcDbLine
 10
145.7166704419
 20
345.8988994142
 30
0.0
 11
144.1170339966
 21
348.6820082047
 31
0.0
  0
LINE
  5
EC
330
1F
100
AcDbEntity
  8
0
  6
Continuous
 62
     7
100
AcDbLine
 10
144.1170339966
 20
348.6820082047
 30
0.0
 11
140.906972543
 21
348.6882369834
 31
0.0
  0
LINE
  5
ED
330
1F
100
AcDbEntity
  8
0
  6
Continuous
 62
     7
100
AcDbLine
 10
140.906972543
 20
348.6882369834
 30
0.0
 11
139.2965475348
 21
345.9113569717
 31
0.0
  0
LINE
  5
EE
330
1F
100
AcDbEntity
  8
0
  6
Continuous
 62
     7
100
AcDbLine
 10
139.2965475348
 20
345.9113569717
 30
0.0
 11
140.8961839801
 21
343.1282481812
 31
0.0
  0
LINE
  5
EF
330
1F
100
AcDbEntity
  8
0
  6
Continuous
 62
     7
100
AcDbLine
 10
140.8961839801
 20
343.1282481812
 30
0.0
 11
144.1062454337
 21
343.1220194024
 31
0.0
  0
LINE
  5
F0
330
1F
100
AcDbEntity
  8
0
  6
Continuous
 62
     7
100
AcDbLine
 10
158.682386799
 20
317.7618900529
 30
0.0
 11
157.0719617908
 21
314.9850100411
 31
0.0
  0
LINE
  5
F1
330
1F
100
AcDbEntity
  8
0
  6
Continuous
 62
     7
100
AcDbLine
 10
157.0719617908
 20
314.9850100411
 30
0.0
 11
158.6715982361
 21
312.2019012506
 31
0.0
  0
LINE
  5
F2
330
1F
100
AcDbEntity
  8
0
  6
Continuous
 62
     7
100
AcDbLine
 10
158.6715982361
 20
312.2019012506
 30
0.0
 11
161.8816596897
 21
312.1956724719
 31
0.0
  0
LINE
  5
F3
330
1F
100
AcDbEntity
  8
0
  6
Continuous
 62
     7
100
AcDbLine
 10
161.8816596897
 20
312.1956724719
 30
0.0
 11
163.4920846979
 21
314.9725524836
 31
0.0
  0
LINE
  5
F4
330
1F
100
AcDbEntity
  8
0
  6
Continuous
 62
     7
100
AcDbLine
 10
163.4920846979
 20
314.9725524836
 30
0.0
 11
161.8924482526
 21
317.7556612741
 31
0.0
  0
LINE
  5
F5
330
1F
100
AcDbEntity
  8
0
  6
Continuous
 62
     7
100
AcDbLine
 10
161.8924482526
 20
317.7556612741
 30
0.0
 11
158.682386799
 21
317.7618900529
 31
0.0
  0
LINE
  5
F6
330
1F
100
AcDbEntity
  8
0
  6
Continuous
 62
     7
100
AcDbLine
 10
7.8346702092
 20
124.9174012526
 30
0.0
 11
7.843726332
 21
71.926145582
 31
0.0
  0
LINE
  5
F7
330
1F
100
AcDbEntity
  8
0
  6
Continuous
 62
     7
100
AcDbLine
 10
26.7891644103
 20
134.6709763221
 30
0.0
 11
12.833003819
 21
134.668591236
 31
0.0
  0
LINE
  5
F8
330
1F
100
AcDbEntity
  8
0
  6
Continuous
 62
     7
100
AcDbLine
 10
7.8338583841
 20
129.667737474
 30
0.0
 11
7.8346702092
 21
124.9174012526
 31
0.0
  0
LINE
  5
F9
330
1F
100
AcDbEntity
  8
0
  6
Continuous
 62
     7
100
AcDbLine
 10
12.833003819
 20
134.668591236
 30
0.0
 11
7.8338583841
 21
129.667737474
 31
0.0
  0
LINE
  5
FA
330
1F
100
AcDbEntity
  8
0
  6
Continuous
 62
     7
100
AcDbLine
 10
22.2934008175
 20
109.8815576975
 30
0.0
 11
19.5136751558
 21
108.2760490859
 31
0.0
  0
LINE
  5
FB
330
1F
100
AcDbEntity
  8
0
  6
Continuous
 62
     7
100
AcDbLine
 10
22.2910800401
 20
123.461420721
 30
0.0
 11
25.0708057018
 21
125.0669293326
 31
0.0
  0
LINE
  5
FC
330
1F
100
AcDbEntity
  8
0
  6
Continuous
 62
     7
100
AcDbLine
 10
25.0708057018
 20
125.0669293326
 30
0.0
 11
25.0702571063
 21
128.2769963606
 31
0.0
  0
LINE
  5
FD
330
1F
100
AcDbEntity
  8
0
  6
Continuous
 62
     7
100
AcDbLine
 10
25.0702571063
 20
128.2769963606
 30
0.0
 11
22.2899828492
 21
129.8815547769
 31
0.0
  0
LINE
  5
FE
330
1F
100
AcDbEntity
  8
0
  6
Continuous
 62
     7
100
AcDbLine
 10
22.2899828492
 20
129.8815547769
 30
0.0
 11
19.5102571875
 21
128.2760461653
 31
0.0
  0
LINE
  5
FF
330
1F
100
AcDbEntity
  8
0
  6
Continuous
 62
     7
100
AcDbLine
 10
19.5102571875
 20
128.2760461653
 30
0.0
 11
19.510805783
 21
125.0659791373
 31
0.0
  0
LINE
  5
100
330
1F
100
AcDbEntity
  8
0
  6
Continuous
 62
     7
100
AcDbLine
 10
19.510805783
 20
125.0659791373
 30
0.0
 11
22.2910800401
 21
123.461420721
 31
0.0
  0
LINE
  5
101
330
1F
100
AcDbEntity
  8
0
  6
Continuous
 62
     7
100
AcDbLine
 10
19.5136751558
 20
108.2760490859
 30
0.0
 11
19.5142237513
 21
105.065982058
 31
0.0
  0
LINE
  5
102
330
1F
100
AcDbEntity
  8
0
  6
Continuous
 62
     7
100
AcDbLine
 10
19.5142237513
 20
105.065982058
 30
0.0
 11
22.2944980084
 21
103.4614236417
 31
0.0
  0
LINE
  5
103
330
1F
100
AcDbEntity
  8
0
  6
Continuous
 62
     7
100
AcDbLine
 10
22.2944980084
 20
103.4614236417
 30
0.0
 11
25.0742236701
 21
105.0669322533
 31
0.0
  0
LINE
  5
104
330
1F
100
AcDbEntity
  8
0
  6
Continuous
 62
     7
100
AcDbLine
 10
25.0742236701
 20
105.0669322533
 30
0.0
 11
25.0736750746
 21
108.2769992812
 31
0.0
  0
LINE
  5
105
330
1F
100
AcDbEntity
  8
0
  6
Continuous
 62
     7
100
AcDbLine
 10
25.0736750746
 20
108.2769992812
 30
0.0
 11
22.2934008175
 21
109.8815576975
 31
0.0
  0
LINE
  5
106
330
1F
100
AcDbEntity
  8
0
  6
Continuous
 62
     7
100
AcDbLine
 10
26.7998868503
 20
71.9293851602
 30
0.0
 11
26.7899762353
 21
129.9206401007
 31
0.0
  0
LINE
  5
107
330
1F
100
AcDbEntity
  8
0
  6
Continuous
 62
     7
100
AcDbLine
 10
26.7899762353
 20
129.9206401007
 30
0.0
 11
26.7891644103
 21
134.6709763221
 31
0.0
  0
LINE
  5
108
330
1F
100
AcDbEntity
  8
0
  6
Continuous
 62
     7
100
AcDbLine
 10
26.7998868503
 20
71.9293851602
 30
0.0
 11
7.843726332
 21
71.926145582
 31
0.0
  0
LINE
  5
109
330
1F
100
AcDbEntity
  8
0
  6
Continuous
 62
     7
100
AcDbLine
 10
7.8458169787
 20
59.6928758232
 30
0.0
 11
7.8548731016
 21
6.7016201525
 31
0.0
  0
LINE
  5
10A
330
1F
100
AcDbEntity
  8
0
  6
Continuous
 62
     7
100
AcDbLine
 10
26.8003111799
 20
69.4464508926
 30
0.0
 11
12.8441505886
 21
69.4440658066
 31
0.0
  0
LINE
  5
10B
330
1F
100
AcDbEntity
  8
0
  6
Continuous
 62
     7
100
AcDbLine
 10
7.8450051537
 20
64.4432120445
 30
0.0
 11
7.8458169787
 21
59.6928758232
 31
0.0
  0
LINE
  5
10C
330
1F
100
AcDbEntity
  8
0
  6
Continuous
 62
     7
100
AcDbLine
 10
12.8441505886
 20
69.4440658066
 30
0.0
 11
7.8450051537
 21
64.4432120445
 31
0.0
  0
LINE
  5
10D
330
1F
100
AcDbEntity
  8
0
  6
Continuous
 62
     7
100
AcDbLine
 10
22.3045475871
 20
44.657032268
 30
0.0
 11
19.5248219254
 21
43.0515236564
 31
0.0
  0
LINE
  5
10E
330
1F
100
AcDbEntity
  8
0
  6
Continuous
 62
     7
100
AcDbLine
 10
22.3022268097
 20
58.2368952915
 30
0.0
 11
25.0819524714
 21
59.8424039032
 31
0.0
  0
LINE
  5
10F
330
1F
100
AcDbEntity
  8
0
  6
Continuous
 62
     7
100
AcDbLine
 10
25.0819524714
 20
59.8424039032
 30
0.0
 11
25.0814038759
 21
63.0524709311
 31
0.0
  0
LINE
  5
110
330
1F
100
AcDbEntity
  8
0
  6
Continuous
 62
     7
100
AcDbLine
 10
25.0814038759
 20
63.0524709311
 30
0.0
 11
22.3011296188
 21
64.6570293474
 31
0.0
  0
LINE
  5
111
330
1F
100
AcDbEntity
  8
0
  6
Continuous
 62
     7
100
AcDbLine
 10
22.3011296188
 20
64.6570293474
 30
0.0
 11
19.5214039571
 21
63.0515207358
 31
0.0
  0
LINE
  5
112
330
1F
100
AcDbEntity
  8
0
  6
Continuous
 62
     7
100
AcDbLine
 10
19.5214039571
 20
63.0515207358
 30
0.0
 11
19.5219525526
 21
59.8414537079
 31
0.0
  0
LINE
  5
113
330
1F
100
AcDbEntity
  8
0
  6
Continuous
 62
     7
100
AcDbLine
 10
19.5219525526
 20
59.8414537079
 30
0.0
 11
22.3022268097
 21
58.2368952915
 31
0.0
  0
LINE
  5
114
330
1F
100
AcDbEntity
  8
0
  6
Continuous
 62
     7
100
AcDbLine
 10
19.5248219254
 20
43.0515236564
 30
0.0
 11
19.5253705209
 21
39.8414566285
 31
0.0
  0
LINE
  5
115
330
1F
100
AcDbEntity
  8
0
  6
Continuous
 62
     7
100
AcDbLine
 10
19.5253705209
 20
39.8414566285
 30
0.0
 11
22.305644778
 21
38.2368982122
 31
0.0
  0
LINE
  5
116
330
1F
100
AcDbEntity
  8
0
  6
Continuous
 62
     7
100
AcDbLine
 10
22.305644778
 20
38.2368982122
 30
0.0
 11
25.0853704397
 21
39.8424068238
 31
0.0
  0
LINE
  5
117
330
1F
100
AcDbEntity
  8
0
  6
Continuous
 62
     7
100
AcDbLine
 10
25.0853704397
 20
39.8424068238
 30
0.0
 11
25.0848218442
 21
43.0524738517
 31
0.0
  0
LINE
  5
118
330
1F
100
AcDbEntity
  8
0
  6
Continuous
 62
     7
100
AcDbLine
 10
25.0848218442
 20
43.0524738517
 30
0.0
 11
22.3045475871
 21
44.657032268
 31
0.0
  0
LINE
  5
119
330
1F
100
AcDbEntity
  8
0
  6
Continuous
 62
     7
100
AcDbLine
 10
26.8110336199
 20
6.7048597307
 30
0.0
 11
26.8011230049
 21
64.6961146712
 31
0.0
  0
LINE
  5
11A
330
1F
100
AcDbEntity
  8
0
  6
Continuous
 62
     7
100
AcDbLine
 10
26.8011230049
 20
64.6961146712
 30
0.0
 11
26.8003111799
 21
69.4464508926
 31
0.0
  0
LINE
  5
11B
330
1F
100
AcDbEntity
  8
0
  6
Continuous
 62
     7
100
AcDbLine
 10
26.8110336199
 20
6.7048597307
 30
0.0
 11
7.8548731016
 21
6.7016201525
 31
0.0
  0
LINE
  5
11C
330
1F
100
AcDbEntity
  8
0
  6
Continuous
 62
     7
100
AcDbLine
 10
22.9292291012
 20
303.6732852666
 30
0.0
 11
49.6548918322
 21
257.1749530385
 31
0.0
  0
LINE
  5
11D
330
1F
100
AcDbEntity
  8
0
  6
Continuous
 62
     7
100
AcDbLine
 10
56.4795151343
 20
255.3349483328
 30
0.0
 11
78.3359766182
 21
267.9199281612
 31
0.0
  0
LINE
  5
11E
330
1F
100
AcDbEntity
  8
0
  6
Continuous
 62
     7
100
AcDbLine
 10
78.3359766182
 20
267.9199281612
 30
0.0
 11
119.0036276788
 21
273.9722435317
 31
0.0
  0
LINE
  5
11F
330
1F
100
AcDbEntity
  8
0
  6
Continuous
 62
     7
100
AcDbLine
 10
119.0036276788
 20
273.9722435317
 30
0.0
 11
128.9473347667
 21
287.598910661
 31
0.0
  0
LINE
  5
120
330
1F
100
AcDbEntity
  8
0
  6
Continuous
 62
     7
100
AcDbLine
 10
187.0718558004
 20
287.608844051
 30
0.0
 11
128.9473347667
 21
287.598910661
 31
0.0
  0
LINE
  5
121
330
1F
100
AcDbEntity
  8
0
  6
Continuous
 62
     7
100
AcDbLine
 10
192.0709426829
 20
292.9523134934
 30
0.0
 11
192.0567113972
 21
376.2256642984
 31
0.0
  0
LINE
  5
122
330
1F
100
AcDbEntity
  8
0
  6
Continuous
 62
     7
100
AcDbLine
 10
187.0558825097
 20
381.2096621563
 30
0.0
 11
87.0263580486
 21
380.8895377921
 31
0.0
  0
LINE
  5
123
330
1F
100
AcDbEntity
  8
0
  6
Continuous
 62
     7
100
AcDbLine
 10
64.0502462927
 20
376.0643519805
 30
0.0
 11
64.0518499117
 21
362.0919607988
 31
0.0
  0
LINE
  5
124
330
1F
100
AcDbEntity
  8
0
  6
Continuous
 62
     7
100
AcDbLine
 10
43.3866716209
 20
296.1751133567
 30
0.0
 11
43.3853895976
 21
303.6767811925
 31
0.0
  0
LINE
  5
125
330
1F
100
AcDbEntity
  8
0
  6
Continuous
 62
     7
100
AcDbLine
 10
49.6548918322
 20
257.1749530385
 30
0.0
 11
56.4795151343
 21
255.3349483328
 31
0.0
  0
LINE
  5
126
330
1F
100
AcDbEntity
  8
0
  6
Continuous
 62
     7
100
AcDbLine
 10
192.0567113972
 20
376.2256642984
 30
0.0
 11
187.0558825097
 21
381.2096621563
 31
0.0
  0
LINE
  5
127
330
1F
100
AcDbEntity
  8
0
  6
Continuous
 62
     7
100
AcDbLine
 10
192.0709426829
 20
292.9523134934
 30
0.0
 11
187.0718558004
 21
287.608844051
 31
0.0
  0
LINE
  5
128
330
1F
100
AcDbEntity
  8
0
  6
Continuous
 62
     7
100
AcDbLine
 10
80.0298442941
 20
380.8883420988
 30
0.0
 11
87.0263580486
 21
380.8895377921
 31
0.0
  0
LINE
  5
129
330
1F
100
AcDbEntity
  8
0
  6
Continuous
 62
     7
100
AcDbLine
 10
80.0298442941
 20
380.8883420988
 30
0.0
 11
64.0494223471
 21
380.8856110697
 31
0.0
  0
LINE
  5
12A
330
1F
100
AcDbEntity
  8
0
  6
Continuous
 62
     7
100
AcDbLine
 10
64.0494223471
 20
380.8856110697
 30
0.0
 11
64.0502462927
 21
376.0643519805
 31
0.0
  0
LINE
  5
12B
330
1F
100
AcDbEntity
  8
0
  6
Continuous
 62
     7
100
AcDbLine
 10
43.3866716209
 20
296.1751133567
 30
0.0
 11
57.3025100898
 21
271.9638042912
 31
0.0
  0
LINE
  5
12C
330
1F
100
AcDbEntity
  8
0
  6
Continuous
 62
     7
100
AcDbLine
 10
57.3025100898
 20
271.9638042912
 30
0.0
 11
73.6500494059
 21
281.3767393488
 31
0.0
  0
LINE
  5
12D
330
1F
100
AcDbEntity
  8
0
  6
Continuous
 62
     7
100
AcDbLine
 10
73.6500494059
 20
281.3767393488
 30
0.0
 11
111.147985403
 21
286.9573256004
 31
0.0
  0
LINE
  5
12E
330
1F
100
AcDbEntity
  8
0
  6
Continuous
 62
     7
100
AcDbLine
 10
111.147985403
 20
286.9573256004
 30
0.0
 11
121.8314139302
 21
301.5976929257
 31
0.0
  0
LINE
  5
12F
330
1F
100
AcDbEntity
  8
0
  6
Continuous
 62
     7
100
AcDbLine
 10
178.0694633541
 20
301.6073039206
 30
0.0
 11
121.8314139302
 21
301.5976929257
 31
0.0
  0
LINE
  5
130
330
1F
100
AcDbEntity
  8
0
  6
Continuous
 62
     7
100
AcDbLine
 10
178.0694633541
 20
301.6073039206
 30
0.0
 11
178.0594492871
 21
360.2039008813
 31
0.0
  0
LINE
  5
131
330
1F
100
AcDbEntity
  8
0
  6
Continuous
 62
     7
100
AcDbLine
 10
178.0594492871
 20
360.2039008813
 30
0.0
 11
140.0567545208
 21
360.1974062801
 31
0.0
  0
LINE
  5
132
330
1F
100
AcDbEntity
  8
0
  6
Continuous
 62
     7
100
AcDbLine
 10
140.0567545208
 20
360.1974062801
 30
0.0
 11
140.0559659017
 21
364.8119542093
 31
0.0
  0
LINE
  5
133
330
1F
100
AcDbEntity
  8
0
  6
Continuous
 62
     7
100
AcDbLine
 10
140.0559659017
 20
364.8119542093
 30
0.0
 11
121.0803634557
 21
364.750171221
 31
0.0
  0
LINE
  5
134
330
1F
100
AcDbEntity
  8
0
  6
Continuous
 62
     7
100
AcDbLine
 10
121.0803634557
 20
364.750171221
 30
0.0
 11
121.0730433178
 21
366.9984275039
 31
0.0
  0
LINE
  5
135
330
1F
100
AcDbEntity
  8
0
  6
Continuous
 62
     7
100
AcDbLine
 10
121.0730433178
 20
366.9984275039
 30
0.0
 11
101.0718689806
 21
366.9344177703
 31
0.0
  0
LINE
  5
136
330
1F
100
AcDbEntity
  8
0
  6
Continuous
 62
     7
100
AcDbLine
 10
101.0718689806
 20
366.9344177703
 30
0.0
 11
101.0794746484
 21
364.5984657937
 31
0.0
  0
LINE
  5
137
330
1F
100
AcDbEntity
  8
0
  6
Continuous
 62
     7
100
AcDbLine
 10
101.0794746484
 20
364.5984657937
 30
0.0
 11
82.0520300427
 21
364.5952140332
 31
0.0
  0
LINE
  5
138
330
1F
100
AcDbEntity
  8
0
  6
Continuous
 62
     7
100
AcDbLine
 10
82.0520300427
 20
364.5952140332
 30
0.0
 11
82.052457319
 21
362.0950370745
 31
0.0
  0
LINE
  5
139
330
1F
100
AcDbEntity
  8
0
  6
Continuous
 62
     7
100
AcDbLine
 10
82.052457319
 20
362.0950370745
 30
0.0
 11
64.0518499117
 21
362.0919607988
 31
0.0
  0
LINE
  5
13A
330
1F
100
AcDbEntity
  8
0
  6
Continuous
 62
     7
100
AcDbLine
 10
22.9292291012
 20
303.6732852666
 30
0.0
 11
43.3853895976
 21
303.6767811925
 31
0.0
  0
LINE
  5
13B
330
1F
100
AcDbEntity
  8
0
  6
Continuous
 62
     7
100
AcDbLine
 10
72.9998580444
 20
369.6345401017
 30
0.0
 11
75.7795837061
 21
371.2400487133
 31
0.0
  0
LINE
  5
13C
330
1F
100
AcDbEntity
  8
0
  6
Continuous
 62
     7
100
AcDbLine
 10
75.7795837061
 20
371.2400487133
 30
0.0
 11
75.7790351106
 21
374.4501157412
 31
0.0
  0
LINE
  5
13D
330
1F
100
AcDbEntity
  8
0
  6
Continuous
 62
     7
100
AcDbLine
 10
75.7790351106
 20
374.4501157412
 30
0.0
 11
72.9987608535
 21
376.0546741575
 31
0.0
  0
LINE
  5
13E
330
1F
100
AcDbEntity
  8
0
  6
Continuous
 62
     7
100
AcDbLine
 10
72.9987608535
 20
376.0546741575
 30
0.0
 11
70.2190351918
 21
374.4491655459
 31
0.0
  0
LINE
  5
13F
330
1F
100
AcDbEntity
  8
0
  6
Continuous
 62
     7
100
AcDbLine
 10
70.2190351918
 20
374.4491655459
 30
0.0
 11
70.2195837873
 21
371.239098518
 31
0.0
  0
LINE
  5
140
330
1F
100
AcDbEntity
  8
0
  6
Continuous
 62
     7
100
AcDbLine
 10
70.2195837873
 20
371.239098518
 30
0.0
 11
72.9998580444
 21
369.6345401017
 31
0.0
  0
LINE
  5
141
330
1F
100
AcDbEntity
  8
0
  6
Continuous
 62
     7
100
AcDbLine
 10
184.0577769527
 20
369.9899586231
 30
0.0
 11
186.8375026144
 21
371.5954672347
 31
0.0
  0
LINE
  5
142
330
1F
100
AcDbEntity
  8
0
  6
Continuous
 62
     7
100
AcDbLine
 10
186.8375026144
 20
371.5954672347
 30
0.0
 11
186.836954019
 21
374.8055342626
 31
0.0
  0
LINE
  5
143
330
1F
100
AcDbEntity
  8
0
  6
Continuous
 62
     7
100
AcDbLine
 10
186.836954019
 20
374.8055342626
 30
0.0
 11
184.0566797619
 21
376.4100926789
 31
0.0
  0
LINE
  5
144
330
1F
100
AcDbEntity
  8
0
  6
Continuous
 62
     7
100
AcDbLine
 10
184.0566797619
 20
376.4100926789
 30
0.0
 11
181.2769541002
 21
374.8045840673
 31
0.0
  0
LINE
  5
145
330
1F
100
AcDbEntity
  8
0
  6
Continuous
 62
     7
100
AcDbLine
 10
181.2769541002
 20
374.8045840673
 30
0.0
 11
181.2775026956
 21
371.5945170394
 31
0.0
  0
LINE
  5
146
330
1F
100
AcDbEntity
  8
0
  6
Continuous
 62
     7
100
AcDbLine
 10
181.2775026956
 20
371.5945170394
 30
0.0
 11
184.0577769527
 21
369.9899586231
 31
0.0
  0
LINE
  5
147
330
1F
100
AcDbEntity
  8
0
  6
Continuous
 62
     7
100
AcDbLine
 10
184.0699400615
 20
298.8183972153
 30
0.0
 11
181.2902143998
 21
297.2128886037
 31
0.0
  0
LINE
  5
148
330
1F
100
AcDbEntity
  8
0
  6
Continuous
 62
     7
100
AcDbLine
 10
181.2902143998
 20
297.2128886037
 30
0.0
 11
181.2907629953
 21
294.0028215758
 31
0.0
  0
LINE
  5
149
330
1F
100
AcDbEntity
  8
0
  6
Continuous
 62
     7
100
AcDbLine
 10
181.2907629953
 20
294.0028215758
 30
0.0
 11
184.0710372524
 21
292.3982631595
 31
0.0
  0
LINE
  5
14A
330
1F
100
AcDbEntity
  8
0
  6
Continuous
 62
     7
100
AcDbLine
 10
184.0710372524
 20
292.3982631595
 30
0.0
 11
186.8507629141
 21
294.0037717711
 31
0.0
  0
LINE
  5
14B
330
1F
100
AcDbEntity
  8
0
  6
Continuous
 62
     7
100
AcDbLine
 10
186.8507629141
 20
294.0037717711
 30
0.0
 11
186.8502143186
 21
297.213838799
 31
0.0
  0
LINE
  5
14C
330
1F
100
AcDbEntity
  8
0
  6
Continuous
 62
     7
100
AcDbLine
 10
186.8502143186
 20
297.213838799
 30
0.0
 11
184.0699400615
 21
298.8183972153
 31
0.0
  0
LINE
  5
14D
330
1F
100
AcDbEntity
  8
0
  6
Continuous
 62
     7
100
AcDbLine
 10
112.7454571458
 20
284.0707880032
 30
0.0
 11
111.3104259417
 21
281.1993394821
 31
0.0
  0
LINE
  5
14E
330
1F
100
AcDbEntity
  8
0
  6
Continuous
 62
     7
100
AcDbLine
 10
111.3104259417
 20
281.1993394821
 30
0.0
 11
113.0796580313
 21
278.520841907
 31
0.0
  0
LINE
  5
14F
330
1F
100
AcDbEntity
  8
0
  6
Continuous
 62
     7
100
AcDbLine
 10
113.0796580313
 20
278.520841907
 30
0.0
 11
116.2839213251
 21
278.713792853
 31
0.0
  0
LINE
  5
150
330
1F
100
AcDbEntity
  8
0
  6
Continuous
 62
     7
100
AcDbLine
 10
116.2839213251
 20
278.713792853
 30
0.0
 11
117.7189525293
 21
281.5852413741
 31
0.0
  0
LINE
  5
151
330
1F
100
AcDbEntity
  8
0
  6
Continuous
 62
     7
100
AcDbLine
 10
117.7189525293
 20
281.5852413741
 30
0.0
 11
115.9497204396
 21
284.2637389492
 31
0.0
  0
LINE
  5
152
330
1F
100
AcDbEntity
  8
0
  6
Continuous
 62
     7
100
AcDbLine
 10
115.9497204396
 20
284.2637389492
 30
0.0
 11
112.7454571458
 21
284.0707880032
 31
0.0
  0
LINE
  5
153
330
1F
100
AcDbEntity
  8
0
  6
Continuous
 62
     7
100
AcDbLine
 10
53.4931486039
 20
266.5509900006
 30
0.0
 11
51.8827235956
 21
263.7741099888
 31
0.0
  0
LINE
  5
154
330
1F
100
AcDbEntity
  8
0
  6
Continuous
 62
     7
100
AcDbLine
 10
51.8827235956
 20
263.7741099888
 30
0.0
 11
53.4823600409
 21
260.9910011984
 31
0.0
  0
LINE
  5
155
330
1F
100
AcDbEntity
  8
0
  6
Continuous
 62
     7
100
AcDbLine
 10
53.4823600409
 20
260.9910011984
 30
0.0
 11
56.6924214945
 21
260.9847724196
 31
0.0
  0
LINE
  5
156
330
1F
100
AcDbEntity
  8
0
  6
Continuous
 62
     7
100
AcDbLine
 10
56.6924214945
 20
260.9847724196
 30
0.0
 11
58.3028465027
 21
263.7616524314
 31
0.0
  0
LINE
  5
157
330
1F
100
AcDbEntity
  8
0
  6
Continuous
 62
     7
100
AcDbLine
 10
58.3028465027
 20
263.7616524314
 30
0.0
 11
56.7032100574
 21
266.5447612219
 31
0.0
  0
LINE
  5
158
330
1F
100
AcDbEntity
  8
0
  6
Continuous
 62
     7
100
AcDbLine
 10
56.7032100574
 20
266.5447612219
 30
0.0
 11
53.4931486039
 21
266.5509900006
 31
0.0
  0
LINE
  5
159
330
1F
100
AcDbEntity
  8
0
  6
Continuous
 62
     7
100
AcDbLine
 10
38.9170072385
 20
291.9111193502
 30
0.0
 11
40.5274322467
 21
294.6879993619
 31
0.0
  0
LINE
  5
15A
330
1F
100
AcDbEntity
  8
0
  6
Continuous
 62
     7
100
AcDbLine
 10
40.5274322467
 20
294.6879993619
 30
0.0
 11
38.9277958014
 21
297.4711081524
 31
0.0
  0
LINE
  5
15B
330
1F
100
AcDbEntity
  8
0
  6
Continuous
 62
     7
100
AcDbLine
 10
38.9277958014
 20
297.4711081524
 30
0.0
 11
35.7177343478
 21
297.4773369311
 31
0.0
  0
LINE
  5
15C
330
1F
100
AcDbEntity
  8
0
  6
Continuous
 62
     7
100
AcDbLine
 10
35.7177343478
 20
297.4773369311
 30
0.0
 11
34.1073093396
 21
294.7004569194
 31
0.0
  0
LINE
  5
15D
330
1F
100
AcDbEntity
  8
0
  6
Continuous
 62
     7
100
AcDbLine
 10
34.1073093396
 20
294.7004569194
 30
0.0
 11
35.7069457849
 21
291.9173481289
 31
0.0
  0
LINE
  5
15E
330
1F
100
AcDbEntity
  8
0
  6
Continuous
 62
     7
100
AcDbLine
 10
35.7069457849
 20
291.9173481289
 30
0.0
 11
38.9170072385
 21
291.9111193502
 31
0.0
  0
LINE
  5
15F
330
1F
100
AcDbEntity
  8
0
  6
Continuous
 62
     7
100
AcDbLine
 10
218.5808697503
 20
310.4600392579
 30
0.0
 11
245.3065324813
 21
263.9617070298
 31
0.0
  0
LINE
  5
160
330
1F
100
AcDbEntity
  8
0
  6
Continuous
 62
     7
100
AcDbLine
 10
252.1311557833
 20
262.1217023241
 30
0.0
 11
273.9876172672
 21
274.7066821525
 31
0.0
  0
LINE
  5
161
330
1F
100
AcDbEntity
  8
0
  6
Continuous
 62
     7
100
AcDbLine
 10
273.9876172672
 20
274.7066821525
 30
0.0
 11
314.6552683279
 21
280.758997523
 31
0.0
  0
LINE
  5
162
330
1F
100
AcDbEntity
  8
0
  6
Continuous
 62
     7
100
AcDbLine
 10
314.6552683279
 20
280.758997523
 30
0.0
 11
324.5989754157
 21
294.3856646523
 31
0.0
  0
LINE
  5
163
330
1F
100
AcDbEntity
  8
0
  6
Continuous
 62
     7
100
AcDbLine
 10
382.7234964495
 20
294.3955980422
 30
0.0
 11
324.5989754157
 21
294.3856646523
 31
0.0
  0
LINE
  5
164
330
1F
100
AcDbEntity
  8
0
  6
Continuous
 62
     7
100
AcDbLine
 10
387.7225833319
 20
299.7390674847
 30
0.0
 11
387.7083520463
 21
383.0124182897
 31
0.0
  0
LINE
  5
165
330
1F
100
AcDbEntity
  8
0
  6
Continuous
 62
     7
100
AcDbLine
 10
382.7075231588
 20
387.9964161476
 30
0.0
 11
282.6779986976
 21
387.6762917834
 31
0.0
  0
LINE
  5
166
330
1F
100
AcDbEntity
  8
0
  6
Continuous
 62
     7
100
AcDbLine
 10
259.7018869418
 20
382.8511059718
 30
0.0
 11
259.7034905608
 21
368.8787147901
 31
0.0
  0
LINE
  5
167
330
1F
100
AcDbEntity
  8
0
  6
Continuous
 62
     7
100
AcDbLine
 10
239.0383122699
 20
302.961867348
 30
0.0
 11
239.0370302466
 21
310.4635351838
 31
0.0
  0
LINE
  5
168
330
1F
100
AcDbEntity
  8
0
  6
Continuous
 62
     7
100
AcDbLine
 10
245.3065324813
 20
263.9617070298
 30
0.0
 11
252.1311557833
 21
262.1217023241
 31
0.0
  0
LINE
  5
169
330
1F
100
AcDbEntity
  8
0
  6
Continuous
 62
     7
100
AcDbLine
 10
387.7083520463
 20
383.0124182897
 30
0.0
 11
382.7075231588
 21
387.9964161476
 31
0.0
  0
LINE
  5
16A
330
1F
100
AcDbEntity
  8
0
  6
Continuous
 62
     7
100
AcDbLine
 10
387.7225833319
 20
299.7390674847
 30
0.0
 11
382.7234964495
 21
294.3955980422
 31
0.0
  0
LINE
  5
16B
330
1F
100
AcDbEntity
  8
0
  6
Continuous
 62
     7
100
AcDbLine
 10
275.6814849432
 20
387.6750960901
 30
0.0
 11
282.6779986976
 21
387.6762917834
 31
0.0
  0
LINE
  5
16C
330
1F
100
AcDbEntity
  8
0
  6
Continuous
 62
     7
100
AcDbLine
 10
275.6814849432
 20
387.6750960901
 30
0.0
 11
259.7010629961
 21
387.672365061
 31
0.0
  0
LINE
  5
16D
330
1F
100
AcDbEntity
  8
0
  6
Continuous
 62
     7
100
AcDbLine
 10
259.7010629961
 20
387.672365061
 30
0.0
 11
259.7018869418
 21
382.8511059718
 31
0.0
  0
LINE
  5
16E
330
1F
100
AcDbEntity
  8
0
  6
Continuous
 62
     7
100
AcDbLine
 10
239.0383122699
 20
302.961867348
 30
0.0
 11
252.9541507389
 21
278.7505582825
 31
0.0
  0
LINE
  5
16F
330
1F
100
AcDbEntity
  8
0
  6
Continuous
 62
     7
100
AcDbLine
 10
252.9541507389
 20
278.7505582825
 30
0.0
 11
269.3016900549
 21
288.1634933401
 31
0.0
  0
LINE
  5
170
330
1F
100
AcDbEntity
  8
0
  6
Continuous
 62
     7
100
AcDbLine
 10
269.3016900549
 20
288.1634933401
 30
0.0
 11
306.799626052
 21
293.7440795917
 31
0.0
  0
LINE
  5
171
330
1F
100
AcDbEntity
  8
0
  6
Continuous
 62
     7
100
AcDbLine
 10
306.799626052
 20
293.7440795917
 30
0.0
 11
317.4830545793
 21
308.384446917
 31
0.0
  0
LINE
  5
172
330
1F
100
AcDbEntity
  8
0
  6
Continuous
 62
     7
100
AcDbLine
 10
373.7211040031
 20
308.3940579119
 30
0.0
 11
317.4830545793
 21
308.384446917
 31
0.0
  0
LINE
  5
173
330
1F
100
AcDbEntity
  8
0
  6
Continuous
 62
     7
100
AcDbLine
 10
373.7211040031
 20
308.3940579119
 30
0.0
 11
373.7110899362
 21
366.9906548726
 31
0.0
  0
LINE
  5
174
330
1F
100
AcDbEntity
  8
0
  6
Continuous
 62
     7
100
AcDbLine
 10
373.7110899362
 20
366.9906548726
 30
0.0
 11
335.7083951698
 21
366.9841602714
 31
0.0
  0
LINE
  5
175
330
1F
100
AcDbEntity
  8
0
  6
Continuous
 62
     7
100
AcDbLine
 10
335.7083951698
 20
366.9841602714
 30
0.0
 11
335.7076065508
 21
371.5987082006
 31
0.0
  0
LINE
  5
176
330
1F
100
AcDbEntity
  8
0
  6
Continuous
 62
     7
100
AcDbLine
 10
335.7076065508
 20
371.5987082006
 30
0.0
 11
316.7320041047
 21
371.5369252122
 31
0.0
  0
LINE
  5
177
330
1F
100
AcDbEntity
  8
0
  6
Continuous
 62
     7
100
AcDbLine
 10
316.7320041047
 20
371.5369252122
 30
0.0
 11
316.7246839668
 21
373.7851814952
 31
0.0
  0
LINE
  5
178
330
1F
100
AcDbEntity
  8
0
  6
Continuous
 62
     7
100
AcDbLine
 10
316.7246839668
 20
373.7851814952
 30
0.0
 11
296.7235096296
 21
373.7211717616
 31
0.0
  0
LINE
  5
179
330
1F
100
AcDbEntity
  8
0
  6
Continuous
 62
     7
100
AcDbLine
 10
296.7235096296
 20
373.7211717616
 30
0.0
 11
296.7311152975
 21
371.385219785
 31
0.0
  0
LINE
  5
17A
330
1F
100
AcDbEntity
  8
0
  6
Continuous
 62
     7
100
AcDbLine
 10
296.7311152975
 20
371.385219785
 30
0.0
 11
277.7036706917
 21
371.3819680244
 31
0.0
  0
LINE
  5
17B
330
1F
100
AcDbEntity
  8
0
  6
Continuous
 62
     7
100
AcDbLine
 10
277.7036706917
 20
371.3819680244
 30
0.0
 11
277.7040979681
 21
368.8817910658
 31
0.0
  0
LINE
  5
17C
330
1F
100
AcDbEntity
  8
0
  6
Continuous
 62
     7
100
AcDbLine
 10
277.7040979681
 20
368.8817910658
 30
0.0
 11
259.7034905608
 21
368.8787147901
 31
0.0
  0
LINE
  5
17D
330
1F
100
AcDbEntity
  8
0
  6
Continuous
 62
     7
100
AcDbLine
 10
218.5808697503
 20
310.4600392579
 30
0.0
 11
239.0370302466
 21
310.4635351838
 31
0.0
  0
LINE
  5
17E
330
1F
100
AcDbEntity
  8
0
  6
Continuous
 62
     7
100
AcDbLine
 10
268.6514986934
 20
376.421294093
 30
0.0
 11
271.4312243551
 21
378.0268027046
 31
0.0
  0
LINE
  5
17F
330
1F
100
AcDbEntity
  8
0
  6
Continuous
 62
     7
100
AcDbLine
 10
271.4312243551
 20
378.0268027046
 30
0.0
 11
271.4306757597
 21
381.2368697325
 31
0.0
  0
LINE
  5
180
330
1F
100
AcDbEntity
  8
0
  6
Continuous
 62
     7
100
AcDbLine
 10
271.4306757597
 20
381.2368697325
 30
0.0
 11
268.6504015025
 21
382.8414281488
 31
0.0
  0
LINE
  5
181
330
1F
100
AcDbEntity
  8
0
  6
Continuous
 62
     7
100
AcDbLine
 10
268.6504015025
 20
382.8414281488
 30
0.0
 11
265.8706758409
 21
381.2359195372
 31
0.0
  0
LINE
  5
182
330
1F
100
AcDbEntity
  8
0
  6
Continuous
 62
     7
100
AcDbLine
 10
265.8706758409
 20
381.2359195372
 30
0.0
 11
265.8712244363
 21
378.0258525093
 31
0.0
  0
LINE
  5
183
330
1F
100
AcDbEntity
  8
0
  6
Continuous
 62
     7
100
AcDbLine
 10
265.8712244363
 20
378.0258525093
 30
0.0
 11
268.6514986934
 21
376.421294093
 31
0.0
  0
LINE
  5
184
330
1F
100
AcDbEntity
  8
0
  6
Continuous
 62
     7
100
AcDbLine
 10
379.7094176018
 20
376.7767126144
 30
0.0
 11
382.4891432635
 21
378.382221226
 31
0.0
  0
LINE
  5
185
330
1F
100
AcDbEntity
  8
0
  6
Continuous
 62
     7
100
AcDbLine
 10
382.4891432635
 20
378.382221226
 30
0.0
 11
382.488594668
 21
381.5922882539
 31
0.0
  0
LINE
  5
186
330
1F
100
AcDbEntity
  8
0
  6
Continuous
 62
     7
100
AcDbLine
 10
382.488594668
 20
381.5922882539
 30
0.0
 11
379.7083204109
 21
383.1968466702
 31
0.0
  0
LINE
  5
187
330
1F
100
AcDbEntity
  8
0
  6
Continuous
 62
     7
100
AcDbLine
 10
379.7083204109
 20
383.1968466702
 30
0.0
 11
376.9285947492
 21
381.5913380586
 31
0.0
  0
LINE
  5
188
330
1F
100
AcDbEntity
  8
0
  6
Continuous
 62
     7
100
AcDbLine
 10
376.9285947492
 20
381.5913380586
 30
0.0
 11
376.9291433447
 21
378.3812710307
 31
0.0
  0
LINE
  5
189
330
1F
100
AcDbEntity
  8
0
  6
Continuous
 62
     7
100
AcDbLine
 10
376.9291433447
 20
378.3812710307
 30
0.0
 11
379.7094176018
 21
376.7767126144
 31
0.0
  0
LINE
  5
18A
330
1F
100
AcDbEntity
  8
0
  6
Continuous
 62
     7
100
AcDbLine
 10
379.7215807106
 20
305.6051512066
 30
0.0
 11
376.9418550489
 21
303.999642595
 31
0.0
  0
LINE
  5
18B
330
1F
100
AcDbEntity
  8
0
  6
Continuous
 62
     7
100
AcDbLine
 10
376.9418550489
 20
303.999642595
 30
0.0
 11
376.9424036443
 21
300.7895755671
 31
0.0
  0
LINE
  5
18C
330
1F
100
AcDbEntity
  8
0
  6
Continuous
 62
     7
100
AcDbLine
 10
376.9424036443
 20
300.7895755671
 30
0.0
 11
379.7226779014
 21
299.1850171508
 31
0.0
  0
LINE
  5
18D
330
1F
100
AcDbEntity
  8
0
  6
Continuous
 62
     7
100
AcDbLine
 10
379.7226779014
 20
299.1850171508
 30
0.0
 11
382.5024035631
 21
300.7905257624
 31
0.0
  0
LINE
  5
18E
330
1F
100
AcDbEntity
  8
0
  6
Continuous
 62
     7
100
AcDbLine
 10
382.5024035631
 20
300.7905257624
 30
0.0
 11
382.5018549677
 21
304.0005927903
 31
0.0
  0
LINE
  5
18F
330
1F
100
AcDbEntity
  8
0
  6
Continuous
 62
     7
100
AcDbLine
 10
382.5018549677
 20
304.0005927903
 30
0.0
 11
379.7215807106
 21
305.6051512066
 31
0.0
  0
LINE
  5
190
330
1F
100
AcDbEntity
  8
0
  6
Continuous
 62
     7
100
AcDbLine
 10
308.3970977949
 20
290.8575419945
 30
0.0
 11
306.9620665907
 21
287.9860934734
 31
0.0
  0
LINE
  5
191
330
1F
100
AcDbEntity
  8
0
  6
Continuous
 62
     7
100
AcDbLine
 10
306.9620665907
 20
287.9860934734
 30
0.0
 11
308.7312986804
 21
285.3075958983
 31
0.0
  0
LINE
  5
192
330
1F
100
AcDbEntity
  8
0
  6
Continuous
 62
     7
100
AcDbLine
 10
308.7312986804
 20
285.3075958983
 30
0.0
 11
311.9355619742
 21
285.5005468443
 31
0.0
  0
LINE
  5
193
330
1F
100
AcDbEntity
  8
0
  6
Continuous
 62
     7
100
AcDbLine
 10
311.9355619742
 20
285.5005468443
 30
0.0
 11
313.3705931783
 21
288.3719953654
 31
0.0
  0
LINE
  5
194
330
1F
100
AcDbEntity
  8
0
  6
Continuous
 62
     7
100
AcDbLine
 10
313.3705931783
 20
288.3719953654
 30
0.0
 11
311.6013610887
 21
291.0504929405
 31
0.0
  0
LINE
  5
195
330
1F
100
AcDbEntity
  8
0
  6
Continuous
 62
     7
100
AcDbLine
 10
311.6013610887
 20
291.0504929405
 30
0.0
 11
308.3970977949
 21
290.8575419945
 31
0.0
  0
LINE
  5
196
330
1F
100
AcDbEntity
  8
0
  6
Continuous
 62
     7
100
AcDbLine
 10
249.1447892529
 20
273.3377439919
 30
0.0
 11
247.5343642447
 21
270.5608639801
 31
0.0
  0
LINE
  5
197
330
1F
100
AcDbEntity
  8
0
  6
Continuous
 62
     7
100
AcDbLine
 10
247.5343642447
 20
270.5608639801
 30
0.0
 11
249.13400069
 21
267.7777551896
 31
0.0
  0
LINE
  5
198
330
1F
100
AcDbEntity
  8
0
  6
Continuous
 62
     7
100
AcDbLine
 10
249.13400069
 20
267.7777551896
 30
0.0
 11
252.3440621436
 21
267.7715264109
 31
0.0
  0
LINE
  5
199
330
1F
100
AcDbEntity
  8
0
  6
Continuous
 62
     7
100
AcDbLine
 10
252.3440621436
 20
267.7715264109
 30
0.0
 11
253.9544871518
 21
270.5484064226
 31
0.0
  0
LINE
  5
19A
330
1F
100
AcDbEntity
  8
0
  6
Continuous
 62
     7
100
AcDbLine
 10
253.9544871518
 20
270.5484064226
 30
0.0
 11
252.3548507065
 21
273.3315152131
 31
0.0
  0
LINE
  5
19B
330
1F
100
AcDbEntity
  8
0
  6
Continuous
 62
     7
100
AcDbLine
 10
252.3548507065
 20
273.3315152131
 30
0.0
 11
249.1447892529
 21
273.3377439919
 31
0.0
  0
LINE
  5
19C
330
1F
100
AcDbEntity
  8
0
  6
Continuous
 62
     7
100
AcDbLine
 10
234.5686478875
 20
298.6978733414
 30
0.0
 11
236.1790728958
 21
301.4747533532
 31
0.0
  0
LINE
  5
19D
330
1F
100
AcDbEntity
  8
0
  6
Continuous
 62
     7
100
AcDbLine
 10
236.1790728958
 20
301.4747533532
 30
0.0
 11
234.5794364504
 21
304.2578621437
 31
0.0
  0
LINE
  5
19E
330
1F
100
AcDbEntity
  8
0
  6
Continuous
 62
     7
100
AcDbLine
 10
234.5794364504
 20
304.2578621437
 30
0.0
 11
231.3693749969
 21
304.2640909224
 31
0.0
  0
LINE
  5
19F
330
1F
100
AcDbEntity
  8
0
  6
Continuous
 62
     7
100
AcDbLine
 10
231.3693749969
 20
304.2640909224
 30
0.0
 11
229.7589499886
 21
301.4872109107
 31
0.0
  0
LINE
  5
1A0
330
1F
100
AcDbEntity
  8
0
  6
Continuous
 62
     7
100
AcDbLine
 10
229.7589499886
 20
301.4872109107
 30
0.0
 11
231.358586434
 21
298.7041021202
 31
0.0
  0
LINE
  5
1A1
330
1F
100
AcDbEntity
  8
0
  6
Continuous
 62
     7
100
AcDbLine
 10
231.358586434
 20
298.7041021202
 30
0.0
 11
234.5686478875
 21
298.6978733414
 31
0.0
  0
LINE
  5
1A2
330
1F
100
AcDbEntity
  8
0
  6
Continuous
 62
     7
100
AcDbLine
 10
372.7147501857
 20
309.4371505444
 30
0.0
 11
345.9890874546
 21
355.9354827724
 31
0.0
  0
LINE
  5
1A3
330
1F
100
AcDbEntity
  8
0
  6
Continuous
 62
     7
100
AcDbLine
 10
339.1644641526
 20
357.7754874782
 30
0.0
 11
317.3080026687
 21
345.1905076498
 31
0.0
  0
LINE
  5
1A4
330
1F
100
AcDbEntity
  8
0
  6
Continuous
 62
     7
100
AcDbLine
 10
317.3080026687
 20
345.1905076498
 30
0.0
 11
276.6403516081
 21
339.1381922793
 31
0.0
  0
LINE
  5
1A5
330
1F
100
AcDbEntity
  8
0
  6
Continuous
 62
     7
100
AcDbLine
 10
276.6403516081
 20
339.1381922793
 30
0.0
 11
266.6966445202
 21
325.51152515
 31
0.0
  0
LINE
  5
1A6
330
1F
100
AcDbEntity
  8
0
  6
Continuous
 62
     7
100
AcDbLine
 10
208.5721234864
 20
325.50159176
 30
0.0
 11
266.6966445202
 21
325.51152515
 31
0.0
  0
LINE
  5
1A7
330
1F
100
AcDbEntity
  8
0
  6
Continuous
 62
     7
100
AcDbLine
 10
203.573036604
 20
320.1581223176
 30
0.0
 11
203.5872678897
 21
236.8847715126
 31
0.0
  0
LINE
  5
1A8
330
1F
100
AcDbEntity
  8
0
  6
Continuous
 62
     7
100
AcDbLine
 10
208.5880967772
 20
231.9007736547
 30
0.0
 11
308.6176212383
 21
232.2208980189
 31
0.0
  0
LINE
  5
1A9
330
1F
100
AcDbEntity
  8
0
  6
Continuous
 62
     7
100
AcDbLine
 10
331.5937329942
 20
237.0460838291
 30
0.0
 11
331.5921293751
 21
251.0184750122
 31
0.0
  0
LINE
  5
1AA
330
1F
100
AcDbEntity
  8
0
  6
Continuous
 62
     7
100
AcDbLine
 10
352.257307666
 20
316.9353224543
 30
0.0
 11
352.2585896893
 21
309.4336546185
 31
0.0
  0
LINE
  5
1AB
330
1F
100
AcDbEntity
  8
0
  6
Continuous
 62
     7
100
AcDbLine
 10
345.9890874546
 20
355.9354827724
 30
0.0
 11
339.1644641526
 21
357.7754874782
 31
0.0
  0
LINE
  5
1AC
330
1F
100
AcDbEntity
  8
0
  6
Continuous
 62
     7
100
AcDbLine
 10
203.5872678897
 20
236.8847715126
 30
0.0
 11
208.5880967772
 21
231.9007736547
 31
0.0
  0
LINE
  5
1AD
330
1F
100
AcDbEntity
  8
0
  6
Continuous
 62
     7
100
AcDbLine
 10
203.573036604
 20
320.1581223176
 30
0.0
 11
208.5721234864
 21
325.50159176
 31
0.0
  0
LINE
  5
1AE
330
1F
100
AcDbEntity
  8
0
  6
Continuous
 62
     7
100
AcDbLine
 10
315.6141349928
 20
232.2220937122
 30
0.0
 11
308.6176212383
 21
232.2208980189
 31
0.0
  0
LINE
  5
1AF
330
1F
100
AcDbEntity
  8
0
  6
Continuous
 62
     7
100
AcDbLine
 10
315.6141349928
 20
232.2220937122
 30
0.0
 11
331.5945569398
 21
232.2248247413
 31
0.0
  0
LINE
  5
1B0
330
1F
100
AcDbEntity
  8
0
  6
Continuous
 62
     7
100
AcDbLine
 10
331.5945569398
 20
232.2248247413
 30
0.0
 11
331.5937329942
 21
237.0460838291
 31
0.0
  0
LINE
  5
1B1
330
1F
100
AcDbEntity
  8
0
  6
Continuous
 62
     7
100
AcDbLine
 10
352.257307666
 20
316.9353224543
 30
0.0
 11
338.341469197
 21
341.1466315198
 31
0.0
  0
LINE
  5
1B2
330
1F
100
AcDbEntity
  8
0
  6
Continuous
 62
     7
100
AcDbLine
 10
338.341469197
 20
341.1466315198
 30
0.0
 11
321.993929881
 21
331.7336964622
 31
0.0
  0
LINE
  5
1B3
330
1F
100
AcDbEntity
  8
0
  6
Continuous
 62
     7
100
AcDbLine
 10
321.993929881
 20
331.7336964622
 30
0.0
 11
284.4959938839
 21
326.1531102106
 31
0.0
  0
LINE
  5
1B4
330
1F
100
AcDbEntity
  8
0
  6
Continuous
 62
     7
100
AcDbLine
 10
284.4959938839
 20
326.1531102106
 30
0.0
 11
273.8125653567
 21
311.5127428853
 31
0.0
  0
LINE
  5
1B5
330
1F
100
AcDbEntity
  8
0
  6
Continuous
 62
     7
100
AcDbLine
 10
217.5745159328
 20
311.5031318904
 30
0.0
 11
273.8125653567
 21
311.5127428853
 31
0.0
  0
LINE
  5
1B6
330
1F
100
AcDbEntity
  8
0
  6
Continuous
 62
     7
100
AcDbLine
 10
217.5745159328
 20
311.5031318904
 30
0.0
 11
217.5845299998
 21
252.9065349297
 31
0.0
  0
LINE
  5
1B7
330
1F
100
AcDbEntity
  8
0
  6
Continuous
 62
     7
100
AcDbLine
 10
217.5845299998
 20
252.9065349297
 30
0.0
 11
255.5872247661
 21
252.9130295309
 31
0.0
  0
LINE
  5
1B8
330
1F
100
AcDbEntity
  8
0
  6
Continuous
 62
     7
100
AcDbLine
 10
255.5872247661
 20
252.9130295309
 30
0.0
 11
255.5880133851
 21
248.2984816017
 31
0.0
  0
LINE
  5
1B9
330
1F
100
AcDbEntity
  8
0
  6
Continuous
 62
     7
100
AcDbLine
 10
255.5880133851
 20
248.2984816017
 30
0.0
 11
274.5636158312
 21
248.36026459
 31
0.0
  0
LINE
  5
1BA
330
1F
100
AcDbEntity
  8
0
  6
Continuous
 62
     7
100
AcDbLine
 10
274.5636158312
 20
248.36026459
 30
0.0
 11
274.5709359691
 21
246.1120083071
 31
0.0
  0
LINE
  5
1BB
330
1F
100
AcDbEntity
  8
0
  6
Continuous
 62
     7
100
AcDbLine
 10
274.5709359691
 20
246.1120083071
 30
0.0
 11
294.5721103063
 21
246.1760180407
 31
0.0
  0
LINE
  5
1BC
330
1F
100
AcDbEntity
  8
0
  6
Continuous
 62
     7
100
AcDbLine
 10
294.5721103063
 20
246.1760180407
 30
0.0
 11
294.5645046385
 21
248.5119700173
 31
0.0
  0
LINE
  5
1BD
330
1F
100
AcDbEntity
  8
0
  6
Continuous
 62
     7
100
AcDbLine
 10
294.5645046385
 20
248.5119700173
 30
0.0
 11
313.5919492442
 21
248.5152217778
 31
0.0
  0
LINE
  5
1BE
330
1F
100
AcDbEntity
  8
0
  6
Continuous
 62
     7
100
AcDbLine
 10
313.5919492442
 20
248.5152217778
 30
0.0
 11
313.5915219679
 21
251.0153987365
 31
0.0
  0
LINE
  5
1BF
330
1F
100
AcDbEntity
  8
0
  6
Continuous
 62
     7
100
AcDbLine
 10
313.5915219679
 20
251.0153987365
 30
0.0
 11
331.5921293751
 21
251.0184750122
 31
0.0
  0
LINE
  5
1C0
330
1F
100
AcDbEntity
  8
0
  6
Continuous
 62
     7
100
AcDbLine
 10
372.7147501857
 20
309.4371505444
 30
0.0
 11
352.2585896893
 21
309.4336546185
 31
0.0
  0
LINE
  5
1C1
330
1F
100
AcDbEntity
  8
0
  6
Continuous
 62
     7
100
AcDbLine
 10
322.6441212425
 20
243.4758957093
 30
0.0
 11
319.8643955808
 21
241.8703870977
 31
0.0
  0
LINE
  5
1C2
330
1F
100
AcDbEntity
  8
0
  6
Continuous
 62
     7
100
AcDbLine
 10
319.8643955808
 20
241.8703870977
 30
0.0
 11
319.8649441763
 21
238.6603200698
 31
0.0
  0
LINE
  5
1C3
330
1F
100
AcDbEntity
  8
0
  6
Continuous
 62
     7
100
AcDbLine
 10
319.8649441763
 20
238.6603200698
 30
0.0
 11
322.6452184334
 21
237.0557616535
 31
0.0
  0
LINE
  5
1C4
330
1F
100
AcDbEntity
  8
0
  6
Continuous
 62
     7
100
AcDbLine
 10
322.6452184334
 20
237.0557616535
 30
0.0
 11
325.4249440951
 21
238.6612702651
 31
0.0
  0
LINE
  5
1C5
330
1F
100
AcDbEntity
  8
0
  6
Continuous
 62
     7
100
AcDbLine
 10
325.4249440951
 20
238.6612702651
 30
0.0
 11
325.4243954996
 21
241.871337293
 31
0.0
  0
LINE
  5
1C6
330
1F
100
AcDbEntity
  8
0
  6
Continuous
 62
     7
100
AcDbLine
 10
325.4243954996
 20
241.871337293
 30
0.0
 11
322.6441212425
 21
243.4758957093
 31
0.0
  0
LINE
  5
1C7
330
1F
100
AcDbEntity
  8
0
  6
Continuous
 62
     7
100
AcDbLine
 10
211.5862023341
 20
243.1204771879
 30
0.0
 11
208.8064766725
 21
241.5149685763
 31
0.0
  0
LINE
  5
1C8
330
1F
100
AcDbEntity
  8
0
  6
Continuous
 62
     7
100
AcDbLine
 10
208.8064766725
 20
241.5149685763
 30
0.0
 11
208.8070252679
 21
238.3049015484
 31
0.0
  0
LINE
  5
1C9
330
1F
100
AcDbEntity
  8
0
  6
Continuous
 62
     7
100
AcDbLine
 10
208.8070252679
 20
238.3049015484
 30
0.0
 11
211.587299525
 21
236.7003431321
 31
0.0
  0
LINE
  5
1CA
330
1F
100
AcDbEntity
  8
0
  6
Continuous
 62
     7
100
AcDbLine
 10
211.587299525
 20
236.7003431321
 30
0.0
 11
214.3670251867
 21
238.3058517437
 31
0.0
  0
LINE
  5
1CB
330
1F
100
AcDbEntity
  8
0
  6
Continuous
 62
     7
100
AcDbLine
 10
214.3670251867
 20
238.3058517437
 30
0.0
 11
214.3664765913
 21
241.5159187716
 31
0.0
  0
LINE
  5
1CC
330
1F
100
AcDbEntity
  8
0
  6
Continuous
 62
     7
100
AcDbLine
 10
214.3664765913
 20
241.5159187716
 30
0.0
 11
211.5862023341
 21
243.1204771879
 31
0.0
  0
LINE
  5
1CD
330
1F
100
AcDbEntity
  8
0
  6
Continuous
 62
     7
100
AcDbLine
 10
211.5740392254
 20
314.2920385957
 30
0.0
 11
214.3537648871
 21
315.8975472073
 31
0.0
  0
LINE
  5
1CE
330
1F
100
AcDbEntity
  8
0
  6
Continuous
 62
     7
100
AcDbLine
 10
214.3537648871
 20
315.8975472073
 30
0.0
 11
214.3532162916
 21
319.1076142352
 31
0.0
  0
LINE
  5
1CF
330
1F
100
AcDbEntity
  8
0
  6
Continuous
 62
     7
100
AcDbLine
 10
214.3532162916
 20
319.1076142352
 30
0.0
 11
211.5729420345
 21
320.7121726515
 31
0.0
  0
LINE
  5
1D0
330
1F
100
AcDbEntity
  8
0
  6
Continuous
 62
     7
100
AcDbLine
 10
211.5729420345
 20
320.7121726515
 30
0.0
 11
208.7932163728
 21
319.1066640399
 31
0.0
  0
LINE
  5
1D1
330
1F
100
AcDbEntity
  8
0
  6
Continuous
 62
     7
100
AcDbLine
 10
208.7932163728
 20
319.1066640399
 30
0.0
 11
208.7937649683
 21
315.896597012
 31
0.0
  0
LINE
  5
1D2
330
1F
100
AcDbEntity
  8
0
  6
Continuous
 62
     7
100
AcDbLine
 10
208.7937649683
 20
315.896597012
 30
0.0
 11
211.5740392254
 21
314.2920385957
 31
0.0
  0
LINE
  5
1D3
330
1F
100
AcDbEntity
  8
0
  6
Continuous
 62
     7
100
AcDbLine
 10
282.8985221411
 20
329.0396478078
 30
0.0
 11
284.3335533452
 21
331.9110963289
 31
0.0
  0
LINE
  5
1D4
330
1F
100
AcDbEntity
  8
0
  6
Continuous
 62
     7
100
AcDbLine
 10
284.3335533452
 20
331.9110963289
 30
0.0
 11
282.5643212556
 21
334.589593904
 31
0.0
  0
LINE
  5
1D5
330
1F
100
AcDbEntity
  8
0
  6
Continuous
 62
     7
100
AcDbLine
 10
282.5643212556
 20
334.589593904
 30
0.0
 11
279.3600579618
 21
334.396642958
 31
0.0
  0
LINE
  5
1D6
330
1F
100
AcDbEntity
  8
0
  6
Continuous
 62
     7
100
AcDbLine
 10
279.3600579618
 20
334.396642958
 30
0.0
 11
277.9250267576
 21
331.5251944369
 31
0.0
  0
LINE
  5
1D7
330
1F
100
AcDbEntity
  8
0
  6
Continuous
 62
     7
100
AcDbLine
 10
277.9250267576
 20
331.5251944369
 30
0.0
 11
279.6942588473
 21
328.8466968618
 31
0.0
  0
LINE
  5
1D8
330
1F
100
AcDbEntity
  8
0
  6
Continuous
 62
     7
100
AcDbLine
 10
279.6942588473
 20
328.8466968618
 30
0.0
 11
282.8985221411
 21
329.0396478078
 31
0.0
  0
LINE
  5
1D9
330
1F
100
AcDbEntity
  8
0
  6
Continuous
 62
     7
100
AcDbLine
 10
342.150830683
 20
346.5594458104
 30
0.0
 11
343.7612556913
 21
349.3363258221
 31
0.0
  0
LINE
  5
1DA
330
1F
100
AcDbEntity
  8
0
  6
Continuous
 62
     7
100
AcDbLine
 10
343.7612556913
 20
349.3363258221
 30
0.0
 11
342.161619246
 21
352.1194346126
 31
0.0
  0
LINE
  5
1DB
330
1F
100
AcDbEntity
  8
0
  6
Continuous
 62
     7
100
AcDbLine
 10
342.161619246
 20
352.1194346126
 30
0.0
 11
338.9515577924
 21
352.1256633914
 31
0.0
  0
LINE
  5
1DC
330
1F
100
AcDbEntity
  8
0
  6
Continuous
 62
     7
100
AcDbLine
 10
338.9515577924
 20
352.1256633914
 30
0.0
 11
337.3411327842
 21
349.3487833796
 31
0.0
  0
LINE
  5
1DD
330
1F
100
AcDbEntity
  8
0
  6
Continuous
 62
     7
100
AcDbLine
 10
337.3411327842
 20
349.3487833796
 30
0.0
 11
338.9407692295
 21
346.5656745891
 31
0.0
  0
LINE
  5
1DE
330
1F
100
AcDbEntity
  8
0
  6
Continuous
 62
     7
100
AcDbLine
 10
338.9407692295
 20
346.5656745891
 30
0.0
 11
342.150830683
 21
346.5594458104
 31
0.0
  0
LINE
  5
1DF
330
1F
100
AcDbEntity
  8
0
  6
Continuous
 62
     7
100
AcDbLine
 10
356.7269720484
 20
321.1993164608
 30
0.0
 11
355.1165470402
 21
318.4224364491
 31
0.0
  0
LINE
  5
1E0
330
1F
100
AcDbEntity
  8
0
  6
Continuous
 62
     7
100
AcDbLine
 10
355.1165470402
 20
318.4224364491
 30
0.0
 11
356.7161834855
 21
315.6393276586
 31
0.0
  0
LINE
  5
1E1
330
1F
100
AcDbEntity
  8
0
  6
Continuous
 62
     7
100
AcDbLine
 10
356.7161834855
 20
315.6393276586
 30
0.0
 11
359.9262449391
 21
315.6330988798
 31
0.0
  0
LINE
  5
1E2
330
1F
100
AcDbEntity
  8
0
  6
Continuous
 62
     7
100
AcDbLine
 10
359.9262449391
 20
315.6330988798
 30
0.0
 11
361.5366699473
 21
318.4099788916
 31
0.0
  0
LINE
  5
1E3
330
1F
100
AcDbEntity
  8
0
  6
Continuous
 62
     7
100
AcDbLine
 10
361.5366699473
 20
318.4099788916
 30
0.0
 11
359.937033502
 21
321.1930876821
 31
0.0
  0
LINE
  5
1E4
330
1F
100
AcDbEntity
  8
0
  6
Continuous
 62
     7
100
AcDbLine
 10
359.937033502
 20
321.1930876821
 30
0.0
 11
356.7269720484
 21
321.1993164608
 31
0.0
  0
LINE
  5
1E5
330
1F
100
AcDbEntity
  8
0
  6
Continuous
 62
     7
100
AcDbLine
 10
25.0837352809
 20
150.3438818304
 30
0.0
 11
44.6827959962
 21
150.3472312793
 31
0.0
  0
LINE
  5
1E6
330
1F
100
AcDbEntity
  8
0
  6
Continuous
 62
     7
100
AcDbLine
 10
25.0837352809
 20
150.3438818304
 30
0.0
 11
51.809398012
 21
103.8455496024
 31
0.0
  0
LINE
  5
1E7
330
1F
100
AcDbEntity
  8
0
  6
Continuous
 62
     7
100
AcDbLine
 10
49.868243508
 20
147.3577566086
 30
0.0
 11
44.6827959962
 21
150.3472312793
 31
0.0
  0
LINE
  5
1E8
330
1F
100
AcDbEntity
  8
0
  6
Continuous
 62
     7
100
AcDbLine
 10
51.809398012
 20
103.8455496024
 30
0.0
 11
58.634021314
 21
102.0055448966
 31
0.0
  0
LINE
  5
1E9
330
1F
100
AcDbEntity
  8
0
  6
Continuous
 62
     7
100
AcDbLine
 10
66.2149846217
 20
156.8192418451
 30
0.0
 11
49.868243508
 21
147.3577566086
 31
0.0
  0
LINE
  5
1EA
330
1F
100
AcDbEntity
  8
0
  6
Continuous
 62
     7
100
AcDbLine
 10
74.1459899706
 20
145.7269253258
 30
0.0
 11
77.7582806719
 21
132.1999591021
 31
0.0
  0
LINE
  5
1EB
330
1F
100
AcDbEntity
  8
0
  6
Continuous
 62
     7
100
AcDbLine
 10
77.7582806719
 20
132.1999591021
 30
0.0
 11
91.2852486736
 21
135.8122493293
 31
0.0
  0
LINE
  5
1EC
330
1F
100
AcDbEntity
  8
0
  6
Continuous
 62
     7
100
AcDbLine
 10
91.2852486736
 20
135.8122493293
 30
0.0
 11
87.6729579723
 21
149.339215553
 31
0.0
  0
LINE
  5
1ED
330
1F
100
AcDbEntity
  8
0
  6
Continuous
 62
     7
100
AcDbLine
 10
87.6729579723
 20
149.339215553
 30
0.0
 11
74.1459899706
 21
145.7269253258
 31
0.0
  0
LINE
  5
1EE
330
1F
100
AcDbEntity
  8
0
  6
Continuous
 62
     7
100
AcDbLine
 10
68.2178208089
 20
167.7698514957
 30
0.0
 11
68.2202135546
 21
153.7688711666
 31
0.0
  0
LINE
  5
1EF
330
1F
100
AcDbEntity
  8
0
  6
Continuous
 62
     7
100
AcDbLine
 10
68.2202135546
 20
153.7688711666
 30
0.0
 11
82.2211957238
 21
153.7712639126
 31
0.0
  0
LINE
  5
1F0
330
1F
100
AcDbEntity
  8
0
  6
Continuous
 62
     7
100
AcDbLine
 10
82.2211957238
 20
153.7712639126
 30
0.0
 11
82.2188029782
 21
167.7722442417
 31
0.0
  0
LINE
  5
1F1
330
1F
100
AcDbEntity
  8
0
  6
Continuous
 62
     7
100
AcDbLine
 10
82.2188029782
 20
167.7722442417
 30
0.0
 11
68.2178208089
 21
167.7698514957
 31
0.0
  0
LINE
  5
1F2
330
1F
100
AcDbEntity
  8
0
  6
Continuous
 62
     7
100
AcDbLine
 10
106.2197037505
 20
172.5266823167
 30
0.0
 11
106.2220964962
 21
158.5257019875
 31
0.0
  0
LINE
  5
1F3
330
1F
100
AcDbEntity
  8
0
  6
Continuous
 62
     7
100
AcDbLine
 10
106.2220964962
 20
158.5257019875
 30
0.0
 11
120.2230786654
 21
158.5280947335
 31
0.0
  0
LINE
  5
1F4
330
1F
100
AcDbEntity
  8
0
  6
Continuous
 62
     7
100
AcDbLine
 10
120.2230786654
 20
158.5280947335
 30
0.0
 11
120.2206859198
 21
172.5290750627
 31
0.0
  0
LINE
  5
1F5
330
1F
100
AcDbEntity
  8
0
  6
Continuous
 62
     7
100
AcDbLine
 10
120.2206859198
 20
172.5290750627
 30
0.0
 11
106.2197037505
 21
172.5266823167
 31
0.0
  0
LINE
  5
1F6
330
1F
100
AcDbEntity
  8
0
  6
Continuous
 62
     7
100
AcDbLine
 10
144.2236162542
 20
165.407672584
 30
0.0
 11
144.2260089999
 21
151.4066922548
 31
0.0
  0
LINE
  5
1F7
330
1F
100
AcDbEntity
  8
0
  6
Continuous
 62
     7
100
AcDbLine
 10
144.2260089999
 20
151.4066922548
 30
0.0
 11
158.2269911692
 21
151.4090850008
 31
0.0
  0
LINE
  5
1F8
330
1F
100
AcDbEntity
  8
0
  6
Continuous
 62
     7
100
AcDbLine
 10
158.2269911692
 20
151.4090850008
 30
0.0
 11
158.2245984235
 21
165.41006533
 31
0.0
  0
LINE
  5
1F9
330
1F
100
AcDbEntity
  8
0
  6
Continuous
 62
     7
100
AcDbLine
 10
158.2245984235
 20
165.41006533
 30
0.0
 11
144.2236162542
 21
165.407672584
 31
0.0
  0
LINE
  5
1FA
330
1F
100
AcDbEntity
  8
0
  6
Continuous
 62
     7
100
AcDbLine
 10
163.2222243742
 20
184.4122648564
 30
0.0
 11
163.2246171198
 21
170.4112845273
 31
0.0
  0
LINE
  5
1FB
330
1F
100
AcDbEntity
  8
0
  6
Continuous
 62
     7
100
AcDbLine
 10
163.2246171198
 20
170.4112845273
 30
0.0
 11
177.2255992891
 21
170.4136772733
 31
0.0
  0
LINE
  5
1FC
330
1F
100
AcDbEntity
  8
0
  6
Continuous
 62
     7
100
AcDbLine
 10
177.2255992891
 20
170.4136772733
 30
0.0
 11
177.2232065434
 21
184.4146576024
 31
0.0
  0
LINE
  5
1FD
330
1F
100
AcDbEntity
  8
0
  6
Continuous
 62
     7
100
AcDbLine
 10
177.2232065434
 20
184.4146576024
 30
0.0
 11
163.2222243742
 21
184.4122648564
 31
0.0
  0
LINE
  5
1FE
330
1F
100
AcDbEntity
  8
0
  6
Continuous
 62
     7
100
AcDbLine
 10
125.2182097469
 20
189.1561063916
 30
0.0
 11
125.2206024926
 21
175.1551260624
 31
0.0
  0
LINE
  5
1FF
330
1F
100
AcDbEntity
  8
0
  6
Continuous
 62
     7
100
AcDbLine
 10
125.2206024926
 20
175.1551260624
 30
0.0
 11
139.2215846618
 21
175.1575188084
 31
0.0
  0
LINE
  5
200
330
1F
100
AcDbEntity
  8
0
  6
Continuous
 62
     7
100
AcDbLine
 10
139.2215846618
 20
175.1575188084
 30
0.0
 11
139.2191919161
 21
189.1584991376
 31
0.0
  0
LINE
  5
201
330
1F
100
AcDbEntity
  8
0
  6
Continuous
 62
     7
100
AcDbLine
 10
139.2191919161
 20
189.1584991376
 30
0.0
 11
125.2182097469
 21
189.1561063916
 31
0.0
  0
LINE
  5
202
330
1F
100
AcDbEntity
  8
0
  6
Continuous
 62
     7
100
AcDbLine
 10
87.2155149804
 20
189.149611792
 30
0.0
 11
87.2179077261
 21
175.1486314629
 31
0.0
  0
LINE
  5
203
330
1F
100
AcDbEntity
  8
0
  6
Continuous
 62
     7
100
AcDbLine
 10
87.2179077261
 20
175.1486314629
 30
0.0
 11
101.2188898954
 21
175.1510242089
 31
0.0
  0
LINE
  5
204
330
1F
100
AcDbEntity
  8
0
  6
Continuous
 62
     7
100
AcDbLine
 10
101.2188898954
 20
175.1510242089
 30
0.0
 11
101.2164971497
 21
189.152004538
 31
0.0
  0
LINE
  5
205
330
1F
100
AcDbEntity
  8
0
  6
Continuous
 62
     7
100
AcDbLine
 10
101.2164971497
 20
189.152004538
 30
0.0
 11
87.2155149804
 21
189.149611792
 31
0.0
  0
LINE
  5
206
330
1F
100
AcDbEntity
  8
0
  6
Continuous
 62
     7
100
AcDbLine
 10
163.2213698205
 20
189.4126294132
 30
0.0
 11
177.2223519897
 21
189.4150221592
 31
0.0
  0
LINE
  5
207
330
1F
100
AcDbEntity
  8
0
  6
Continuous
 62
     7
100
AcDbLine
 10
177.2223519897
 20
189.4150221592
 30
0.0
 11
177.219959244
 21
203.4160024883
 31
0.0
  0
LINE
  5
208
330
1F
100
AcDbEntity
  8
0
  6
Continuous
 62
     7
100
AcDbLine
 10
177.219959244
 20
203.4160024883
 30
0.0
 11
163.2189770748
 21
203.4136097423
 31
0.0
  0
LINE
  5
209
330
1F
100
AcDbEntity
  8
0
  6
Continuous
 62
     7
100
AcDbLine
 10
163.2189770748
 20
203.4136097423
 30
0.0
 11
163.2213698205
 21
189.4126294132
 31
0.0
  0
LINE
  5
20A
330
1F
100
AcDbEntity
  8
0
  6
Continuous
 62
     7
100
AcDbLine
 10
125.2173551932
 20
194.1564709484
 30
0.0
 11
139.2183373624
 21
194.1588636944
 31
0.0
  0
LINE
  5
20B
330
1F
100
AcDbEntity
  8
0
  6
Continuous
 62
     7
100
AcDbLine
 10
139.2183373624
 20
194.1588636944
 30
0.0
 11
139.2159446167
 21
208.1598440235
 31
0.0
  0
LINE
  5
20C
330
1F
100
AcDbEntity
  8
0
  6
Continuous
 62
     7
100
AcDbLine
 10
139.2159446167
 20
208.1598440235
 30
0.0
 11
125.2149624475
 21
208.1574512775
 31
0.0
  0
LINE
  5
20D
330
1F
100
AcDbEntity
  8
0
  6
Continuous
 62
     7
100
AcDbLine
 10
125.2149624475
 20
208.1574512775
 30
0.0
 11
125.2173551932
 21
194.1564709484
 31
0.0
  0
LINE
  5
20E
330
1F
100
AcDbEntity
  8
0
  6
Continuous
 62
     7
100
AcDbLine
 10
87.2146604267
 20
194.1499763488
 30
0.0
 11
101.215642596
 21
194.1523690948
 31
0.0
  0
LINE
  5
20F
330
1F
100
AcDbEntity
  8
0
  6
Continuous
 62
     7
100
AcDbLine
 10
101.215642596
 20
194.1523690948
 30
0.0
 11
101.2132498503
 21
208.153349424
 31
0.0
  0
LINE
  5
210
330
1F
100
AcDbEntity
  8
0
  6
Continuous
 62
     7
100
AcDbLine
 10
101.2132498503
 20
208.153349424
 30
0.0
 11
87.2122676811
 21
208.150956678
 31
0.0
  0
LINE
  5
211
330
1F
100
AcDbEntity
  8
0
  6
Continuous
 62
     7
100
AcDbLine
 10
87.2122676811
 20
208.150956678
 30
0.0
 11
87.2146604267
 21
194.1499763488
 31
0.0
  0
LINE
  5
212
330
1F
100
AcDbEntity
  8
0
  6
Continuous
 62
     7
100
AcDbLine
 10
66.2040304908
 20
222.7625553297
 30
0.0
 11
66.2149846217
 21
156.8192418451
 31
0.0
  0
LINE
  5
213
330
1F
100
AcDbEntity
  8
0
  6
Continuous
 62
     7
100
AcDbLine
 10
66.2032186658
 20
227.5128915511
 30
0.0
 11
66.2040304908
 21
222.7625553297
 31
0.0
  0
LINE
  5
214
330
1F
100
AcDbEntity
  8
0
  6
Continuous
 62
     7
100
AcDbLine
 10
89.2051066836
 20
227.5168225378
 30
0.0
 11
66.2032186658
 21
227.5128915511
 31
0.0
  0
LINE
  5
215
330
1F
100
AcDbEntity
  8
0
  6
Continuous
 62
     7
100
AcDbLine
 10
189.2104258946
 20
227.5283512207
 30
0.0
 11
89.2051066836
 21
227.5168225378
 31
0.0
  0
LINE
  5
216
330
1F
100
AcDbEntity
  8
0
  6
Continuous
 62
     7
100
AcDbLine
 10
194.2112803535
 20
222.5289283543
 30
0.0
 11
189.2104258946
 21
227.5283512207
 31
0.0
  0
LINE
  5
217
330
1F
100
AcDbEntity
  8
0
  6
Continuous
 62
     7
100
AcDbLine
 10
194.2255074151
 20
139.2802943769
 30
0.0
 11
194.2112803535
 21
222.5289283543
 31
0.0
  0
LINE
  5
218
330
1F
100
AcDbEntity
  8
0
  6
Continuous
 62
     7
100
AcDbLine
 10
189.2263619802
 20
134.2794406148
 30
0.0
 11
194.2255074151
 21
139.2802943769
 31
0.0
  0
LINE
  5
219
330
1F
100
AcDbEntity
  8
0
  6
Continuous
 62
     7
100
AcDbLine
 10
131.1018409464
 20
134.2695072249
 30
0.0
 11
189.2263619802
 21
134.2794406148
 31
0.0
  0
LINE
  5
21A
330
1F
100
AcDbEntity
  8
0
  6
Continuous
 62
     7
100
AcDbLine
 10
121.1581338585
 20
120.6428400955
 30
0.0
 11
131.1018409464
 21
134.2695072249
 31
0.0
  0
LINE
  5
21B
330
1F
100
AcDbEntity
  8
0
  6
Continuous
 62
     7
100
AcDbLine
 10
80.4904827978
 20
114.5905247251
 30
0.0
 11
121.1581338585
 21
120.6428400955
 31
0.0
  0
LINE
  5
21C
330
1F
100
AcDbEntity
  8
0
  6
Continuous
 62
     7
100
AcDbLine
 10
58.634021314
 20
102.0055448966
 30
0.0
 11
80.4904827978
 21
114.5905247251
 31
0.0
  0
LINE
  5
21D
330
1F
100
AcDbEntity
  8
0
  6
Continuous
 62
     7
100
AcDbLine
 10
68.2113262103
 20
205.7725412675
 30
0.0
 11
68.2137189559
 21
191.7715609384
 31
0.0
  0
LINE
  5
21E
330
1F
100
AcDbEntity
  8
0
  6
Continuous
 62
     7
100
AcDbLine
 10
68.2137189559
 20
191.7715609384
 30
0.0
 11
82.2147011252
 21
191.7739536844
 31
0.0
  0
LINE
  5
21F
330
1F
100
AcDbEntity
  8
0
  6
Continuous
 62
     7
100
AcDbLine
 10
82.2147011252
 20
191.7739536844
 30
0.0
 11
82.2123083795
 21
205.7749340135
 31
0.0
  0
LINE
  5
220
330
1F
100
AcDbEntity
  8
0
  6
Continuous
 62
     7
100
AcDbLine
 10
82.2123083795
 20
205.7749340135
 30
0.0
 11
68.2113262103
 21
205.7725412675
 31
0.0
  0
LINE
  5
221
330
1F
100
AcDbEntity
  8
0
  6
Continuous
 62
     7
100
AcDbLine
 10
106.2156018975
 20
196.5283917593
 30
0.0
 11
120.2165840668
 21
196.5307845053
 31
0.0
  0
LINE
  5
222
330
1F
100
AcDbEntity
  8
0
  6
Continuous
 62
     7
100
AcDbLine
 10
120.2165840668
 20
196.5307845053
 30
0.0
 11
120.2141913211
 21
210.5317648344
 31
0.0
  0
LINE
  5
223
330
1F
100
AcDbEntity
  8
0
  6
Continuous
 62
     7
100
AcDbLine
 10
120.2141913211
 20
210.5317648344
 30
0.0
 11
106.2132091518
 21
210.5293720884
 31
0.0
  0
LINE
  5
224
330
1F
100
AcDbEntity
  8
0
  6
Continuous
 62
     7
100
AcDbLine
 10
106.2132091518
 20
210.5293720884
 30
0.0
 11
106.2156018975
 21
196.5283917593
 31
0.0
  0
LINE
  5
225
330
1F
100
AcDbEntity
  8
0
  6
Continuous
 62
     7
100
AcDbLine
 10
144.2195144012
 20
189.4093820267
 30
0.0
 11
158.2204965705
 21
189.4117747727
 31
0.0
  0
LINE
  5
226
330
1F
100
AcDbEntity
  8
0
  6
Continuous
 62
     7
100
AcDbLine
 10
158.2204965705
 20
189.4117747727
 30
0.0
 11
158.2181038248
 21
203.4127551018
 31
0.0
  0
LINE
  5
227
330
1F
100
AcDbEntity
  8
0
  6
Continuous
 62
     7
100
AcDbLine
 10
158.2181038248
 20
203.4127551018
 30
0.0
 11
144.2171216556
 21
203.4103623558
 31
0.0
  0
LINE
  5
228
330
1F
100
AcDbEntity
  8
0
  6
Continuous
 62
     7
100
AcDbLine
 10
144.2171216556
 20
203.4103623558
 30
0.0
 11
144.2195144012
 21
189.4093820267
 31
0.0
  0
LINE
  5
229
330
1F
100
AcDbEntity
  8
0
  6
Continuous
 62
     7
100
AcDbLine
 10
68.2145735096
 20
186.7711963816
 30
0.0
 11
68.2169662553
 21
172.7702160525
 31
0.0
  0
LINE
  5
22A
330
1F
100
AcDbEntity
  8
0
  6
Continuous
 62
     7
100
AcDbLine
 10
68.2169662553
 20
172.7702160525
 30
0.0
 11
82.2179484246
 21
172.7726087985
 31
0.0
  0
LINE
  5
22B
330
1F
100
AcDbEntity
  8
0
  6
Continuous
 62
     7
100
AcDbLine
 10
82.2179484246
 20
172.7726087985
 30
0.0
 11
82.2155556789
 21
186.7735891276
 31
0.0
  0
LINE
  5
22C
330
1F
100
AcDbEntity
  8
0
  6
Continuous
 62
     7
100
AcDbLine
 10
82.2155556789
 20
186.7735891276
 30
0.0
 11
68.2145735096
 21
186.7711963816
 31
0.0
  0
LINE
  5
22D
330
1F
100
AcDbEntity
  8
0
  6
Continuous
 62
     7
100
AcDbLine
 10
106.2164564512
 20
191.5280272025
 30
0.0
 11
106.2188491969
 21
177.5270468734
 31
0.0
  0
LINE
  5
22E
330
1F
100
AcDbEntity
  8
0
  6
Continuous
 62
     7
100
AcDbLine
 10
106.2188491969
 20
177.5270468734
 30
0.0
 11
120.2198313662
 21
177.5294396194
 31
0.0
  0
LINE
  5
22F
330
1F
100
AcDbEntity
  8
0
  6
Continuous
 62
     7
100
AcDbLine
 10
120.2198313662
 20
177.5294396194
 30
0.0
 11
120.2174386205
 21
191.5304199485
 31
0.0
  0
LINE
  5
230
330
1F
100
AcDbEntity
  8
0
  6
Continuous
 62
     7
100
AcDbLine
 10
120.2174386205
 20
191.5304199485
 30
0.0
 11
106.2164564512
 21
191.5280272025
 31
0.0
  0
LINE
  5
231
330
1F
100
AcDbEntity
  8
0
  6
Continuous
 62
     7
100
AcDbLine
 10
144.2203689548
 20
184.4090174699
 30
0.0
 11
144.2227617005
 21
170.4080371408
 31
0.0
  0
LINE
  5
232
330
1F
100
AcDbEntity
  8
0
  6
Continuous
 62
     7
100
AcDbLine
 10
144.2227617005
 20
170.4080371408
 30
0.0
 11
158.2237438699
 21
170.4104298868
 31
0.0
  0
LINE
  5
233
330
1F
100
AcDbEntity
  8
0
  6
Continuous
 62
     7
100
AcDbLine
 10
158.2237438699
 20
170.4104298868
 30
0.0
 11
158.2213511242
 21
184.4114102159
 31
0.0
  0
LINE
  5
234
330
1F
100
AcDbEntity
  8
0
  6
Continuous
 62
     7
100
AcDbLine
 10
158.2213511242
 20
184.4114102159
 30
0.0
 11
144.2203689548
 21
184.4090174699
 31
0.0
  0
LINE
  5
235
330
1F
100
AcDbEntity
  8
0
  6
Continuous
 62
     7
100
AcDbLine
 10
163.2254716734
 20
165.4109199705
 30
0.0
 11
163.2278644191
 21
151.4099396414
 31
0.0
  0
LINE
  5
236
330
1F
100
AcDbEntity
  8
0
  6
Continuous
 62
     7
100
AcDbLine
 10
163.2278644191
 20
151.4099396414
 30
0.0
 11
177.2288465884
 21
151.4123323874
 31
0.0
  0
LINE
  5
237
330
1F
100
AcDbEntity
  8
0
  6
Continuous
 62
     7
100
AcDbLine
 10
177.2288465884
 20
151.4123323874
 30
0.0
 11
177.2264538427
 21
165.4133127165
 31
0.0
  0
LINE
  5
238
330
1F
100
AcDbEntity
  8
0
  6
Continuous
 62
     7
100
AcDbLine
 10
177.2264538427
 20
165.4133127165
 30
0.0
 11
163.2254716734
 21
165.4109199705
 31
0.0
  0
LINE
  5
239
330
1F
100
AcDbEntity
  8
0
  6
Continuous
 62
     7
100
AcDbLine
 10
125.2214570462
 20
170.1547615057
 30
0.0
 11
125.2238497918
 21
156.1537811765
 31
0.0
  0
LINE
  5
23A
330
1F
100
AcDbEntity
  8
0
  6
Continuous
 62
     7
100
AcDbLine
 10
125.2238497918
 20
156.1537811765
 30
0.0
 11
139.2248319611
 21
156.1561739225
 31
0.0
  0
LINE
  5
23B
330
1F
100
AcDbEntity
  8
0
  6
Continuous
 62
     7
100
AcDbLine
 10
139.2248319611
 20
156.1561739225
 30
0.0
 11
139.2224392154
 21
170.1571542517
 31
0.0
  0
LINE
  5
23C
330
1F
100
AcDbEntity
  8
0
  6
Continuous
 62
     7
100
AcDbLine
 10
139.2224392154
 20
170.1571542517
 30
0.0
 11
125.2214570462
 21
170.1547615057
 31
0.0
  0
LINE
  5
23D
330
1F
100
AcDbEntity
  8
0
  6
Continuous
 62
     7
100
AcDbLine
 10
87.2187622797
 20
170.1482669061
 30
0.0
 11
87.2211550254
 21
156.147286577
 31
0.0
  0
LINE
  5
23E
330
1F
100
AcDbEntity
  8
0
  6
Continuous
 62
     7
100
AcDbLine
 10
87.2211550254
 20
156.147286577
 30
0.0
 11
101.2221371946
 21
156.149679323
 31
0.0
  0
LINE
  5
23F
330
1F
100
AcDbEntity
  8
0
  6
Continuous
 62
     7
100
AcDbLine
 10
101.2221371946
 20
156.149679323
 30
0.0
 11
101.219744449
 21
170.1506596521
 31
0.0
  0
LINE
  5
240
330
1F
100
AcDbEntity
  8
0
  6
Continuous
 62
     7
100
AcDbLine
 10
101.219744449
 20
170.1506596521
 30
0.0
 11
87.2187622797
 21
170.1482669061
 31
0.0
  0
LINE
  5
241
330
1F
100
AcDbEntity
  8
0
  6
Continuous
 62
     7
100
AcDbLine
 10
96.7227900897
 20
150.5235014304
 30
0.0
 11
96.7251828354
 21
136.5225211013
 31
0.0
  0
LINE
  5
242
330
1F
100
AcDbEntity
  8
0
  6
Continuous
 62
     7
100
AcDbLine
 10
96.7251828354
 20
136.5225211013
 30
0.0
 11
110.7261650047
 21
136.5249138473
 31
0.0
  0
LINE
  5
243
330
1F
100
AcDbEntity
  8
0
  6
Continuous
 62
     7
100
AcDbLine
 10
110.7261650047
 20
136.5249138473
 30
0.0
 11
110.723772259
 21
150.5258941764
 31
0.0
  0
LINE
  5
244
330
1F
100
AcDbEntity
  8
0
  6
Continuous
 62
     7
100
AcDbLine
 10
110.723772259
 20
150.5258941764
 30
0.0
 11
96.7227900897
 21
150.5235014304
 31
0.0
  0
LINE
  5
245
330
1F
100
AcDbEntity
  8
0
  6
Continuous
 62
     7
100
AcDbLine
 10
50.9064468121
 20
139.5897115306
 30
0.0
 11
57.9007356971
 21
127.4609279251
 31
0.0
  0
LINE
  5
246
330
1F
100
AcDbEntity
  8
0
  6
Continuous
 62
     7
100
AcDbLine
 10
57.9007356971
 20
127.4609279251
 30
0.0
 11
70.0295208968
 21
134.4552158914
 31
0.0
  0
LINE
  5
247
330
1F
100
AcDbEntity
  8
0
  6
Continuous
 62
     7
100
AcDbLine
 10
70.0295208968
 20
134.4552158914
 30
0.0
 11
63.0352320119
 21
146.5839994968
 31
0.0
  0
LINE
  5
248
330
1F
100
AcDbEntity
  8
0
  6
Continuous
 62
     7
100
AcDbLine
 10
63.0352320119
 20
146.5839994968
 30
0.0
 11
50.9064468121
 21
139.5897115306
 31
0.0
  0
LINE
  5
249
330
1F
100
AcDbEntity
  8
0
  6
Continuous
 62
     7
100
AcDbLine
 10
45.754333626
 20
222.2418403757
 30
0.0
 11
45.7642015604
 21
164.5003276889
 31
0.0
  0
LINE
  5
24A
330
1F
100
AcDbEntity
  8
0
  6
Continuous
 62
     7
100
AcDbLine
 10
64.7096396522
 20
227.2450792238
 30
0.0
 11
50.7534790609
 21
227.2426941377
 31
0.0
  0
LINE
  5
24B
330
1F
100
AcDbEntity
  8
0
  6
Continuous
 62
     7
100
AcDbLine
 10
64.7203620787
 20
164.5035672672
 30
0.0
 11
64.7096396522
 21
227.2450792238
 31
0.0
  0
LINE
  5
24C
330
1F
100
AcDbEntity
  8
0
  6
Continuous
 62
     7
100
AcDbLine
 10
64.7203620787
 20
164.5035672672
 30
0.0
 11
45.7642015604
 21
164.5003276889
 31
0.0
  0
LINE
  5
24D
330
1F
100
AcDbEntity
  8
0
  6
Continuous
 62
     7
100
AcDbLine
 10
50.7534790609
 20
227.2426941377
 30
0.0
 11
45.754333626
 21
222.2418403757
 31
0.0
  0
LINE
  5
24E
330
1F
100
AcDbEntity
  8
0
  6
Continuous
 62
     7
100
AcDbLine
 10
12.7521263711
 20
216.312837071
 30
0.0
 11
12.761182494
 21
163.3215814003
 31
0.0
  0
LINE
  5
24F
330
1F
100
AcDbEntity
  8
0
  6
Continuous
 62
     7
100
AcDbLine
 10
31.7066205722
 20
226.0664121404
 30
0.0
 11
17.750459981
 21
226.0640270544
 31
0.0
  0
LINE
  5
250
330
1F
100
AcDbEntity
  8
0
  6
Continuous
 62
     7
100
AcDbLine
 10
12.751314546
 20
221.0631732923
 30
0.0
 11
12.7521263711
 21
216.312837071
 31
0.0
  0
LINE
  5
251
330
1F
100
AcDbEntity
  8
0
  6
Continuous
 62
     7
100
AcDbLine
 10
17.750459981
 20
226.0640270544
 30
0.0
 11
12.751314546
 21
221.0631732923
 31
0.0
  0
LINE
  5
252
330
1F
100
AcDbEntity
  8
0
  6
Continuous
 62
     7
100
AcDbLine
 10
27.2108569794
 20
201.2769935158
 30
0.0
 11
24.4311313178
 21
199.6714849042
 31
0.0
  0
LINE
  5
253
330
1F
100
AcDbEntity
  8
0
  6
Continuous
 62
     7
100
AcDbLine
 10
27.208536202
 20
214.8568565393
 30
0.0
 11
29.9882618637
 21
216.462365151
 31
0.0
  0
LINE
  5
254
330
1F
100
AcDbEntity
  8
0
  6
Continuous
 62
     7
100
AcDbLine
 10
29.9882618637
 20
216.462365151
 30
0.0
 11
29.9877132683
 21
219.6724321789
 31
0.0
  0
LINE
  5
255
330
1F
100
AcDbEntity
  8
0
  6
Continuous
 62
     7
100
AcDbLine
 10
29.9877132683
 20
219.6724321789
 30
0.0
 11
27.2074390112
 21
221.2769905952
 31
0.0
  0
LINE
  5
256
330
1F
100
AcDbEntity
  8
0
  6
Continuous
 62
     7
100
AcDbLine
 10
27.2074390112
 20
221.2769905952
 30
0.0
 11
24.4277133495
 21
219.6714819836
 31
0.0
  0
LINE
  5
257
330
1F
100
AcDbEntity
  8
0
  6
Continuous
 62
     7
100
AcDbLine
 10
24.4277133495
 20
219.6714819836
 30
0.0
 11
24.4282619449
 21
216.4614149557
 31
0.0
  0
LINE
  5
258
330
1F
100
AcDbEntity
  8
0
  6
Continuous
 62
     7
100
AcDbLine
 10
24.4282619449
 20
216.4614149557
 30
0.0
 11
27.208536202
 21
214.8568565393
 31
0.0
  0
LINE
  5
259
330
1F
100
AcDbEntity
  8
0
  6
Continuous
 62
     7
100
AcDbLine
 10
24.4311313178
 20
199.6714849042
 30
0.0
 11
24.4316799132
 21
196.4614178763
 31
0.0
  0
LINE
  5
25A
330
1F
100
AcDbEntity
  8
0
  6
Continuous
 62
     7
100
AcDbLine
 10
24.4316799132
 20
196.4614178763
 30
0.0
 11
27.2119541703
 21
194.85685946
 31
0.0
  0
LINE
  5
25B
330
1F
100
AcDbEntity
  8
0
  6
Continuous
 62
     7
100
AcDbLine
 10
27.2119541703
 20
194.85685946
 30
0.0
 11
29.991679832
 21
196.4623680716
 31
0.0
  0
LINE
  5
25C
330
1F
100
AcDbEntity
  8
0
  6
Continuous
 62
     7
100
AcDbLine
 10
29.991679832
 20
196.4623680716
 30
0.0
 11
29.9911312366
 21
199.6724350995
 31
0.0
  0
LINE
  5
25D
330
1F
100
AcDbEntity
  8
0
  6
Continuous
 62
     7
100
AcDbLine
 10
29.9911312366
 20
199.6724350995
 30
0.0
 11
27.2108569794
 21
201.2769935158
 31
0.0
  0
LINE
  5
25E
330
1F
100
AcDbEntity
  8
0
  6
Continuous
 62
     7
100
AcDbLine
 10
31.7173430122
 20
163.3248209785
 30
0.0
 11
31.7074323972
 21
221.316075919
 31
0.0
  0
LINE
  5
25F
330
1F
100
AcDbEntity
  8
0
  6
Continuous
 62
     7
100
AcDbLine
 10
31.7074323972
 20
221.316075919
 30
0.0
 11
31.7066205722
 21
226.0664121404
 31
0.0
  0
LINE
  5
260
330
1F
100
AcDbEntity
  8
0
  6
Continuous
 62
     7
100
AcDbLine
 10
31.7173430122
 20
163.3248209785
 30
0.0
 11
12.761182494
 21
163.3215814003
 31
0.0
  0
LINE
  5
261
330
1F
100
AcDbEntity
  8
0
  6
Continuous
 62
     7
100
AcDbLine
 10
32.8318583278
 20
95.3430994357
 30
0.0
 11
32.8368251848
 21
12.0944643907
 31
0.0
  0
LINE
  5
262
330
1F
100
AcDbEntity
  8
0
  6
Continuous
 62
     7
100
AcDbLine
 10
201.9723987517
 20
84.2606974837
 30
0.0
 11
182.3733377851
 21
84.2595281459
 31
0.0
  0
LINE
  5
263
330
1F
100
AcDbEntity
  8
0
  6
Continuous
 62
     7
100
AcDbLine
 10
201.9723987517
 20
84.2606974837
 30
0.0
 11
175.2519084518
 21
130.7620022661
 31
0.0
  0
LINE
  5
264
330
1F
100
AcDbEntity
  8
0
  6
Continuous
 62
     7
100
AcDbLine
 10
177.1882228412
 20
87.2495796038
 30
0.0
 11
182.3733377851
 21
84.2595281459
 31
0.0
  0
LINE
  5
265
330
1F
100
AcDbEntity
  8
0
  6
Continuous
 62
     7
100
AcDbLine
 10
175.2519084518
 20
130.7620022661
 30
0.0
 11
168.4274898659
 21
132.6027661007
 31
0.0
  0
LINE
  5
266
330
1F
100
AcDbEntity
  8
0
  6
Continuous
 62
     7
100
AcDbLine
 10
160.8404293754
 20
77.7899127635
 30
0.0
 11
177.1882228412
 21
87.2495796038
 31
0.0
  0
LINE
  5
267
330
1F
100
AcDbEntity
  8
0
  6
Continuous
 62
     7
100
AcDbLine
 10
152.9106579351
 20
88.8831114234
 30
0.0
 11
149.2998719351
 21
102.4104793783
 31
0.0
  0
LINE
  5
268
330
1F
100
AcDbEntity
  8
0
  6
Continuous
 62
     7
100
AcDbLine
 10
149.2998719351
 20
102.4104793783
 30
0.0
 11
135.7725022022
 21
98.7996938523
 31
0.0
  0
LINE
  5
269
330
1F
100
AcDbEntity
  8
0
  6
Continuous
 62
     7
100
AcDbLine
 10
135.7725022022
 20
98.7996938523
 30
0.0
 11
139.3832882021
 21
85.2723258974
 31
0.0
  0
LINE
  5
26A
330
1F
100
AcDbEntity
  8
0
  6
Continuous
 62
     7
100
AcDbLine
 10
139.3832882021
 20
85.2723258974
 30
0.0
 11
152.9106579351
 21
88.8831114234
 31
0.0
  0
LINE
  5
26B
330
1F
100
AcDbEntity
  8
0
  6
Continuous
 62
     7
100
AcDbLine
 10
158.8363751039
 20
66.8395259671
 30
0.0
 11
158.8355397644
 21
80.8405064758
 31
0.0
  0
LINE
  5
26C
330
1F
100
AcDbEntity
  8
0
  6
Continuous
 62
     7
100
AcDbLine
 10
158.8355397644
 20
80.8405064758
 30
0.0
 11
144.8345574157
 21
80.8396711358
 31
0.0
  0
LINE
  5
26D
330
1F
100
AcDbEntity
  8
0
  6
Continuous
 62
     7
100
AcDbLine
 10
144.8345574157
 20
80.8396711358
 30
0.0
 11
144.8353927551
 21
66.8386906272
 31
0.0
  0
LINE
  5
26E
330
1F
100
AcDbEntity
  8
0
  6
Continuous
 62
     7
100
AcDbLine
 10
144.8353927551
 20
66.8386906272
 30
0.0
 11
158.8363751039
 21
66.8395259671
 31
0.0
  0
LINE
  5
26F
330
1F
100
AcDbEntity
  8
0
  6
Continuous
 62
     7
100
AcDbLine
 10
120.8339632689
 20
62.0869223334
 30
0.0
 11
120.8331279294
 21
76.0879028421
 31
0.0
  0
LINE
  5
270
330
1F
100
AcDbEntity
  8
0
  6
Continuous
 62
     7
100
AcDbLine
 10
120.8331279294
 20
76.0879028421
 30
0.0
 11
106.8321455807
 21
76.0870675022
 31
0.0
  0
LINE
  5
271
330
1F
100
AcDbEntity
  8
0
  6
Continuous
 62
     7
100
AcDbLine
 10
106.8321455807
 20
76.0870675022
 30
0.0
 11
106.8329809201
 21
62.0860869934
 31
0.0
  0
LINE
  5
272
330
1F
100
AcDbEntity
  8
0
  6
Continuous
 62
     7
100
AcDbLine
 10
106.8329809201
 20
62.0860869934
 30
0.0
 11
120.8339632689
 21
62.0869223334
 31
0.0
  0
LINE
  5
273
330
1F
100
AcDbEntity
  8
0
  6
Continuous
 62
     7
100
AcDbLine
 10
82.830842887
 20
69.2101594056
 30
0.0
 11
82.8300075475
 21
83.2111399143
 31
0.0
  0
LINE
  5
274
330
1F
100
AcDbEntity
  8
0
  6
Continuous
 62
     7
100
AcDbLine
 10
82.8300075475
 20
83.2111399143
 30
0.0
 11
68.8290251988
 21
83.2103045743
 31
0.0
  0
LINE
  5
275
330
1F
100
AcDbEntity
  8
0
  6
Continuous
 62
     7
100
AcDbLine
 10
68.8290251988
 20
83.2103045743
 30
0.0
 11
68.8298605382
 21
69.2093240657
 31
0.0
  0
LINE
  5
276
330
1F
100
AcDbEntity
  8
0
  6
Continuous
 62
     7
100
AcDbLine
 10
68.8298605382
 20
69.2093240657
 30
0.0
 11
82.830842887
 21
69.2101594056
 31
0.0
  0
LINE
  5
277
330
1F
100
AcDbEntity
  8
0
  6
Continuous
 62
     7
100
AcDbLine
 10
63.830120899
 20
50.2076805701
 30
0.0
 11
63.8292855596
 21
64.2086610788
 31
0.0
  0
LINE
  5
278
330
1F
100
AcDbEntity
  8
0
  6
Continuous
 62
     7
100
AcDbLine
 10
63.8292855596
 20
64.2086610788
 30
0.0
 11
49.8283032108
 21
64.2078257388
 31
0.0
  0
LINE
  5
279
330
1F
100
AcDbEntity
  8
0
  6
Continuous
 62
     7
100
AcDbLine
 10
49.8283032108
 20
64.2078257388
 30
0.0
 11
49.8291385503
 21
50.2068452302
 31
0.0
  0
LINE
  5
27A
330
1F
100
AcDbEntity
  8
0
  6
Continuous
 62
     7
100
AcDbLine
 10
49.8291385503
 20
50.2068452302
 30
0.0
 11
63.830120899
 21
50.2076805701
 31
0.0
  0
LINE
  5
27B
330
1F
100
AcDbEntity
  8
0
  6
Continuous
 62
     7
100
AcDbLine
 10
101.8336076075
 20
45.4596116694
 30
0.0
 11
101.8327722681
 21
59.460592178
 31
0.0
  0
LINE
  5
27C
330
1F
100
AcDbEntity
  8
0
  6
Continuous
 62
     7
100
AcDbLine
 10
101.8327722681
 20
59.460592178
 30
0.0
 11
87.8317899193
 21
59.4597568381
 31
0.0
  0
LINE
  5
27D
330
1F
100
AcDbEntity
  8
0
  6
Continuous
 62
     7
100
AcDbLine
 10
87.8317899193
 20
59.4597568381
 30
0.0
 11
87.8326252588
 21
45.4587763294
 31
0.0
  0
LINE
  5
27E
330
1F
100
AcDbEntity
  8
0
  6
Continuous
 62
     7
100
AcDbLine
 10
87.8326252588
 20
45.4587763294
 30
0.0
 11
101.8336076075
 21
45.4596116694
 31
0.0
  0
LINE
  5
27F
330
1F
100
AcDbEntity
  8
0
  6
Continuous
 62
     7
100
AcDbLine
 10
139.8363028613
 20
45.4618790207
 30
0.0
 11
139.8354675219
 21
59.4628595294
 31
0.0
  0
LINE
  5
280
330
1F
100
AcDbEntity
  8
0
  6
Continuous
 62
     7
100
AcDbLine
 10
139.8354675219
 20
59.4628595294
 30
0.0
 11
125.8344851731
 21
59.4620241894
 31
0.0
  0
LINE
  5
281
330
1F
100
AcDbEntity
  8
0
  6
Continuous
 62
     7
100
AcDbLine
 10
125.8344851731
 20
59.4620241894
 30
0.0
 11
125.8353205125
 21
45.4610436808
 31
0.0
  0
LINE
  5
282
330
1F
100
AcDbEntity
  8
0
  6
Continuous
 62
     7
100
AcDbLine
 10
125.8353205125
 20
45.4610436808
 30
0.0
 11
139.8363028613
 21
45.4618790207
 31
0.0
  0
LINE
  5
283
330
1F
100
AcDbEntity
  8
0
  6
Continuous
 62
     7
100
AcDbLine
 10
63.8304192346
 20
45.2073159492
 30
0.0
 11
49.8294368858
 21
45.2064806093
 31
0.0
  0
LINE
  5
284
330
1F
100
AcDbEntity
  8
0
  6
Continuous
 62
     7
100
AcDbLine
 10
49.8294368858
 20
45.2064806093
 30
0.0
 11
49.8302722253
 21
31.2055001006
 31
0.0
  0
LINE
  5
285
330
1F
100
AcDbEntity
  8
0
  6
Continuous
 62
     7
100
AcDbLine
 10
49.8302722253
 20
31.2055001006
 30
0.0
 11
63.831254574
 21
31.2063354406
 31
0.0
  0
LINE
  5
286
330
1F
100
AcDbEntity
  8
0
  6
Continuous
 62
     7
100
AcDbLine
 10
63.831254574
 20
31.2063354406
 30
0.0
 11
63.8304192346
 21
45.2073159492
 31
0.0
  0
LINE
  5
287
330
1F
100
AcDbEntity
  8
0
  6
Continuous
 62
     7
100
AcDbLine
 10
101.8339059431
 20
40.4592470485
 30
0.0
 11
87.8329235943
 21
40.4584117085
 31
0.0
  0
LINE
  5
288
330
1F
100
AcDbEntity
  8
0
  6
Continuous
 62
     7
100
AcDbLine
 10
87.8329235943
 20
40.4584117085
 30
0.0
 11
87.8337589338
 21
26.4574311999
 31
0.0
  0
LINE
  5
289
330
1F
100
AcDbEntity
  8
0
  6
Continuous
 62
     7
100
AcDbLine
 10
87.8337589338
 20
26.4574311999
 30
0.0
 11
101.8347412826
 21
26.4582665398
 31
0.0
  0
LINE
  5
28A
330
1F
100
AcDbEntity
  8
0
  6
Continuous
 62
     7
100
AcDbLine
 10
101.8347412826
 20
26.4582665398
 30
0.0
 11
101.8339059431
 21
40.4592470485
 31
0.0
  0
LINE
  5
28B
330
1F
100
AcDbEntity
  8
0
  6
Continuous
 62
     7
100
AcDbLine
 10
139.8366011969
 20
40.4615143998
 30
0.0
 11
125.8356188481
 21
40.4606790599
 31
0.0
  0
LINE
  5
28C
330
1F
100
AcDbEntity
  8
0
  6
Continuous
 62
     7
100
AcDbLine
 10
125.8356188481
 20
40.4606790599
 30
0.0
 11
125.8364541875
 21
26.4596985512
 31
0.0
  0
LINE
  5
28D
330
1F
100
AcDbEntity
  8
0
  6
Continuous
 62
     7
100
AcDbLine
 10
125.8364541875
 20
26.4596985512
 30
0.0
 11
139.8374365363
 21
26.4605338912
 31
0.0
  0
LINE
  5
28E
330
1F
100
AcDbEntity
  8
0
  6
Continuous
 62
     7
100
AcDbLine
 10
139.8374365363
 20
26.4605338912
 30
0.0
 11
139.8366011969
 21
40.4615143998
 31
0.0
  0
LINE
  5
28F
330
1F
100
AcDbEntity
  8
0
  6
Continuous
 62
     7
100
AcDbLine
 10
160.8440482679
 20
11.8465984684
 30
0.0
 11
160.8404293754
 21
77.7899127635
 31
0.0
  0
LINE
  5
290
330
1F
100
AcDbEntity
  8
0
  6
Continuous
 62
     7
100
AcDbLine
 10
160.8443316869
 20
7.0962621861
 30
0.0
 11
160.8440482679
 21
11.8465984684
 31
0.0
  0
LINE
  5
291
330
1F
100
AcDbEntity
  8
0
  6
Continuous
 62
     7
100
AcDbLine
 10
137.8424433741
 20
7.0948898255
 30
0.0
 11
160.8443316869
 21
7.0962621861
 31
0.0
  0
LINE
  5
292
330
1F
100
AcDbEntity
  8
0
  6
Continuous
 62
     7
100
AcDbLine
 10
32.8368251848
 20
12.0944643907
 30
0.0
 11
37.8371234994
 21
7.0944852828
 31
0.0
  0
LINE
  5
293
330
1F
100
AcDbEntity
  8
0
  6
Continuous
 62
     7
100
AcDbLine
 10
37.8315600043
 20
100.3433970844
 30
0.0
 11
32.8318583278
 21
95.3430994357
 31
0.0
  0
LINE
  5
294
330
1F
100
AcDbEntity
  8
0
  6
Continuous
 62
     7
100
AcDbLine
 10
95.9560817834
 20
100.346864965
 30
0.0
 11
37.8315600043
 21
100.3433970844
 31
0.0
  0
LINE
  5
295
330
1F
100
AcDbEntity
  8
0
  6
Continuous
 62
     7
100
AcDbLine
 10
105.9013045791
 20
113.9724259171
 30
0.0
 11
95.9560817834
 21
100.346864965
 31
0.0
  0
LINE
  5
296
330
1F
100
AcDbEntity
  8
0
  6
Continuous
 62
     7
100
AcDbLine
 10
146.5696286206
 20
120.0202175642
 30
0.0
 11
105.9013045791
 21
113.9724259171
 31
0.0
  0
LINE
  5
297
330
1F
100
AcDbEntity
  8
0
  6
Continuous
 62
     7
100
AcDbLine
 10
168.4274898659
 20
132.6027661007
 30
0.0
 11
146.5696286206
 21
120.0202175642
 31
0.0
  0
LINE
  5
298
330
1F
100
AcDbEntity
  8
0
  6
Continuous
 62
     7
100
AcDbLine
 10
158.8386424538
 20
28.836835708
 30
0.0
 11
158.8378071144
 21
42.8378162167
 31
0.0
  0
LINE
  5
299
330
1F
100
AcDbEntity
  8
0
  6
Continuous
 62
     7
100
AcDbLine
 10
158.8378071144
 20
42.8378162167
 30
0.0
 11
144.8368247656
 21
42.8369808767
 31
0.0
  0
LINE
  5
29A
330
1F
100
AcDbEntity
  8
0
  6
Continuous
 62
     7
100
AcDbLine
 10
144.8368247656
 20
42.8369808767
 30
0.0
 11
144.837660105
 21
28.836000368
 31
0.0
  0
LINE
  5
29B
330
1F
100
AcDbEntity
  8
0
  6
Continuous
 62
     7
100
AcDbLine
 10
144.837660105
 20
28.836000368
 30
0.0
 11
158.8386424538
 21
28.836835708
 31
0.0
  0
LINE
  5
29C
330
1F
100
AcDbEntity
  8
0
  6
Continuous
 62
     7
100
AcDbLine
 10
120.8353952794
 20
38.085212583
 30
0.0
 11
106.8344129306
 21
38.084377243
 31
0.0
  0
LINE
  5
29D
330
1F
100
AcDbEntity
  8
0
  6
Continuous
 62
     7
100
AcDbLine
 10
106.8344129306
 20
38.084377243
 30
0.0
 11
106.83524827
 21
24.0833967344
 31
0.0
  0
LINE
  5
29E
330
1F
100
AcDbEntity
  8
0
  6
Continuous
 62
     7
100
AcDbLine
 10
106.83524827
 20
24.0833967344
 30
0.0
 11
120.8362306188
 21
24.0842320743
 31
0.0
  0
LINE
  5
29F
330
1F
100
AcDbEntity
  8
0
  6
Continuous
 62
     7
100
AcDbLine
 10
120.8362306188
 20
24.0842320743
 30
0.0
 11
120.8353952794
 21
38.085212583
 31
0.0
  0
LINE
  5
2A0
330
1F
100
AcDbEntity
  8
0
  6
Continuous
 62
     7
100
AcDbLine
 10
82.8322748975
 20
45.2084496552
 30
0.0
 11
68.8312925487
 21
45.2076143152
 31
0.0
  0
LINE
  5
2A1
330
1F
100
AcDbEntity
  8
0
  6
Continuous
 62
     7
100
AcDbLine
 10
68.8312925487
 20
45.2076143152
 30
0.0
 11
68.8321278881
 21
31.2066338066
 31
0.0
  0
LINE
  5
2A2
330
1F
100
AcDbEntity
  8
0
  6
Continuous
 62
     7
100
AcDbLine
 10
68.8321278881
 20
31.2066338066
 30
0.0
 11
82.8331102369
 21
31.2074691465
 31
0.0
  0
LINE
  5
2A3
330
1F
100
AcDbEntity
  8
0
  6
Continuous
 62
     7
100
AcDbLine
 10
82.8331102369
 20
31.2074691465
 30
0.0
 11
82.8322748975
 21
45.2084496552
 31
0.0
  0
LINE
  5
2A4
330
1F
100
AcDbEntity
  8
0
  6
Continuous
 62
     7
100
AcDbLine
 10
158.8375087788
 20
47.8381808376
 30
0.0
 11
158.8366734394
 21
61.8391613462
 31
0.0
  0
LINE
  5
2A5
330
1F
100
AcDbEntity
  8
0
  6
Continuous
 62
     7
100
AcDbLine
 10
158.8366734394
 20
61.8391613462
 30
0.0
 11
144.8356910906
 21
61.8383260063
 31
0.0
  0
LINE
  5
2A6
330
1F
100
AcDbEntity
  8
0
  6
Continuous
 62
     7
100
AcDbLine
 10
144.8356910906
 20
61.8383260063
 30
0.0
 11
144.83652643
 21
47.8373454976
 31
0.0
  0
LINE
  5
2A7
330
1F
100
AcDbEntity
  8
0
  6
Continuous
 62
     7
100
AcDbLine
 10
144.83652643
 20
47.8373454976
 30
0.0
 11
158.8375087788
 21
47.8381808376
 31
0.0
  0
LINE
  5
2A8
330
1F
100
AcDbEntity
  8
0
  6
Continuous
 62
     7
100
AcDbLine
 10
120.8350969438
 20
43.0855772039
 30
0.0
 11
120.8342616044
 21
57.0865577126
 31
0.0
  0
LINE
  5
2A9
330
1F
100
AcDbEntity
  8
0
  6
Continuous
 62
     7
100
AcDbLine
 10
120.8342616044
 20
57.0865577126
 30
0.0
 11
106.8332792556
 21
57.0857223726
 31
0.0
  0
LINE
  5
2AA
330
1F
100
AcDbEntity
  8
0
  6
Continuous
 62
     7
100
AcDbLine
 10
106.8332792556
 20
57.0857223726
 30
0.0
 11
106.834114595
 21
43.0847418639
 31
0.0
  0
LINE
  5
2AB
330
1F
100
AcDbEntity
  8
0
  6
Continuous
 62
     7
100
AcDbLine
 10
106.834114595
 20
43.0847418639
 30
0.0
 11
120.8350969438
 21
43.0855772039
 31
0.0
  0
LINE
  5
2AC
330
1F
100
AcDbEntity
  8
0
  6
Continuous
 62
     7
100
AcDbLine
 10
82.831976562
 20
50.2088142761
 30
0.0
 11
82.8311412226
 21
64.2097947847
 31
0.0
  0
LINE
  5
2AD
330
1F
100
AcDbEntity
  8
0
  6
Continuous
 62
     7
100
AcDbLine
 10
82.8311412226
 20
64.2097947847
 30
0.0
 11
68.8301588737
 21
64.2089594448
 31
0.0
  0
LINE
  5
2AE
330
1F
100
AcDbEntity
  8
0
  6
Continuous
 62
     7
100
AcDbLine
 10
68.8301588737
 20
64.2089594448
 30
0.0
 11
68.8309942131
 21
50.2079789361
 31
0.0
  0
LINE
  5
2AF
330
1F
100
AcDbEntity
  8
0
  6
Continuous
 62
     7
100
AcDbLine
 10
68.8309942131
 20
50.2079789361
 30
0.0
 11
82.831976562
 21
50.2088142761
 31
0.0
  0
LINE
  5
2B0
330
1F
100
AcDbEntity
  8
0
  6
Continuous
 62
     7
100
AcDbLine
 10
63.8289872241
 20
69.2090256997
 30
0.0
 11
63.8281518847
 21
83.2100062084
 31
0.0
  0
LINE
  5
2B1
330
1F
100
AcDbEntity
  8
0
  6
Continuous
 62
     7
100
AcDbLine
 10
63.8281518847
 20
83.2100062084
 30
0.0
 11
49.8271695359
 21
83.2091708684
 31
0.0
  0
LINE
  5
2B2
330
1F
100
AcDbEntity
  8
0
  6
Continuous
 62
     7
100
AcDbLine
 10
49.8271695359
 20
83.2091708684
 30
0.0
 11
49.8280048753
 21
69.2081903597
 31
0.0
  0
LINE
  5
2B3
330
1F
100
AcDbEntity
  8
0
  6
Continuous
 62
     7
100
AcDbLine
 10
49.8280048753
 20
69.2081903597
 30
0.0
 11
63.8289872241
 21
69.2090256997
 31
0.0
  0
LINE
  5
2B4
330
1F
100
AcDbEntity
  8
0
  6
Continuous
 62
     7
100
AcDbLine
 10
101.8324739326
 20
64.460956799
 30
0.0
 11
101.8316385932
 21
78.4619373076
 31
0.0
  0
LINE
  5
2B5
330
1F
100
AcDbEntity
  8
0
  6
Continuous
 62
     7
100
AcDbLine
 10
101.8316385932
 20
78.4619373076
 30
0.0
 11
87.8306562444
 21
78.4611019676
 31
0.0
  0
LINE
  5
2B6
330
1F
100
AcDbEntity
  8
0
  6
Continuous
 62
     7
100
AcDbLine
 10
87.8306562444
 20
78.4611019676
 30
0.0
 11
87.8314915838
 21
64.460121459
 31
0.0
  0
LINE
  5
2B7
330
1F
100
AcDbEntity
  8
0
  6
Continuous
 62
     7
100
AcDbLine
 10
87.8314915838
 20
64.460121459
 30
0.0
 11
101.8324739326
 21
64.460956799
 31
0.0
  0
LINE
  5
2B8
330
1F
100
AcDbEntity
  8
0
  6
Continuous
 62
     7
100
AcDbLine
 10
139.8351691864
 20
64.4632241503
 30
0.0
 11
139.8343338469
 21
78.464204659
 31
0.0
  0
LINE
  5
2B9
330
1F
100
AcDbEntity
  8
0
  6
Continuous
 62
     7
100
AcDbLine
 10
139.8343338469
 20
78.464204659
 30
0.0
 11
125.8333514982
 21
78.463369319
 31
0.0
  0
LINE
  5
2BA
330
1F
100
AcDbEntity
  8
0
  6
Continuous
 62
     7
100
AcDbLine
 10
125.8333514982
 20
78.463369319
 30
0.0
 11
125.8341868376
 21
64.4623888103
 31
0.0
  0
LINE
  5
2BB
330
1F
100
AcDbEntity
  8
0
  6
Continuous
 62
     7
100
AcDbLine
 10
125.8341868376
 20
64.4623888103
 30
0.0
 11
139.8351691864
 21
64.4632241503
 31
0.0
  0
LINE
  5
2BC
330
1F
100
AcDbEntity
  8
0
  6
Continuous
 62
     7
100
AcDbLine
 10
130.333324406
 20
84.0890466897
 30
0.0
 11
130.3324890666
 21
98.0900271984
 31
0.0
  0
LINE
  5
2BD
330
1F
100
AcDbEntity
  8
0
  6
Continuous
 62
     7
100
AcDbLine
 10
130.3324890666
 20
98.0900271984
 30
0.0
 11
116.3315067178
 21
98.0891918584
 31
0.0
  0
LINE
  5
2BE
330
1F
100
AcDbEntity
  8
0
  6
Continuous
 62
     7
100
AcDbLine
 10
116.3315067178
 20
98.0891918584
 30
0.0
 11
116.3323420572
 21
84.0882113498
 31
0.0
  0
LINE
  5
2BF
330
1F
100
AcDbEntity
  8
0
  6
Continuous
 62
     7
100
AcDbLine
 10
116.3323420572
 20
84.0882113498
 30
0.0
 11
130.333324406
 21
84.0890466897
 31
0.0
  0
LINE
  5
2C0
330
1F
100
AcDbEntity
  8
0
  6
Continuous
 62
     7
100
AcDbLine
 10
176.1508836259
 20
95.0177401188
 30
0.0
 11
169.1579439357
 21
107.1473016624
 31
0.0
  0
LINE
  5
2C1
330
1F
100
AcDbEntity
  8
0
  6
Continuous
 62
     7
100
AcDbLine
 10
169.1579439357
 20
107.1473016624
 30
0.0
 11
157.0283807978
 21
100.1543628906
 31
0.0
  0
LINE
  5
2C2
330
1F
100
AcDbEntity
  8
0
  6
Continuous
 62
     7
100
AcDbLine
 10
157.0283807978
 20
100.1543628906
 30
0.0
 11
164.0213204879
 21
88.0248013472
 31
0.0
  0
LINE
  5
2C3
330
1F
100
AcDbEntity
  8
0
  6
Continuous
 62
     7
100
AcDbLine
 10
164.0213204879
 20
88.0248013472
 30
0.0
 11
176.1508836259
 21
95.0177401188
 31
0.0
  0
LINE
  5
2C4
330
1F
100
AcDbEntity
  8
0
  6
Continuous
 62
     7
100
AcDbLine
 10
182.5228961164
 20
13.002660236
 30
0.0
 11
182.5194510888
 21
70.7441736632
 31
0.0
  0
LINE
  5
2C5
330
1F
100
AcDbEntity
  8
0
  6
Continuous
 62
     7
100
AcDbLine
 10
163.5670336696
 20
8.0015299215
 30
0.0
 11
177.5231944399
 21
8.0023625873
 31
0.0
  0
LINE
  5
2C6
330
1F
100
AcDbEntity
  8
0
  6
Continuous
 62
     7
100
AcDbLine
 10
163.5632903275
 20
70.7430426826
 30
0.0
 11
163.5670336696
 21
8.0015299215
 31
0.0
  0
LINE
  5
2C7
330
1F
100
AcDbEntity
  8
0
  6
Continuous
 62
     7
100
AcDbLine
 10
163.5632903275
 20
70.7430426826
 30
0.0
 11
182.5194510888
 21
70.7441736632
 31
0.0
  0
LINE
  5
2C8
330
1F
100
AcDbEntity
  8
0
  6
Continuous
 62
     7
100
AcDbLine
 10
177.5231944399
 20
8.0023625873
 30
0.0
 11
182.5228961164
 21
13.002660236
 31
0.0
  0
LINE
  5
2C9
330
1F
100
AcDbEntity
  8
0
  6
Continuous
 62
     7
100
AcDbLine
 10
37.8371234994
 20
7.0944852828
 30
0.0
 11
137.8424433741
 21
7.0948898255
 31
0.0
  0
LINE
  5
2CA
330
1F
100
AcDbEntity
  8
0
  6
Continuous
 62
     7
100
AcDbLine
 10
188.1320924131
 20
62.370208052
 30
0.0
 11
188.141148536
 21
9.3789523814
 31
0.0
  0
LINE
  5
2CB
330
1F
100
AcDbEntity
  8
0
  6
Continuous
 62
     7
100
AcDbLine
 10
207.0865866142
 20
72.1237831215
 30
0.0
 11
193.1304260229
 21
72.1213980355
 31
0.0
  0
LINE
  5
2CC
330
1F
100
AcDbEntity
  8
0
  6
Continuous
 62
     7
100
AcDbLine
 10
188.131280588
 20
67.1205442734
 30
0.0
 11
188.1320924131
 21
62.370208052
 31
0.0
  0
LINE
  5
2CD
330
1F
100
AcDbEntity
  8
0
  6
Continuous
 62
     7
100
AcDbLine
 10
193.1304260229
 20
72.1213980355
 30
0.0
 11
188.131280588
 21
67.1205442734
 31
0.0
  0
LINE
  5
2CE
330
1F
100
AcDbEntity
  8
0
  6
Continuous
 62
     7
100
AcDbLine
 10
202.5908230214
 20
47.3343644969
 30
0.0
 11
199.8110973597
 21
45.7288558853
 31
0.0
  0
LINE
  5
2CF
330
1F
100
AcDbEntity
  8
0
  6
Continuous
 62
     7
100
AcDbLine
 10
202.588502244
 20
60.9142275204
 30
0.0
 11
205.3682279057
 21
62.5197361321
 31
0.0
  0
LINE
  5
2D0
330
1F
100
AcDbEntity
  8
0
  6
Continuous
 62
     7
100
AcDbLine
 10
205.3682279057
 20
62.5197361321
 30
0.0
 11
205.3676793103
 21
65.72980316
 31
0.0
  0
LINE
  5
2D1
330
1F
100
AcDbEntity
  8
0
  6
Continuous
 62
     7
100
AcDbLine
 10
205.3676793103
 20
65.72980316
 30
0.0
 11
202.5874050531
 21
67.3343615763
 31
0.0
  0
LINE
  5
2D2
330
1F
100
AcDbEntity
  8
0
  6
Continuous
 62
     7
100
AcDbLine
 10
202.5874050531
 20
67.3343615763
 30
0.0
 11
199.8076793915
 21
65.7288529647
 31
0.0
  0
LINE
  5
2D3
330
1F
100
AcDbEntity
  8
0
  6
Continuous
 62
     7
100
AcDbLine
 10
199.8076793915
 20
65.7288529647
 30
0.0
 11
199.8082279869
 21
62.5187859367
 31
0.0
  0
LINE
  5
2D4
330
1F
100
AcDbEntity
  8
0
  6
Continuous
 62
     7
100
AcDbLine
 10
199.8082279869
 20
62.5187859367
 30
0.0
 11
202.588502244
 21
60.9142275204
 31
0.0
  0
LINE
  5
2D5
330
1F
100
AcDbEntity
  8
0
  6
Continuous
 62
     7
100
AcDbLine
 10
199.8110973597
 20
45.7288558853
 30
0.0
 11
199.8116459552
 21
42.5187888574
 31
0.0
  0
LINE
  5
2D6
330
1F
100
AcDbEntity
  8
0
  6
Continuous
 62
     7
100
AcDbLine
 10
199.8116459552
 20
42.5187888574
 30
0.0
 11
202.5919202123
 21
40.9142304411
 31
0.0
  0
LINE
  5
2D7
330
1F
100
AcDbEntity
  8
0
  6
Continuous
 62
     7
100
AcDbLine
 10
202.5919202123
 20
40.9142304411
 30
0.0
 11
205.371645874
 21
42.5197390527
 31
0.0
  0
LINE
  5
2D8
330
1F
100
AcDbEntity
  8
0
  6
Continuous
 62
     7
100
AcDbLine
 10
205.371645874
 20
42.5197390527
 30
0.0
 11
205.3710972785
 21
45.7298060806
 31
0.0
  0
LINE
  5
2D9
330
1F
100
AcDbEntity
  8
0
  6
Continuous
 62
     7
100
AcDbLine
 10
205.3710972785
 20
45.7298060806
 30
0.0
 11
202.5908230214
 21
47.3343644969
 31
0.0
  0
LINE
  5
2DA
330
1F
100
AcDbEntity
  8
0
  6
Continuous
 62
     7
100
AcDbLine
 10
207.0973090542
 20
9.3821919596
 30
0.0
 11
207.0873984392
 21
67.3734469001
 31
0.0
  0
LINE
  5
2DB
330
1F
100
AcDbEntity
  8
0
  6
Continuous
 62
     7
100
AcDbLine
 10
207.0873984392
 20
67.3734469001
 30
0.0
 11
207.0865866142
 21
72.1237831215
 31
0.0
  0
LINE
  5
2DC
330
1F
100
AcDbEntity
  8
0
  6
Continuous
 62
     7
100
AcDbLine
 10
207.0973090542
 20
9.3821919596
 30
0.0
 11
188.141148536
 21
9.3789523814
 31
0.0
  0
ENDSEC
  0
SECTION
  2
OBJECTS
  0
DICTIONARY
  5
C
330
0
100
AcDbDictionary
281
     1
  3
ACAD_DETAILVIEWSTYLE
350
2E4
  3
ACAD_GROUP
350
D
  3
ACAD_LAYOUT
350
1A
  3
ACAD_MATERIAL
350
43
  3
ACAD_MLEADERSTYLE
350
6B
  3
ACAD_MLINESTYLE
350
17
  3
ACAD_PLOTSETTINGS
350
19
  3
ACAD_PLOTSTYLENAME
350
E
  3
ACAD_SCALELIST
350
47
  3
ACAD_SECTIONVIEWSTYLE
350
2E5
  3
ACAD_TABLESTYLE
350
69
  3
ACAD_VISUALSTYLE
350
2A
  3
ACDB_RECOMPOSE_DATA
350
2E1
  3
AcDbVariableDictionary
350
2DD
  0
SUN
  5
6D
330
29
100
AcDbSun
 90
        1
290
     0
 63
     7
421
 16777215
 40
1.0
291
     1
 91
  2455826
 92
 54000000
292
     0
 70
     2
 71
   256
280
     1
  0
DICTIONARY
  5
2E4
102
{ACAD_REACTORS
330
C
102
}
330
C
100
AcDbDictionary
281
     1
  0
DICTIONARY
  5
D
102
{ACAD_REACTORS
330
C
102
}
330
C
100
AcDbDictionary
281
     1
  0
DICTIONARY
  5
1A
102
{ACAD_REACTORS
330
C
102
}
330
C
100
AcDbDictionary
281
     1
  3
Layout1
350
1E
  3
Layout2
350
26
  3
Model
350
22
  0
DICTIONARY
  5
43
102
{ACAD_REACTORS
330
C
102
}
330
C
100
AcDbDictionary
281
     1
  3
ByBlock
350
45
  3
ByLayer
350
44
  3
Global
350
46
  0
DICTIONARY
  5
6B
102
{ACAD_REACTORS
330
C
102
}
330
C
100
AcDbDictionary
281
     1
  3
Standard
350
6C
  0
DICTIONARY
  5
17
102
{ACAD_REACTORS
330
C
102
}
330
C
100
AcDbDictionary
281
     1
  3
Standard
350
18
  0
DICTIONARY
  5
19
102
{ACAD_REACTORS
330
C
102
}
330
C
100
AcDbDictionary
281
     1
  0
ACDBDICTIONARYWDFLT
  5
E
102
{ACAD_REACTORS
330
C
102
}
330
C
100
AcDbDictionary
281
     1
  3
Normal
350
F
100
AcDbDictionaryWithDefault
340
F
  0
DICTIONARY
  5
47
102
{ACAD_REACTORS
330
C
102
}
330
C
100
AcDbDictionary
281
     1
  3
A0
350
48
  3
A1
350
49
  3
A2
350
4A
  3
A3
350
4B
  3
A4
350
4C
  3
A5
350
4D
  3
A6
350
4E
  3
A7
350
4F
  3
A8
350
50
  3
A9
350
51
  3
B0
350
52
  3
B1
350
53
  3
B2
350
54
  3
B3
350
55
  3
B4
350
56
  3
B5
350
57
  3
B6
350
58
  3
B7
350
59
  3
B8
350
5A
  3
B9
350
5B
  3
C0
350
5C
  3
C1
350
5D
  3
C2
350
5E
  3
C3
350
5F
  3
C4
350
60
  3
C5
350
61
  3
C6
350
62
  3
C7
350
63
  3
C8
350
64
  3
C9
350
65
  3
D0
350
66
  3
D1
350
67
  3
D2
350
68
  0
DICTIONARY
  5
2E5
102
{ACAD_REACTORS
330
C
102
}
330
C
100
AcDbDictionary
281
     1
  0
DICTIONARY
  5
69
102
{ACAD_REACTORS
330
C
102
}
330
C
100
AcDbDictionary
281
     1
  3
Standard
350
6A
  0
DICTIONARY
  5
2A
102
{ACAD_REACTORS
330
C
102
}
330
C
100
AcDbDictionary
281
     1
  3
2dWireframe
350
2F
  3
Basic
350
32
  3
Brighten
350
36
  3
ColorChange
350
3A
  3
Conceptual
350
34
  3
Dim
350
35
  3
EdgeColorOff
350
3D
  3
Facepattern
350
39
  3
Flat
350
2B
  3
FlatWithEdges
350
2C
  3
Gouraud
350
2D
  3
GouraudWithEdges
350
2E
  3
Hidden
350
31
  3
JitterOff
350
3B
  3
Linepattern
350
38
  3
OverhangOff
350
3C
  3
Realistic
350
33
  3
Shaded
350
42
  3
Shaded with edges
350
41
  3
Shades of Gray
350
3E
  3
Sketchy
350
3F
  3
Thicken
350
37
  3
Wireframe
350
30
  3
X-Ray
350
40
  0
XRECORD
  5
2E1
102
{ACAD_REACTORS
330
C
102
}
330
C
100
AcDbXrecord
280
     1
 90
        1
330
6A
  0
DICTIONARY
  5
2DD
102
{ACAD_REACTORS
330
C
102
}
330
C
100
AcDbDictionary
281
     1
  3
CANNOSCALE
350
2DE
  3
CENTEREXE
350
2E6
  3
CENTERLTYPEFILE
350
2E7
  3
CMLEADERSTYLE
350
2E3
  3
CTABLESTYLE
350
2E2
  0
LAYOUT
  5
1E
102
{ACAD_REACTORS
330
1A
102
}
330
1A
100
AcDbPlotSettings
  1

  2
none_device
  4

  6

 40
0.0
 41
0.0
 42
0.0
 43
0.0
 44
0.0
 45
0.0
 46
0.0
 47
0.0
 48
0.0
 49
0.0
140
0.0
141
0.0
142
1.0
143
1.0
 70
   688
 72
     1
 73
     0
 74
     5
  7

 75
    16
 76
     0
 77
     2
 78
   300
147
1.0
148
0.0
149
0.0
100
AcDbLayout
  1
Layout1
 70
     1
 71
     1
 10
0.0
 20
0.0
 11
420.0
 21
297.0
 12
0.0
 22
0.0
 32
0.0
 14
1.0000000000E+20
 24
1.0000000000E+20
 34
1.0000000000E+20
 15
-1.0000000000E+20
 25
-1.0000000000E+20
 35
-1.0000000000E+20
146
0.0
 13
0.0
 23
0.0
 33
0.0
 16
1.0
 26
0.0
 36
0.0
 17
0.0
 27
1.0
 37
0.0
 76
     0
330
1B
  0
LAYOUT
  5
26
102
{ACAD_REACTORS
330
1A
102
}
330
1A
100
AcDbPlotSettings
  1

  2
none_device
  4

  6

 40
0.0
 41
0.0
 42
0.0
 43
0.0
 44
0.0
 45
0.0
 46
0.0
 47
0.0
 48
0.0
 49
0.0
140
0.0
141
0.0
142
1.0
143
1.0
 70
   688
 72
     1
 73
     0
 74
     5
  7

 75
    16
 76
     0
 77
     2
 78
   300
147
1.0
148
0.0
149
0.0
100
AcDbLayout
  1
Layout2
 70
     1
 71
     2
 10
0.0
 20
0.0
 11
0.0
 21
0.0
 12
0.0
 22
0.0
 32
0.0
 14
0.0
 24
0.0
 34
0.0
 15
0.0
 25
0.0
 35
0.0
146
0.0
 13
0.0
 23
0.0
 33
0.0
 16
1.0
 26
0.0
 36
0.0
 17
0.0
 27
1.0
 37
0.0
 76
     0
330
23
  0
LAYOUT
  5
22
102
{ACAD_REACTORS
330
1A
102
}
330
1A
100
AcDbPlotSettings
  1

  2
none_device
  4
ANSI_A_(11.00_x_8.50_Inches)
  6

 40
6.35
 41
19.05
 42
6.35000508
 43
19.05000254
 44
279.4
 45
215.9
 46
23.1283654212
 47
-21.7272034544
 48
0.0
 49
0.0
140
0.0
141
0.0
142
0.022069538
143
1.0
 70
  1696
 72
     0
 73
     0
 74
     0
  7

 75
     0
 76
     0
 77
     2
 78
   300
147
0.0179189148
148
-1300.4909072572
149
0.0
100
AcDbLayout
  1
Model
 70
     1
 71
     0
 10
0.0
 20
0.0
 11
420.0
 21
297.0
 12
0.0
 22
0.0
 32
0.0
 14
5.5284513546
 24
6.7016201525
 34
0.0
 15
387.7225833319
 25
387.9964161476
 35
0.0
146
0.0
 13
0.0
 23
0.0
 33
0.0
 16
1.0
 26
0.0
 36
0.0
 17
0.0
 27
1.0
 37
0.0
 76
     0
330
1F
331
29
  0
MATERIAL
  5
45
102
{ACAD_REACTORS
330
43
102
}
330
43
100
AcDbMaterial
  1
ByBlock
 72
     1
 94
      127
  0
MATERIAL
  5
44
102
{ACAD_REACTORS
330
43
102
}
330
43
100
AcDbMaterial
  1
ByLayer
 72
     1
 94
      127
  0
MATERIAL
  5
46
102
{ACAD_REACTORS
330
43
102
}
330
43
100
AcDbMaterial
  1
Global
 72
     1
 94
      127
  0
MLEADERSTYLE
  5
6C
102
{ACAD_REACTORS
330
6B
102
}
330
6B
100
AcDbMLeaderStyle
179
     2
170
     2
171
     1
172
     0
 90
        2
 40
0.0
 41
0.0
173
     1
 91
-1056964608
340
14
 92
       -2
290
     1
 42
2.0
291
     1
 43
8.0
  3
Standard
341
0
 44
4.0
300

342
11
174
     1
178
     6
175
     1
176
     0
 93
-1056964608
 45
4.0
292
     0
297
     0
 46
4.0
343
0
 94
-1056964608
 47
1.0
 49
1.0
140
1.0
293
     1
141
0.0
294
     1
177
     0
142
1.0
295
     0
296
     0
143
3.75
271
     0
272
     9
273
     9
298
     0
  0
MLINESTYLE
  5
18
102
{ACAD_REACTORS
330
17
102
}
330
17
100
AcDbMlineStyle
  2
Standard
 70
     0
  3

 62
   256
 51
90.0
 52
90.0
 71
     2
 49
0.5
 62
   256
  6
BYLAYER
 49
-0.5
 62
   256
  6
BYLAYER
  0
ACDBPLACEHOLDER
  5
F
102
{ACAD_REACTORS
330
E
102
}
330
E
  0
SCALE
  5
48
102
{ACAD_REACTORS
330
47
102
}
330
47
100
AcDbScale
 70
     0
300
1:1
140
1.0
141
1.0
290
     1
  0
SCALE
  5
49
102
{ACAD_REACTORS
330
47
102
}
330
47
100
AcDbScale
 70
     0
300
1:2
140
1.0
141
2.0
290
     0
  0
SCALE
  5
4A
102
{ACAD_REACTORS
330
47
102
}
330
47
100
AcDbScale
 70
     0
300
1:4
140
1.0
141
4.0
290
     0
  0
SCALE
  5
4B
102
{ACAD_REACTORS
330
47
102
}
330
47
100
AcDbScale
 70
     0
300
1:5
140
1.0
141
5.0
290
     0
  0
SCALE
  5
4C
102
{ACAD_REACTORS
330
47
102
}
330
47
100
AcDbScale
 70
     0
300
1:8
140
1.0
141
8.0
290
     0
  0
SCALE
  5
4D
102
{ACAD_REACTORS
330
47
102
}
330
47
100
AcDbScale
 70
     0
300
1:10
140
1.0
141
10.0
290
     0
  0
SCALE
  5
4E
102
{ACAD_REACTORS
330
47
102
}
330
47
100
AcDbScale
 70
     0
300
1:16
140
1.0
141
16.0
290
     0
  0
SCALE
  5
4F
102
{ACAD_REACTORS
330
47
102
}
330
47
100
AcDbScale
 70
     0
300
1:20
140
1.0
141
20.0
290
     0
  0
SCALE
  5
50
102
{ACAD_REACTORS
330
47
102
}
330
47
100
AcDbScale
 70
     0
300
1:30
140
1.0
141
30.0
290
     0
  0
SCALE
  5
51
102
{ACAD_REACTORS
330
47
102
}
330
47
100
AcDbScale
 70
     0
300
1:40
140
1.0
141
40.0
290
     0
  0
SCALE
  5
52
102
{ACAD_REACTORS
330
47
102
}
330
47
100
AcDbScale
 70
     0
300
1:50
140
1.0
141
50.0
290
     0
  0
SCALE
  5
53
102
{ACAD_REACTORS
330
47
102
}
330
47
100
AcDbScale
 70
     0
300
1:100
140
1.0
141
100.0
290
     0
  0
SCALE
  5
54
102
{ACAD_REACTORS
330
47
102
}
330
47
100
AcDbScale
 70
     0
300
2:1
140
2.0
141
1.0
290
     0
  0
SCALE
  5
55
102
{ACAD_REACTORS
330
47
102
}
330
47
100
AcDbScale
 70
     0
300
4:1
140
4.0
141
1.0
290
     0
  0
SCALE
  5
56
102
{ACAD_REACTORS
330
47
102
}
330
47
100
AcDbScale
 70
     0
300
8:1
140
8.0
141
1.0
290
     0
  0
SCALE
  5
57
102
{ACAD_REACTORS
330
47
102
}
330
47
100
AcDbScale
 70
     0
300
10:1
140
10.0
141
1.0
290
     0
  0
SCALE
  5
58
102
{ACAD_REACTORS
330
47
102
}
330
47
100
AcDbScale
 70
     0
300
100:1
140
100.0
141
1.0
290
     0
  0
SCALE
  5
59
102
{ACAD_REACTORS
330
47
102
}
330
47
100
AcDbScale
 70
     0
300
1/128" = 1'-0"
140
0.0078125
141
12.0
290
     0
  0
SCALE
  5
5A
102
{ACAD_REACTORS
330
47
102
}
330
47
100
AcDbScale
 70
     0
300
1/64" = 1'-0"
140
0.015625
141
12.0
290
     0
  0
SCALE
  5
5B
102
{ACAD_REACTORS
330
47
102
}
330
47
100
AcDbScale
 70
     0
300
1/32" = 1'-0"
140
0.03125
141
12.0
290
     0
  0
SCALE
  5
5C
102
{ACAD_REACTORS
330
47
102
}
330
47
100
AcDbScale
 70
     0
300
1/16" = 1'-0"
140
0.0625
141
12.0
290
     0
  0
SCALE
  5
5D
102
{ACAD_REACTORS
330
47
102
}
330
47
100
AcDbScale
 70
     0
300
3/32" = 1'-0"
140
0.09375
141
12.0
290
     0
  0
SCALE
  5
5E
102
{ACAD_REACTORS
330
47
102
}
330
47
100
AcDbScale
 70
     0
300
1/8" = 1'-0"
140
0.125
141
12.0
290
     0
  0
SCALE
  5
5F
102
{ACAD_REACTORS
330
47
102
}
330
47
100
AcDbScale
 70
     0
300
3/16" = 1'-0"
140
0.1875
141
12.0
290
     0
  0
SCALE
  5
60
102
{ACAD_REACTORS
330
47
102
}
330
47
100
AcDbScale
 70
     0
300
1/4" = 1'-0"
140
0.25
141
12.0
290
     0
  0
SCALE
  5
61
102
{ACAD_REACTORS
330
47
102
}
330
47
100
AcDbScale
 70
     0
300
3/8" = 1'-0"
140
0.375
141
12.0
290
     0
  0
SCALE
  5
62
102
{ACAD_REACTORS
330
47
102
}
330
47
100
AcDbScale
 70
     0
300
1/2" = 1'-0"
140
0.5
141
12.0
290
     0
  0
SCALE
  5
63
102
{ACAD_REACTORS
330
47
102
}
330
47
100
AcDbScale
 70
     0
300
3/4" = 1'-0"
140
0.75
141
12.0
290
     0
  0
SCALE
  5
64
102
{ACAD_REACTORS
330
47
102
}
330
47
100
AcDbScale
 70
     0
300
1" = 1'-0"
140
1.0
141
12.0
290
     0
  0
SCALE
  5
65
102
{ACAD_REACTORS
330
47
102
}
330
47
100
AcDbScale
 70
     0
300
1-1/2" = 1'-0"
140
1.5
141
12.0
290
     0
  0
SCALE
  5
66
102
{ACAD_REACTORS
330
47
102
}
330
47
100
AcDbScale
 70
     0
300
3" = 1'-0"
140
3.0
141
12.0
290
     0
  0
SCALE
  5
67
102
{ACAD_REACTORS
330
47
102
}
330
47
100
AcDbScale
 70
     0
300
6" = 1'-0"
140
6.0
141
12.0
290
     0
  0
SCALE
  5
68
102
{ACAD_REACTORS
330
47
102
}
330
47
100
AcDbScale
 70
     0
300
1'-0" = 1'-0"
140
12.0
141
12.0
290
     0
  0
TABLESTYLE
  5
6A
102
{ACAD_REACTORS
330
69
102
}
102
{ACAD_XDICTIONARY
360
2DF
102
}
330
69
100
AcDbTableStyle
  3
Standard
 70
     0
 71
     0
 40
0.06
 41
0.06
280
     0
281
     0
  7
Standard
140
4.5
170
     2
 62
     0
 63
   257
283
     0
 90
        4
 91
        0
  1

274
    -2
284
     1
 64
     0
275
    -2
285
     1
 65
     0
276
    -2
286
     1
 66
     0
277
    -2
287
     1
 67
     0
278
    -2
288
     1
 68
     0
279
    -2
289
     1
 69
     0
  7
Standard
140
6.0
170
     5
 62
     0
 63
   257
283
     0
 90
        4
 91
        0
  1

274
    -2
284
     1
 64
     0
275
    -2
285
     1
 65
     0
276
    -2
286
     1
 66
     0
277
    -2
287
     1
 67
     0
278
    -2
288
     1
 68
     0
279
    -2
289
     1
 69
     0
  7
Standard
140
4.5
170
     5
 62
     0
 63
   257
283
     0
 90
        4
 91
        0
  1

274
    -2
284
     1
 64
     0
275
    -2
285
     1
 65
     0
276
    -2
286
     1
 66
     0
277
    -2
287
     1
 67
     0
278
    -2
288
     1
 68
     0
279
    -2
289
     1
 69
     0
  0
VISUALSTYLE
  5
2F
102
{ACAD_REACTORS
330
2A
102
}
330
2A
100
AcDbVisualStyle
  2
2dWireframe
 70
     4
177
     3
291
     0
 70
    58
 90
        0
176
     1
 90
        2
176
     1
 90
        0
176
     1
 90
        0
176
     1
 40
0.6
176
     1
 40
30.0
176
     1
 62
     7
420
 16777215
176
     1
 90
        1
176
     1
 90
        4
176
     1
 62
     7
176
     1
 62
   257
176
     1
 90
        1
176
     1
 90
        1
176
     1
 40
1.0
176
     1
 90
        0
176
     1
 62
   257
176
     1
 40
1.0
176
     1
 90
        1
176
     1
 90
        6
176
     1
 90
        2
176
     1
 62
     7
176
     1
 90
        5
176
     1
 90
        0
176
     1
 90
        0
176
     1
290
     0
176
     1
 90
        1
176
     1
 40
0.0
176
     1
 90
        0
176
     1
290
     1
176
     1
290
     1
176
     1
290
     0
176
     1
290
     0
176
     1
290
     0
176
     1
290
     0
176
     1
290
     0
176
     1
290
     0
176
     1
290
     0
176
     1
 90
       50
176
     1
 40
0.0
176
     1
 40
1.0
176
     1
 90
        0
176
     1
 62
    18
420
        0
176
     1
 90
       50
176
     1
 90
        3
176
     1
 62
     5
420
      255
176
     1
290
     0
176
     1
 90
       50
176
     1
 90
       50
176
     1
 90
       50
176
     1
290
     0
176
     1
 90
       50
176
     1
 62
   256
176
     0
 40
1.0
176
     0
 90
        2
176
     1
  1
strokes_ogs.tif
176
     1
290
     0
176
     1
 40
1.0
176
     1
 40
1.0
176
     1
  0
VISUALSTYLE
  5
32
102
{ACAD_REACTORS
330
2A
102
}
330
2A
100
AcDbVisualStyle
  2
Basic
 70
     7
177
     3
291
     1
 70
    58
 90
        1
176
     1
 90
        0
176
     1
 90
        1
176
     1
 90
        0
176
     1
 40
0.6
176
     1
 40
30.0
176
     1
 62
     7
420
 16777215
176
     1
 90
        0
176
     1
 90
        4
176
     1
 62
     7
176
     1
 62
   257
176
     1
 90
        1
176
     1
 90
        1
176
     1
 40
1.0
176
     1
 90
        8
176
     1
 62
     7
176
     1
 40
1.0
176
     1
 90
        1
176
     1
 90
        6
176
     1
 90
        2
176
     1
 62
     7
176
     1
 90
        5
176
     1
 90
        0
176
     1
 90
        0
176
     1
290
     0
176
     1
 90
        1
176
     1
 40
0.0
176
     1
 90
        0
176
     1
290
     0
176
     1
290
     1
176
     1
290
     1
176
     1
290
     0
176
     1
290
     0
176
     1
290
     0
176
     1
290
     0
176
     1
290
     0
176
     1
290
     0
176
     1
 90
       50
176
     1
 40
0.0
176
     1
 40
1.0
176
     1
 90
        0
176
     1
 62
    18
420
        0
176
     1
 90
       50
176
     1
 90
        3
176
     1
 62
     5
420
      255
176
     1
290
     0
176
     1
 90
       50
176
     1
 90
       50
176
     1
 90
       50
176
     1
290
     0
176
     1
 90
       50
176
     1
 62
   256
176
     0
 40
1.0
176
     0
 90
        2
176
     1
  1
strokes_ogs.tif
176
     1
290
     0
176
     1
 40
1.0
176
     1
 40
1.0
176
     1
  0
VISUALSTYLE
  5
36
102
{ACAD_REACTORS
330
2A
102
}
330
2A
100
AcDbVisualStyle
  2
Brighten
 70
    12
177
     3
291
     1
 70
    58
 90
        2
176
     1
 90
        2
176
     1
 90
        0
176
     1
 90
        0
176
     1
 40
0.6
176
     1
 40
30.0
176
     1
 62
     7
420
 16777215
176
     1
 90
        1
176
     1
 90
        4
176
     1
 62
     7
176
     1
 62
   257
176
     1
 90
        1
176
     1
 90
        1
176
     1
 40
1.0
176
     1
 90
        8
176
     1
 62
     7
176
     1
 40
1.0
176
     1
 90
        1
176
     1
 90
        6
176
     1
 90
        2
176
     1
 62
     7
176
     1
 90
        5
176
     1
 90
        0
176
     1
 90
        0
176
     1
290
     0
176
     1
 90
        1
176
     1
 40
50.0
176
     1
 90
        0
176
     1
290
     0
176
     1
290
     1
176
     1
290
     1
176
     1
290
     0
176
     1
290
     0
176
     1
290
     0
176
     1
290
     0
176
     1
290
     0
176
     1
290
     0
176
     1
 90
       50
176
     1
 40
0.0
176
     1
 40
1.0
176
     1
 90
        0
176
     1
 62
    18
420
        0
176
     1
 90
       50
176
     1
 90
        3
176
     1
 62
     5
420
      255
176
     1
290
     0
176
     1
 90
       50
176
     1
 90
       50
176
     1
 90
       50
176
     1
290
     0
176
     1
 90
       50
176
     1
 62
   256
176
     0
 40
1.0
176
     0
 90
        2
176
     1
  1
strokes_ogs.tif
176
     1
290
     0
176
     1
 40
1.0
176
     1
 40
1.0
176
     1
  0
VISUALSTYLE
  5
3A
102
{ACAD_REACTORS
330
2A
102
}
330
2A
100
AcDbVisualStyle
  2
ColorChange
 70
    16
177
     3
291
     1
 70
    58
 90
        2
176
     1
 90
        2
176
     1
 90
        3
176
     1
 90
        0
176
     1
 40
0.6
176
     1
 40
30.0
176
     1
 62
     8
420
  8421504
176
     1
 90
        1
176
     1
 90
        4
176
     1
 62
     7
176
     1
 62
   257
176
     1
 90
        1
176
     1
 90
        1
176
     1
 40
1.0
176
     1
 90
        8
176
     1
 62
     8
420
  8421504
176
     1
 40
1.0
176
     1
 90
        1
176
     1
 90
        6
176
     1
 90
        2
176
     1
 62
     7
176
     1
 90
        5
176
     1
 90
        0
176
     1
 90
        0
176
     1
290
     0
176
     1
 90
        1
176
     1
 40
0.0
176
     1
 90
        0
176
     1
290
     0
176
     1
290
     1
176
     1
290
     1
176
     1
290
     0
176
     1
290
     0
176
     1
290
     0
176
     1
290
     0
176
     1
290
     0
176
     1
290
     0
176
     1
 90
       50
176
     1
 40
0.0
176
     1
 40
1.0
176
     1
 90
        0
176
     1
 62
    18
420
        0
176
     1
 90
       50
176
     1
 90
        3
176
     1
 62
     5
420
      255
176
     1
290
     0
176
     1
 90
       50
176
     1
 90
       50
176
     1
 90
       50
176
     1
290
     0
176
     1
 90
       50
176
     1
 62
   256
176
     0
 40
1.0
176
     0
 90
        2
176
     1
  1
strokes_ogs.tif
176
     1
290
     0
176
     1
 40
1.0
176
     1
 40
1.0
176
     1
  0
VISUALSTYLE
  5
34
102
{ACAD_REACTORS
330
2A
102
}
330
2A
100
AcDbVisualStyle
  2
Conceptual
 70
     9
177
     3
291
     0
 70
    58
 90
        3
176
     1
 90
        2
176
     1
 90
        0
176
     1
 90
        0
176
     1
 40
0.6
176
     1
 40
30.0
176
     1
 62
     7
420
 16777215
176
     1
 90
        2
176
     1
 90
        2
176
     1
 62
     7
176
     1
 62
   257
176
     1
 90
        1
176
     1
 90
        1
176
     1
 40
179.0
176
     1
 90
        8
176
     1
 62
     7
176
     1
 40
1.0
176
     1
 90
        1
176
     1
 90
        6
176
     1
 90
        2
176
     1
 62
     7
176
     1
 90
        3
176
     1
 90
        0
176
     1
 90
        0
176
     1
290
     0
176
     1
 90
        1
176
     1
 40
0.0
176
     1
 90
        0
176
     1
290
     0
176
     1
290
     1
176
     1
290
     1
176
     1
290
     0
176
     1
290
     0
176
     1
290
     0
176
     1
290
     0
176
     1
290
     0
176
     1
290
     0
176
     1
 90
       50
176
     1
 40
0.0
176
     1
 40
1.0
176
     1
 90
        0
176
     1
 62
    18
420
        0
176
     1
 90
       50
176
     1
 90
        3
176
     1
 62
     5
420
      255
176
     1
290
     0
176
     1
 90
       50
176
     1
 90
       50
176
     1
 90
       50
176
     1
290
     0
176
     1
 90
       50
176
     1
 62
   256
176
     0
 40
1.0
176
     0
 90
        2
176
     1
  1
strokes_ogs.tif
176
     1
290
     0
176
     1
 40
1.0
176
     1
 40
1.0
176
     1
  0
VISUALSTYLE
  5
35
102
{ACAD_REACTORS
330
2A
102
}
330
2A
100
AcDbVisualStyle
  2
Dim
 70
    11
177
     3
291
     1
 70
    58
 90
        2
176
     1
 90
        2
176
     1
 90
        0
176
     1
 90
        0
176
     1
 40
0.6
176
     1
 40
30.0
176
     1
 62
     7
420
 16777215
176
     1
 90
        1
176
     1
 90
        4
176
     1
 62
     7
176
     1
 62
   257
176
     1
 90
        1
176
     1
 90
        1
176
     1
 40
1.0
176
     1
 90
        8
176
     1
 62
     7
176
     1
 40
1.0
176
     1
 90
        1
176
     1
 90
        6
176
     1
 90
        2
176
     1
 62
     7
176
     1
 90
        5
176
     1
 90
        0
176
     1
 90
        0
176
     1
290
     0
176
     1
 90
        1
176
     1
 40
-50.0
176
     1
 90
        0
176
     1
290
     0
176
     1
290
     1
176
     1
290
     1
176
     1
290
     0
176
     1
290
     0
176
     1
290
     0
176
     1
290
     0
176
     1
290
     0
176
     1
290
     0
176
     1
 90
       50
176
     1
 40
0.0
176
     1
 40
1.0
176
     1
 90
        0
176
     1
 62
    18
420
        0
176
     1
 90
       50
176
     1
 90
        3
176
     1
 62
     5
420
      255
176
     1
290
     0
176
     1
 90
       50
176
     1
 90
       50
176
     1
 90
       50
176
     1
290
     0
176
     1
 90
       50
176
     1
 62
   256
176
     0
 40
1.0
176
     0
 90
        2
176
     1
  1
strokes_ogs.tif
176
     1
290
     0
176
     1
 40
1.0
176
     1
 40
1.0
176
     1
  0
VISUALSTYLE
  5
3D
102
{ACAD_REACTORS
330
2A
102
}
330
2A
100
AcDbVisualStyle
  2
EdgeColorOff
 70
    22
177
     3
291
     1
 70
    58
 90
        2
176
     0
 90
        2
176
     0
 90
        0
176
     0
 90
        0
176
     0
 40
0.6
176
     0
 40
30.0
176
     0
 62
     7
420
 16777215
176
     0
 90
        1
176
     0
 90
        4
176
     0
 62
     7
176
     0
 62
   257
176
     0
 90
        1
176
     0
 90
        1
176
     0
 40
1.0
176
     0
 90
        8
176
     2
 62
     7
176
     0
 40
1.0
176
     0
 90
        1
176
     0
 90
        6
176
     0
 90
        2
176
     0
 62
     7
176
     0
 90
        5
176
     0
 90
        0
176
     0
 90
        0
176
     0
290
     0
176
     0
 90
        1
176
     0
 40
0.0
176
     0
 90
        0
176
     0
290
     0
176
     0
290
     1
176
     0
290
     1
176
     0
290
     0
176
     0
290
     0
176
     0
290
     0
176
     0
290
     0
176
     0
290
     0
176
     0
290
     0
176
     0
 90
       50
176
     0
 40
0.0
176
     0
 40
1.0
176
     0
 90
        0
176
     0
 62
    18
420
        0
176
     0
 90
       50
176
     0
 90
        3
176
     0
 62
     5
420
      255
176
     0
290
     0
176
     0
 90
       50
176
     0
 90
       50
176
     0
 90
       50
176
     0
290
     0
176
     0
 90
       50
176
     0
 62
   256
176
     0
 40
1.0
176
     0
 90
        2
176
     0
  1
strokes_ogs.tif
176
     0
290
     0
176
     0
 40
1.0
176
     0
 40
1.0
176
     0
  0
VISUALSTYLE
  5
39
102
{ACAD_REACTORS
330
2A
102
}
330
2A
100
AcDbVisualStyle
  2
Facepattern
 70
    15
177
     3
291
     1
 70
    58
 90
        2
176
     1
 90
        2
176
     1
 90
        0
176
     1
 90
        0
176
     1
 40
0.6
176
     1
 40
30.0
176
     1
 62
     7
420
 16777215
176
     1
 90
        1
176
     1
 90
        4
176
     1
 62
     7
176
     1
 62
   257
176
     1
 90
        1
176
     1
 90
        1
176
     1
 40
1.0
176
     1
 90
        8
176
     1
 62
     7
176
     1
 40
1.0
176
     1
 90
        1
176
     1
 90
        6
176
     1
 90
        2
176
     1
 62
     7
176
     1
 90
        5
176
     1
 90
        0
176
     1
 90
        0
176
     1
290
     0
176
     1
 90
        1
176
     1
 40
0.0
176
     1
 90
        0
176
     1
290
     0
176
     1
290
     1
176
     1
290
     1
176
     1
290
     0
176
     1
290
     0
176
     1
290
     0
176
     1
290
     0
176
     1
290
     0
176
     1
290
     0
176
     1
 90
       50
176
     1
 40
0.0
176
     1
 40
1.0
176
     1
 90
        0
176
     1
 62
    18
420
        0
176
     1
 90
       50
176
     1
 90
        3
176
     1
 62
     5
420
      255
176
     1
290
     0
176
     1
 90
       50
176
     1
 90
       50
176
     1
 90
       50
176
     1
290
     0
176
     1
 90
       50
176
     1
 62
   256
176
     0
 40
1.0
176
     0
 90
        2
176
     1
  1
strokes_ogs.tif
176
     1
290
     0
176
     1
 40
1.0
176
     1
 40
1.0
176
     1
  0
VISUALSTYLE
  5
2B
102
{ACAD_REACTORS
330
2A
102
}
330
2A
100
AcDbVisualStyle
  2
Flat
 70
     0
177
     3
291
     1
 70
    58
 90
        2
176
     1
 90
        1
176
     1
 90
        1
176
     1
 90
        2
176
     1
 40
0.6
176
     1
 40
30.0
176
     1
 62
     7
420
 16777215
176
     1
 90
        0
176
     1
 90
        0
176
     1
 62
     7
176
     1
 62
   257
176
     1
 90
        1
176
     1
 90
        1
176
     1
 40
1.0
176
     1
 90
        8
176
     1
 62
     7
176
     1
 40
1.0
176
     1
 90
        1
176
     1
 90
        6
176
     1
 90
        2
176
     1
 62
     7
176
     1
 90
        5
176
     1
 90
        0
176
     1
 90
        0
176
     1
290
     0
176
     1
 90
       13
176
     1
 40
0.0
176
     1
 90
        0
176
     1
290
     0
176
     1
290
     1
176
     1
290
     1
176
     1
290
     0
176
     1
290
     0
176
     1
290
     0
176
     1
290
     0
176
     1
290
     0
176
     1
290
     0
176
     1
 90
       50
176
     1
 40
0.0
176
     1
 40
1.0
176
     1
 90
        0
176
     1
 62
    18
420
        0
176
     1
 90
       50
176
     1
 90
        3
176
     1
 62
     5
420
      255
176
     1
290
     0
176
     1
 90
       50
176
     1
 90
       50
176
     1
 90
       50
176
     1
290
     0
176
     1
 90
       50
176
     1
 62
   256
176
     0
 40
1.0
176
     0
 90
        2
176
     1
  1
strokes_ogs.tif
176
     1
290
     0
176
     1
 40
1.0
176
     1
 40
1.0
176
     1
  0
VISUALSTYLE
  5
2C
102
{ACAD_REACTORS
330
2A
102
}
330
2A
100
AcDbVisualStyle
  2
FlatWithEdges
 70
     1
177
     3
291
     1
 70
    58
 90
        2
176
     1
 90
        1
176
     1
 90
        1
176
     1
 90
        2
176
     1
 40
0.6
176
     1
 40
30.0
176
     1
 62
     7
420
 16777215
176
     1
 90
        1
176
     1
 90
        0
176
     1
 62
     7
176
     1
 62
   257
176
     1
 90
        1
176
     1
 90
        1
176
     1
 40
1.0
176
     1
 90
        0
176
     1
 62
   257
176
     1
 40
1.0
176
     1
 90
        1
176
     1
 90
        6
176
     1
 90
        2
176
     1
 62
     7
176
     1
 90
        5
176
     1
 90
        0
176
     1
 90
        0
176
     1
290
     0
176
     1
 90
       13
176
     1
 40
0.0
176
     1
 90
        0
176
     1
290
     0
176
     1
290
     1
176
     1
290
     1
176
     1
290
     0
176
     1
290
     0
176
     1
290
     0
176
     1
290
     0
176
     1
290
     0
176
     1
290
     0
176
     1
 90
       50
176
     1
 40
0.0
176
     1
 40
1.0
176
     1
 90
        0
176
     1
 62
    18
420
        0
176
     1
 90
       50
176
     1
 90
        3
176
     1
 62
     5
420
      255
176
     1
290
     0
176
     1
 90
       50
176
     1
 90
       50
176
     1
 90
       50
176
     1
290
     0
176
     1
 90
       50
176
     1
 62
   256
176
     0
 40
1.0
176
     0
 90
        2
176
     1
  1
strokes_ogs.tif
176
     1
290
     0
176
     1
 40
1.0
176
     1
 40
1.0
176
     1
  0
VISUALSTYLE
  5
2D
102
{ACAD_REACTORS
330
2A
102
}
330
2A
100
AcDbVisualStyle
  2
Gouraud
 70
     2
177
     3
291
     1
 70
    58
 90
        2
176
     1
 90
        2
176
     1
 90
        1
176
     1
 90
        2
176
     1
 40
0.6
176
     1
 40
30.0
176
     1
 62
     7
420
 16777215
176
     1
 90
        0
176
     1
 90
        0
176
     1
 62
     7
176
     1
 62
   257
176
     1
 90
        1
176
     1
 90
        1
176
     1
 40
1.0
176
     1
 90
        0
176
     1
 62
     7
176
     1
 40
1.0
176
     1
 90
        1
176
     1
 90
        6
176
     1
 90
        2
176
     1
 62
     7
176
     1
 90
        5
176
     1
 90
        0
176
     1
 90
        0
176
     1
290
     0
176
     1
 90
       13
176
     1
 40
0.0
176
     1
 90
        0
176
     1
290
     0
176
     1
290
     1
176
     1
290
     1
176
     1
290
     0
176
     1
290
     0
176
     1
290
     0
176
     1
290
     0
176
     1
290
     0
176
     1
290
     0
176
     1
 90
       50
176
     1
 40
0.0
176
     1
 40
1.0
176
     1
 90
        0
176
     1
 62
    18
420
        0
176
     1
 90
       50
176
     1
 90
        3
176
     1
 62
     5
420
      255
176
     1
290
     0
176
     1
 90
       50
176
     1
 90
       50
176
     1
 90
       50
176
     1
290
     0
176
     1
 90
       50
176
     1
 62
   256
176
     0
 40
1.0
176
     0
 90
        2
176
     1
  1
strokes_ogs.tif
176
     1
290
     0
176
     1
 40
1.0
176
     1
 40
1.0
176
     1
  0
VISUALSTYLE
  5
2E
102
{ACAD_REACTORS
330
2A
102
}
330
2A
100
AcDbVisualStyle
  2
GouraudWithEdges
 70
     3
177
     3
291
     1
 70
    58
 90
        2
176
     1
 90
        2
176
     1
 90
        1
176
     1
 90
        2
176
     1
 40
0.6
176
     1
 40
30.0
176
     1
 62
     7
420
 16777215
176
     1
 90
        1
176
     1
 90
        0
176
     1
 62
     7
176
     1
 62
   257
176
     1
 90
        1
176
     1
 90
        1
176
     1
 40
1.0
176
     1
 90
        0
176
     1
 62
   257
176
     1
 40
1.0
176
     1
 90
        1
176
     1
 90
        6
176
     1
 90
        2
176
     1
 62
     7
176
     1
 90
        5
176
     1
 90
        0
176
     1
 90
        0
176
     1
290
     0
176
     1
 90
       13
176
     1
 40
0.0
176
     1
 90
        0
176
     1
290
     0
176
     1
290
     1
176
     1
290
     1
176
     1
290
     0
176
     1
290
     0
176
     1
290
     0
176
     1
290
     0
176
     1
290
     0
176
     1
290
     0
176
     1
 90
       50
176
     1
 40
0.0
176
     1
 40
1.0
176
     1
 90
        0
176
     1
 62
    18
420
        0
176
     1
 90
       50
176
     1
 90
        3
176
     1
 62
     5
420
      255
176
     1
290
     0
176
     1
 90
       50
176
     1
 90
       50
176
     1
 90
       50
176
     1
290
     0
176
     1
 90
       50
176
     1
 62
   256
176
     0
 40
1.0
176
     0
 90
        2
176
     1
  1
strokes_ogs.tif
176
     1
290
     0
176
     1
 40
1.0
176
     1
 40
1.0
176
     1
  0
VISUALSTYLE
  5
31
102
{ACAD_REACTORS
330
2A
102
}
330
2A
100
AcDbVisualStyle
  2
Hidden
 70
     6
177
     3
291
     0
 70
    58
 90
        1
176
     1
 90
        2
176
     1
 90
        2
176
     1
 90
        0
176
     1
 40
0.6
176
     1
 40
30.0
176
     1
 62
     7
420
 16777215
176
     1
 90
        2
176
     1
 90
        2
176
     1
 62
     7
176
     1
 62
   257
176
     1
 90
        2
176
     1
 90
        1
176
     1
 40
40.0
176
     1
 90
        0
176
     1
 62
   257
176
     1
 40
1.0
176
     1
 90
        1
176
     1
 90
        6
176
     1
 90
        2
176
     1
 62
     7
176
     1
 90
        3
176
     1
 90
        0
176
     1
 90
        0
176
     1
290
     0
176
     1
 90
        1
176
     1
 40
0.0
176
     1
 90
        0
176
     1
290
     0
176
     1
290
     1
176
     1
290
     1
176
     1
290
     0
176
     1
290
     0
176
     1
290
     0
176
     1
290
     0
176
     1
290
     0
176
     1
290
     0
176
     1
 90
       50
176
     1
 40
0.0
176
     1
 40
1.0
176
     1
 90
        0
176
     1
 62
    18
420
        0
176
     1
 90
       50
176
     1
 90
        3
176
     1
 62
     5
420
      255
176
     1
290
     0
176
     1
 90
       50
176
     1
 90
       50
176
     1
 90
       50
176
     1
290
     0
176
     1
 90
       50
176
     1
 62
   256
176
     0
 40
1.0
176
     0
 90
        2
176
     1
  1
strokes_ogs.tif
176
     1
290
     0
176
     1
 40
1.0
176
     1
 40
1.0
176
     1
  0
VISUALSTYLE
  5
3B
102
{ACAD_REACTORS
330
2A
102
}
330
2A
100
AcDbVisualStyle
  2
JitterOff
 70
    20
177
     3
291
     1
 70
    58
 90
        2
176
     0
 90
        2
176
     0
 90
        0
176
     0
 90
        0
176
     0
 40
0.6
176
     0
 40
30.0
176
     0
 62
     7
420
 16777215
176
     0
 90
        1
176
     0
 90
        4
176
     0
 62
     7
176
     0
 62
   257
176
     0
 90
        1
176
     0
 90
        1
176
     0
 40
1.0
176
     0
 90
       10
176
     2
 62
     7
176
     0
 40
1.0
176
     0
 90
        1
176
     0
 90
        6
176
     0
 90
        2
176
     0
 62
     7
176
     0
 90
        5
176
     0
 90
        0
176
     0
 90
        0
176
     0
290
     0
176
     0
 90
        1
176
     0
 40
0.0
176
     0
 90
        0
176
     0
290
     0
176
     0
290
     1
176
     0
290
     1
176
     0
290
     0
176
     0
290
     0
176
     0
290
     0
176
     0
290
     0
176
     0
290
     0
176
     0
290
     0
176
     0
 90
       50
176
     0
 40
0.0
176
     0
 40
1.0
176
     0
 90
        0
176
     0
 62
    18
420
        0
176
     0
 90
       50
176
     0
 90
        3
176
     0
 62
     5
420
      255
176
     0
290
     0
176
     0
 90
       50
176
     0
 90
       50
176
     0
 90
       50
176
     0
290
     0
176
     0
 90
       50
176
     0
 62
   256
176
     0
 40
1.0
176
     0
 90
        2
176
     0
  1
strokes_ogs.tif
176
     0
290
     0
176
     0
 40
1.0
176
     0
 40
1.0
176
     0
  0
VISUALSTYLE
  5
38
102
{ACAD_REACTORS
330
2A
102
}
330
2A
100
AcDbVisualStyle
  2
Linepattern
 70
    14
177
     3
291
     1
 70
    58
 90
        2
176
     1
 90
        2
176
     1
 90
        0
176
     1
 90
        0
176
     1
 40
0.6
176
     1
 40
30.0
176
     1
 62
     7
420
 16777215
176
     1
 90
        1
176
     1
 90
        4
176
     1
 62
     7
176
     1
 62
   257
176
     1
 90
        7
176
     1
 90
        7
176
     1
 40
1.0
176
     1
 90
        8
176
     1
 62
     7
176
     1
 40
1.0
176
     1
 90
        1
176
     1
 90
        6
176
     1
 90
        2
176
     1
 62
     7
176
     1
 90
        5
176
     1
 90
        0
176
     1
 90
        0
176
     1
290
     0
176
     1
 90
        1
176
     1
 40
0.0
176
     1
 90
        0
176
     1
290
     0
176
     1
290
     1
176
     1
290
     1
176
     1
290
     0
176
     1
290
     0
176
     1
290
     0
176
     1
290
     0
176
     1
290
     0
176
     1
290
     0
176
     1
 90
       50
176
     1
 40
0.0
176
     1
 40
1.0
176
     1
 90
        0
176
     1
 62
    18
420
        0
176
     1
 90
       50
176
     1
 90
        3
176
     1
 62
     5
420
      255
176
     1
290
     0
176
     1
 90
       50
176
     1
 90
       50
176
     1
 90
       50
176
     1
290
     0
176
     1
 90
       50
176
     1
 62
   256
176
     0
 40
1.0
176
     0
 90
        2
176
     1
  1
strokes_ogs.tif
176
     1
290
     0
176
     1
 40
1.0
176
     1
 40
1.0
176
     1
  0
VISUALSTYLE
  5
3C
102
{ACAD_REACTORS
330
2A
102
}
330
2A
100
AcDbVisualStyle
  2
OverhangOff
 70
    21
177
     3
291
     1
 70
    58
 90
        2
176
     0
 90
        2
176
     0
 90
        0
176
     0
 90
        0
176
     0
 40
0.6
176
     0
 40
30.0
176
     0
 62
     7
420
 16777215
176
     0
 90
        1
176
     0
 90
        4
176
     0
 62
     7
176
     0
 62
   257
176
     0
 90
        1
176
     0
 90
        1
176
     0
 40
1.0
176
     0
 90
        9
176
     2
 62
     7
176
     0
 40
1.0
176
     0
 90
        1
176
     0
 90
        6
176
     0
 90
        2
176
     0
 62
     7
176
     0
 90
        5
176
     0
 90
        0
176
     0
 90
        0
176
     0
290
     0
176
     0
 90
        1
176
     0
 40
0.0
176
     0
 90
        0
176
     0
290
     0
176
     0
290
     1
176
     0
290
     1
176
     0
290
     0
176
     0
290
     0
176
     0
290
     0
176
     0
290
     0
176
     0
290
     0
176
     0
290
     0
176
     0
 90
       50
176
     0
 40
0.0
176
     0
 40
1.0
176
     0
 90
        0
176
     0
 62
    18
420
        0
176
     0
 90
       50
176
     0
 90
        3
176
     0
 62
     5
420
      255
176
     0
290
     0
176
     0
 90
       50
176
     0
 90
       50
176
     0
 90
       50
176
     0
290
     0
176
     0
 90
       50
176
     0
 62
   256
176
     0
 40
1.0
176
     0
 90
        2
176
     0
  1
strokes_ogs.tif
176
     0
290
     0
176
     0
 40
1.0
176
     0
 40
1.0
176
     0
  0
VISUALSTYLE
  5
33
102
{ACAD_REACTORS
330
2A
102
}
330
2A
100
AcDbVisualStyle
  2
Realistic
 70
     8
177
     3
291
     0
 70
    58
 90
        2
176
     1
 90
        3
176
     1
 90
        0
176
     1
 90
        2
176
     1
 40
0.6
176
     1
 40
30.0
176
     1
 62
     7
420
 16777215
176
     1
 90
        0
176
     1
 90
        0
176
     1
 62
     7
176
     1
 62
   257
176
     1
 90
        1
176
     1
 90
        1
176
     1
 40
1.0
176
     1
 90
        8
176
     1
 62
   257
176
     1
 40
1.0
176
     1
 90
        1
176
     1
 90
        6
176
     1
 90
        2
176
     1
 62
     7
176
     1
 90
        3
176
     1
 90
        0
176
     1
 90
        0
176
     1
290
     0
176
     1
 90
       13
176
     1
 40
0.0
176
     1
 90
        0
176
     1
290
     0
176
     1
290
     1
176
     1
290
     1
176
     1
290
     0
176
     1
290
     0
176
     1
290
     0
176
     1
290
     0
176
     1
290
     0
176
     1
290
     0
176
     1
 90
       50
176
     1
 40
0.0
176
     1
 40
1.0
176
     1
 90
        0
176
     1
 62
    18
420
        0
176
     1
 90
       50
176
     1
 90
        3
176
     1
 62
     5
420
      255
176
     1
290
     0
176
     1
 90
       50
176
     1
 90
       50
176
     1
 90
       50
176
     1
290
     0
176
     1
 90
       50
176
     1
 62
   256
176
     0
 40
1.0
176
     0
 90
        2
176
     1
  1
strokes_ogs.tif
176
     1
290
     0
176
     1
 40
1.0
176
     1
 40
1.0
176
     1
  0
VISUALSTYLE
  5
42
102
{ACAD_REACTORS
330
2A
102
}
330
2A
100
AcDbVisualStyle
  2
Shaded
 70
    27
177
     3
291
     0
 70
    58
 90
        2
176
     1
 90
        2
176
     1
 90
        1
176
     1
 90
        2
176
     1
 40
0.6
176
     1
 40
30.0
176
     1
 62
     7
420
 16777215
176
     1
 90
        0
176
     1
 90
        4
176
     1
 62
     7
176
     1
 62
   257
176
     1
 90
        1
176
     1
 90
        1
176
     1
 40
1.0
176
     1
 90
        8
176
     1
 62
   257
176
     1
 40
1.0
176
     1
 90
        1
176
     1
 90
        6
176
     1
 90
        2
176
     1
 62
     8
420
  7895160
176
     1
 90
        3
176
     1
 90
        0
176
     1
 90
        0
176
     1
290
     0
176
     1
 90
        5
176
     1
 40
0.0
176
     1
 90
        0
176
     1
290
     0
176
     1
290
     1
176
     1
290
     1
176
     1
290
     0
176
     1
290
     0
176
     1
290
     0
176
     1
290
     0
176
     1
290
     0
176
     1
290
     0
176
     1
 90
       50
176
     1
 40
0.0
176
     1
 40
1.0
176
     1
 90
        0
176
     1
 62
    18
420
        0
176
     1
 90
       50
176
     1
 90
        3
176
     1
 62
     5
420
      255
176
     1
290
     0
176
     1
 90
       50
176
     1
 90
       50
176
     1
 90
       50
176
     1
290
     0
176
     1
 90
       50
176
     1
 62
   256
176
     0
 40
1.0
176
     0
 90
        2
176
     1
  1
strokes_ogs.tif
176
     1
290
     0
176
     1
 40
1.0
176
     1
 40
1.0
176
     1
  0
VISUALSTYLE
  5
41
102
{ACAD_REACTORS
330
2A
102
}
330
2A
100
AcDbVisualStyle
  2
Shaded with edges
 70
    26
177
     3
291
     0
 70
    58
 90
        2
176
     1
 90
        2
176
     1
 90
        1
176
     1
 90
        2
176
     1
 40
0.6
176
     1
 40
30.0
176
     1
 62
     7
420
 16777215
176
     1
 90
        1
176
     1
 90
       10
176
     1
 62
     7
176
     1
 62
   257
176
     1
 90
        2
176
     1
 90
        1
176
     1
 40
1.0
176
     1
 90
        8
176
     1
 62
   257
176
     1
 40
1.0
176
     1
 90
        1
176
     1
 90
        6
176
     1
 90
        2
176
     1
 62
     7
176
     1
 90
        3
176
     1
 90
        0
176
     1
 90
        0
176
     1
290
     0
176
     1
 90
        5
176
     1
 40
0.0
176
     1
 90
        0
176
     1
290
     0
176
     1
290
     1
176
     1
290
     1
176
     1
290
     0
176
     1
290
     0
176
     1
290
     0
176
     1
290
     0
176
     1
290
     0
176
     1
290
     0
176
     1
 90
       50
176
     1
 40
0.0
176
     1
 40
1.0
176
     1
 90
        0
176
     1
 62
    18
420
        0
176
     1
 90
       50
176
     1
 90
        3
176
     1
 62
     5
420
      255
176
     1
290
     0
176
     1
 90
       50
176
     1
 90
       50
176
     1
 90
       50
176
     1
290
     0
176
     1
 90
       50
176
     1
 62
   256
176
     0
 40
1.0
176
     0
 90
        2
176
     1
  1
strokes_ogs.tif
176
     1
290
     0
176
     1
 40
1.0
176
     1
 40
1.0
176
     1
  0
VISUALSTYLE
  5
3E
102
{ACAD_REACTORS
330
2A
102
}
330
2A
100
AcDbVisualStyle
  2
Shades of Gray
 70
    23
177
     3
291
     0
 70
    58
 90
        2
176
     1
 90
        2
176
     1
 90
        3
176
     1
 90
        0
176
     1
 40
0.6
176
     1
 40
30.0
176
     1
 62
     7
420
 16777215
176
     1
 90
        2
176
     1
 90
        2
176
     1
 62
     7
176
     1
 62
     7
176
     1
 90
        1
176
     1
 90
        1
176
     1
 40
40.0
176
     1
 90
        8
176
     1
 62
     7
176
     1
 40
1.0
176
     1
 90
        1
176
     1
 90
        6
176
     1
 90
        2
176
     1
 62
     7
176
     1
 90
        3
176
     1
 90
        0
176
     1
 90
        0
176
     1
290
     0
176
     1
 90
        1
176
     1
 40
0.0
176
     1
 90
        0
176
     1
290
     0
176
     1
290
     1
176
     1
290
     1
176
     1
290
     0
176
     1
290
     0
176
     1
290
     0
176
     1
290
     0
176
     1
290
     0
176
     1
290
     0
176
     1
 90
       50
176
     1
 40
0.0
176
     1
 40
1.0
176
     1
 90
        0
176
     1
 62
    18
420
        0
176
     1
 90
       50
176
     1
 90
        3
176
     1
 62
     5
420
      255
176
     1
290
     0
176
     1
 90
       50
176
     1
 90
       50
176
     1
 90
       50
176
     1
290
     0
176
     1
 90
       50
176
     1
 62
   256
176
     0
 40
1.0
176
     0
 90
        2
176
     1
  1
strokes_ogs.tif
176
     1
290
     0
176
     1
 40
1.0
176
     1
 40
1.0
176
     1
  0
VISUALSTYLE
  5
3F
102
{ACAD_REACTORS
330
2A
102
}
330
2A
100
AcDbVisualStyle
  2
Sketchy
 70
    24
177
     3
291
     0
 70
    58
 90
        1
176
     1
 90
        2
176
     1
 90
        2
176
     1
 90
        0
176
     1
 40
0.6
176
     1
 40
30.0
176
     1
 62
     7
420
 16777215
176
     1
 90
        2
176
     1
 90
        2
176
     1
 62
     7
176
     1
 62
     7
176
     1
 90
        1
176
     1
 90
        1
176
     1
 40
40.0
176
     1
 90
       11
176
     1
 62
     7
176
     1
 40
1.0
176
     1
 90
        1
176
     1
 90
        6
176
     1
 90
        2
176
     1
 62
     7
176
     1
 90
        6
176
     1
 90
        0
176
     1
 90
        0
176
     1
290
     0
176
     1
 90
        1
176
     1
 40
0.0
176
     1
 90
        0
176
     1
290
     0
176
     1
290
     1
176
     1
290
     1
176
     1
290
     0
176
     1
290
     0
176
     1
290
     0
176
     1
290
     0
176
     1
290
     0
176
     1
290
     0
176
     1
 90
       50
176
     1
 40
0.0
176
     1
 40
1.0
176
     1
 90
        0
176
     1
 62
    18
420
        0
176
     1
 90
       50
176
     1
 90
        3
176
     1
 62
     5
420
      255
176
     1
290
     0
176
     1
 90
       50
176
     1
 90
       50
176
     1
 90
       50
176
     1
290
     0
176
     1
 90
       50
176
     1
 62
   256
176
     0
 40
1.0
176
     0
 90
        2
176
     1
  1
strokes_ogs.tif
176
     1
290
     0
176
     1
 40
1.0
176
     1
 40
1.0
176
     1
  0
VISUALSTYLE
  5
37
102
{ACAD_REACTORS
330
2A
102
}
330
2A
100
AcDbVisualStyle
  2
Thicken
 70
    13
177
     3
291
     1
 70
    58
 90
        2
176
     1
 90
        2
176
     1
 90
        0
176
     1
 90
        0
176
     1
 40
0.6
176
     1
 40
30.0
176
     1
 62
     7
420
 16777215
176
     1
 90
        1
176
     1
 90
        4
176
     1
 62
     7
176
     1
 62
   257
176
     1
 90
        1
176
     1
 90
        1
176
     1
 40
1.0
176
     1
 90
       12
176
     1
 62
     7
176
     1
 40
1.0
176
     1
 90
        1
176
     1
 90
        6
176
     1
 90
        2
176
     1
 62
     7
176
     1
 90
        5
176
     1
 90
        0
176
     1
 90
        0
176
     1
290
     0
176
     1
 90
        1
176
     1
 40
0.0
176
     1
 90
        0
176
     1
290
     0
176
     1
290
     1
176
     1
290
     1
176
     1
290
     0
176
     1
290
     0
176
     1
290
     0
176
     1
290
     0
176
     1
290
     0
176
     1
290
     0
176
     1
 90
       50
176
     1
 40
0.0
176
     1
 40
1.0
176
     1
 90
        0
176
     1
 62
    18
420
        0
176
     1
 90
       50
176
     1
 90
        3
176
     1
 62
     5
420
      255
176
     1
290
     0
176
     1
 90
       50
176
     1
 90
       50
176
     1
 90
       50
176
     1
290
     0
176
     1
 90
       50
176
     1
 62
   256
176
     0
 40
1.0
176
     0
 90
        2
176
     1
  1
strokes_ogs.tif
176
     1
290
     0
176
     1
 40
1.0
176
     1
 40
1.0
176
     1
  0
VISUALSTYLE
  5
30
102
{ACAD_REACTORS
330
2A
102
}
330
2A
100
AcDbVisualStyle
  2
Wireframe
 70
     5
177
     3
291
     0
 70
    58
 90
        0
176
     1
 90
        2
176
     1
 90
        0
176
     1
 90
        0
176
     1
 40
0.6
176
     1
 40
30.0
176
     1
 62
     7
420
 16777215
176
     1
 90
        1
176
     1
 90
        4
176
     1
 62
     7
176
     1
 62
   257
176
     1
 90
        1
176
     1
 90
        1
176
     1
 40
1.0
176
     1
 90
        0
176
     1
 62
   257
176
     1
 40
1.0
176
     1
 90
        1
176
     1
 90
        6
176
     1
 90
        2
176
     1
 62
     7
176
     1
 90
        3
176
     1
 90
        0
176
     1
 90
        0
176
     1
290
     0
176
     1
 90
        1
176
     1
 40
0.0
176
     1
 90
        0
176
     1
290
     0
176
     1
290
     1
176
     1
290
     1
176
     1
290
     0
176
     1
290
     0
176
     1
290
     0
176
     1
290
     0
176
     1
290
     0
176
     1
290
     0
176
     1
 90
       50
176
     1
 40
0.0
176
     1
 40
1.0
176
     1
 90
        0
176
     1
 62
    18
420
        0
176
     1
 90
       50
176
     1
 90
        3
176
     1
 62
     5
420
      255
176
     1
290
     0
176
     1
 90
       50
176
     1
 90
       50
176
     1
 90
       50
176
     1
290
     0
176
     1
 90
       50
176
     1
 62
   256
176
     0
 40
1.0
176
     0
 90
        2
176
     1
  1
strokes_ogs.tif
176
     1
290
     0
176
     1
 40
1.0
176
     1
 40
1.0
176
     1
  0
VISUALSTYLE
  5
40
102
{ACAD_REACTORS
330
2A
102
}
330
2A
100
AcDbVisualStyle
  2
X-Ray
 70
    25
177
     3
291
     0
 70
    58
 90
        2
176
     1
 90
        2
176
     1
 90
        1
176
     1
 90
        1
176
     1
 40
0.5
176
     1
 40
30.0
176
     1
 62
     7
420
 16777215
176
     1
 90
        1
176
     1
 90
        0
176
     1
 62
     7
176
     1
 62
   257
176
     1
 90
        1
176
     1
 90
        1
176
     1
 40
1.0
176
     1
 90
        8
176
     1
 62
     7
176
     1
 40
1.0
176
     1
 90
        1
176
     1
 90
        6
176
     1
 90
        2
176
     1
 62
     7
176
     1
 90
        3
176
     1
 90
        0
176
     1
 90
        0
176
     1
290
     0
176
     1
 90
       13
176
     1
 40
0.0
176
     1
 90
        0
176
     1
290
     0
176
     1
290
     1
176
     1
290
     1
176
     1
290
     0
176
     1
290
     0
176
     1
290
     0
176
     1
290
     0
176
     1
290
     0
176
     1
290
     0
176
     1
 90
       50
176
     1
 40
0.0
176
     1
 40
1.0
176
     1
 90
        0
176
     1
 62
    18
420
        0
176
     1
 90
       50
176
     1
 90
        3
176
     1
 62
     5
420
      255
176
     1
290
     0
176
     1
 90
       50
176
     1
 90
       50
176
     1
 90
       50
176
     1
290
     0
176
     1
 90
       50
176
     1
 62
   256
176
     0
 40
1.0
176
     0
 90
        2
176
     1
  1
strokes_ogs.tif
176
     1
290
     0
176
     1
 40
1.0
176
     1
 40
1.0
176
     1
  0
DICTIONARYVAR
  5
2DE
102
{ACAD_REACTORS
330
2DD
102
}
330
2DD
100
DictionaryVariables
280
     0
  1
1:1
  0
DICTIONARYVAR
  5
2E6
102
{ACAD_REACTORS
330
2DD
102
}
330
2DD
100
DictionaryVariables
280
     0
  1
3.500000
  0
DICTIONARYVAR
  5
2E7
102
{ACAD_REACTORS
330
2DD
102
}
330
2DD
100
DictionaryVariables
280
     0
  1
acadiso.lin
  0
DICTIONARYVAR
  5
2E3
102
{ACAD_REACTORS
330
2DD
102
}
330
2DD
100
DictionaryVariables
280
     0
  1
Standard
  0
DICTIONARYVAR
  5
2E2
102
{ACAD_REACTORS
330
2DD
102
}
330
2DD
100
DictionaryVariables
280
     0
  1
Standard
  0
DICTIONARY
  5
2DF
330
6A
100
AcDbDictionary
280
     1
281
     1
  3
ACAD_ROUNDTRIP_2008_TABLESTYLE_CELLSTYLEMAP
360
2E0
  0
CELLSTYLEMAP
  5
2E0
102
{ACAD_REACTORS
330
2DF
102
}
330
2DF
100
AcDbCellStyleMap
 90
        3
300
CELLSTYLE
  1
TABLEFORMAT_BEGIN
 90
        5
170
     1
 91
        0
 92
    32768
 62
   257
 93
        1
300
CONTENTFORMAT
  1
CONTENTFORMAT_BEGIN
 90
        0
 91
        0
 92
        4
 93
        0
300

 40
0.0
140
1.0
 94
        5
 62
     0
340
11
144
6.0
309
CONTENTFORMAT_END
171
     1
301
MARGIN
  1
CELLMARGIN_BEGIN
 40
1.5
 40
1.5
 40
1.5
 40
1.5
 40
1.5
 40
1.5
309
CELLMARGIN_END
 94
        6
 95
        1
302
GRIDFORMAT
  1
GRIDFORMAT_BEGIN
 90
        0
 91
        1
 62
     0
 92
       -2
340
14
 93
        0
 40
0.045
309
GRIDFORMAT_END
 95
        2
302
GRIDFORMAT
  1
GRIDFORMAT_BEGIN
 90
        0
 91
        1
 62
     0
 92
       -2
340
14
 93
        0
 40
0.045
309
GRIDFORMAT_END
 95
        4
302
GRIDFORMAT
  1
GRIDFORMAT_BEGIN
 90
        0
 91
        1
 62
     0
 92
       -2
340
14
 93
        0
 40
0.045
309
GRIDFORMAT_END
 95
        8
302
GRIDFORMAT
  1
GRIDFORMAT_BEGIN
 90
        0
 91
        1
 62
     0
 92
       -2
340
14
 93
        0
 40
0.045
309
GRIDFORMAT_END
 95
       16
302
GRIDFORMAT
  1
GRIDFORMAT_BEGIN
 90
        0
 91
        1
 62
     0
 92
       -2
340
14
 93
        0
 40
0.045
309
GRIDFORMAT_END
 95
       32
302
GRIDFORMAT
  1
GRIDFORMAT_BEGIN
 90
        0
 91
        1
 62
     0
 92
       -2
340
14
 93
        0
 40
0.045
309
GRIDFORMAT_END
309
TABLEFORMAT_END
  1
CELLSTYLE_BEGIN
 90
        1
 91
        1
300
_TITLE
309
CELLSTYLE_END
300
CELLSTYLE
  1
TABLEFORMAT_BEGIN
 90
        5
170
     1
 91
        0
 92
        0
 62
   257
 93
        1
300
CONTENTFORMAT
  1
CONTENTFORMAT_BEGIN
 90
        0
 91
        0
 92
        4
 93
        0
300

 40
0.0
140
1.0
 94
        5
 62
     0
340
11
144
4.5
309
CONTENTFORMAT_END
171
     1
301
MARGIN
  1
CELLMARGIN_BEGIN
 40
1.5
 40
1.5
 40
1.5
 40
1.5
 40
1.5
 40
1.5
309
CELLMARGIN_END
 94
        6
 95
        1
302
GRIDFORMAT
  1
GRIDFORMAT_BEGIN
 90
        0
 91
        1
 62
     0
 92
       -2
340
14
 93
        0
 40
0.045
309
GRIDFORMAT_END
 95
        2
302
GRIDFORMAT
  1
GRIDFORMAT_BEGIN
 90
        0
 91
        1
 62
     0
 92
       -2
340
14
 93
        0
 40
0.045
309
GRIDFORMAT_END
 95
        4
302
GRIDFORMAT
  1
GRIDFORMAT_BEGIN
 90
        0
 91
        1
 62
     0
 92
       -2
340
14
 93
        0
 40
0.045
309
GRIDFORMAT_END
 95
        8
302
GRIDFORMAT
  1
GRIDFORMAT_BEGIN
 90
        0
 91
        1
 62
     0
 92
       -2
340
14
 93
        0
 40
0.045
309
GRIDFORMAT_END
 95
       16
302
GRIDFORMAT
  1
GRIDFORMAT_BEGIN
 90
        0
 91
        1
 62
     0
 92
       -2
340
14
 93
        0
 40
0.045
309
GRIDFORMAT_END
 95
       32
302
GRIDFORMAT
  1
GRIDFORMAT_BEGIN
 90
        0
 91
        1
 62
     0
 92
       -2
340
14
 93
        0
 40
0.045
309
GRIDFORMAT_END
309
TABLEFORMAT_END
  1
CELLSTYLE_BEGIN
 90
        2
 91
        1
300
_HEADER
309
CELLSTYLE_END
300
CELLSTYLE
  1
TABLEFORMAT_BEGIN
 90
        5
170
     1
 91
        0
 92
        0
 62
   257
 93
        1
300
CONTENTFORMAT
  1
CONTENTFORMAT_BEGIN
 90
        0
 91
        0
 92
        4
 93
        0
300

 40
0.0
140
1.0
 94
        2
 62
     0
340
11
144
4.5
309
CONTENTFORMAT_END
171
     1
301
MARGIN
  1
CELLMARGIN_BEGIN
 40
1.5
 40
1.5
 40
1.5
 40
1.5
 40
1.5
 40
1.5
309
CELLMARGIN_END
 94
        6
 95
        1
302
GRIDFORMAT
  1
GRIDFORMAT_BEGIN
 90
        0
 91
        1
 62
     0
 92
       -2
340
14
 93
        0
 40
0.045
309
GRIDFORMAT_END
 95
        2
302
GRIDFORMAT
  1
GRIDFORMAT_BEGIN
 90
        0
 91
        1
 62
     0
 92
       -2
340
14
 93
        0
 40
0.045
309
GRIDFORMAT_END
 95
        4
302
GRIDFORMAT
  1
GRIDFORMAT_BEGIN
 90
        0
 91
        1
 62
     0
 92
       -2
340
14
 93
        0
 40
0.045
309
GRIDFORMAT_END
 95
        8
302
GRIDFORMAT
  1
GRIDFORMAT_BEGIN
 90
        0
 91
        1
 62
     0
 92
       -2
340
14
 93
        0
 40
0.045
309
GRIDFORMAT_END
 95
       16
302
GRIDFORMAT
  1
GRIDFORMAT_BEGIN
 90
        0
 91
        1
 62
     0
 92
       -2
340
14
 93
        0
 40
0.045
309
GRIDFORMAT_END
 95
       32
302
GRIDFORMAT
  1
GRIDFORMAT_BEGIN
 90
        0
 91
        1
 62
     0
 92
       -2
340
14
 93
        0
 40
0.045
309
GRIDFORMAT_END
309
TABLEFORMAT_END
  1
CELLSTYLE_BEGIN
 90
        3
 91
        2
300
_DATA
309
CELLSTYLE_END
  0
ENDSEC
  0
EOF
